{"glyphs":{"0":{"ha":769,"x_min":61,"x_max":739,"o":"m 732 578 l 706 413 q 668 255 694 332 q 598 117 642 178 q 486 20 553 55 q 326 -14 419 -16 q 205 13 254 -12 q 125 81 155 39 q 80 178 94 124 q 63 292 65 232 q 68 412 61 353 l 93 578 q 132 735 105 659 q 203 873 158 812 q 314 968 248 934 q 474 1001 381 1003 q 595 975 546 1000 q 675 908 644 950 q 720 812 705 866 q 737 698 735 758 q 732 578 739 638 m 528 388 l 561 605 q 567 665 564 632 q 568 731 570 698 q 555 794 566 765 q 523 841 545 823 q 463 861 501 859 q 377 839 412 863 q 321 775 342 815 q 289 690 300 736 q 272 604 278 645 l 240 387 q 234 328 237 361 q 233 260 231 294 q 245 196 235 225 q 277 148 255 166 q 336 127 298 129 q 424 149 389 124 q 479 214 458 174 q 511 301 500 254 q 528 388 522 347 z "},"1":{"ha":769,"x_min":161,"x_max":613,"o":"m 613 990 l 446 0 l 271 0 l 406 777 l 161 699 l 188 850 l 590 990 l 613 990 z "},"2":{"ha":769,"x_min":5,"x_max":741,"o":"m 677 141 l 655 0 l 5 0 l 25 128 l 383 468 q 453 539 416 500 q 518 621 490 577 q 553 714 547 665 q 549 785 558 752 q 514 840 539 819 q 446 861 489 861 q 357 838 394 863 q 299 772 321 813 q 271 684 278 730 l 98 683 q 155 850 104 778 q 284 963 205 923 q 458 1002 363 1004 q 606 969 541 1000 q 706 877 671 937 q 734 730 741 817 q 704 620 729 671 q 641 522 678 568 q 560 434 603 475 q 477 355 517 393 l 255 142 l 677 141 z "},"3":{"ha":769,"x_min":21,"x_max":741,"o":"m 285 573 l 376 572 q 463 590 423 573 q 527 642 502 608 q 557 724 553 675 q 551 795 562 764 q 512 843 539 825 q 445 861 486 861 q 371 846 404 862 q 316 801 338 830 q 287 732 294 771 l 112 731 q 168 878 118 817 q 292 971 218 939 q 449 1002 367 1003 q 600 969 532 1001 q 704 875 667 937 q 735 725 741 814 q 700 616 731 663 q 621 538 669 569 q 517 491 573 507 q 405 475 460 475 l 269 476 l 285 573 m 263 435 l 279 530 l 394 530 q 505 513 452 528 q 598 469 557 498 q 661 393 640 439 q 679 281 683 347 q 643 154 674 210 q 560 60 611 98 q 445 4 509 22 q 314 -14 382 -15 q 197 7 251 -13 q 103 63 143 27 q 42 152 64 100 q 22 269 21 203 l 197 269 q 211 196 195 228 q 255 147 226 165 q 326 128 284 129 q 412 146 374 127 q 475 200 451 165 q 505 283 500 235 q 496 364 511 331 q 450 415 481 397 q 370 434 418 433 l 263 435 z "},"4":{"ha":769,"x_min":11,"x_max":727,"o":"m 727 360 l 703 219 l 11 219 l 24 336 l 538 987 l 688 987 l 488 718 l 210 361 l 727 360 m 722 987 l 551 0 l 375 0 l 547 987 l 722 987 z "},"5":{"ha":769,"x_min":52,"x_max":774,"o":"m 257 456 l 115 492 l 245 987 l 774 987 l 751 839 l 369 839 l 302 608 q 373 637 334 628 q 450 647 411 647 q 570 620 519 647 q 651 548 620 593 q 694 443 682 502 q 701 321 706 385 q 666 186 694 248 q 590 79 637 124 q 479 9 543 33 q 342 -14 416 -16 q 226 8 279 -13 q 135 67 174 29 q 75 156 96 104 q 52 271 54 208 l 224 271 q 240 200 227 232 q 280 149 253 168 q 350 127 307 129 q 424 144 393 127 q 476 191 455 161 q 510 256 498 220 q 526 329 522 292 q 524 396 529 363 q 505 454 519 429 q 463 495 490 479 q 398 511 437 510 q 322 497 357 512 q 257 456 287 483 z "},"6":{"ha":769,"x_min":59,"x_max":712,"o":"m 637 996 l 665 996 l 650 851 l 642 851 q 500 828 564 852 q 386 759 435 804 q 305 652 336 714 q 262 515 273 590 l 240 355 q 238 283 236 322 q 251 210 239 245 q 287 152 262 175 q 355 128 311 129 q 427 144 395 127 q 480 191 458 161 q 514 256 502 220 q 531 327 527 292 q 531 391 534 358 q 514 452 527 424 q 477 498 501 481 q 415 517 452 516 q 331 497 369 518 q 266 441 292 477 q 229 362 239 406 l 173 392 q 207 498 182 449 q 272 583 233 547 q 361 640 311 620 q 472 658 412 659 q 586 627 539 656 q 662 551 633 598 q 701 446 690 504 q 707 330 712 389 q 672 195 701 258 q 595 85 643 132 q 485 11 548 37 q 349 -14 422 -16 q 212 21 269 -12 q 120 111 155 55 q 72 235 85 167 q 67 375 59 304 l 76 447 q 136 660 92 561 q 251 835 180 760 q 418 953 321 910 q 637 996 515 996 z "},"7":{"ha":769,"x_min":85,"x_max":804,"o":"m 804 987 l 787 882 l 277 0 l 85 0 l 593 846 l 111 846 l 133 987 l 804 987 z "},"8":{"ha":769,"x_min":35,"x_max":745,"o":"m 680 275 q 623 115 674 180 q 494 17 572 50 q 326 -14 416 -16 q 176 20 243 -12 q 72 114 109 53 q 41 264 35 176 q 77 385 45 332 q 159 474 109 438 q 270 527 209 509 q 395 543 332 545 q 541 510 473 542 q 647 419 608 479 q 680 275 686 360 m 507 286 q 500 360 512 326 q 461 415 488 394 q 391 437 434 436 q 307 416 344 438 q 246 357 269 395 q 218 275 223 320 q 225 201 214 234 q 265 148 237 168 q 336 127 292 128 q 420 147 383 126 q 479 204 456 168 q 507 286 502 241 m 741 732 q 685 589 734 648 q 563 499 636 530 q 410 471 489 469 q 275 502 338 473 q 175 587 212 532 q 142 721 138 643 q 195 874 148 811 q 315 971 241 938 q 474 1002 389 1004 q 616 968 554 1000 q 712 875 678 935 q 741 732 745 815 m 564 725 q 558 790 567 760 q 525 841 549 821 q 463 861 502 861 q 389 842 421 862 q 339 787 357 821 q 315 713 320 753 q 321 648 312 679 q 353 597 330 616 q 416 576 376 577 q 490 596 458 576 q 540 651 521 617 q 564 725 559 686 z "},"9":{"ha":769,"x_min":92,"x_max":732,"o":"m 154 138 l 164 138 q 303 158 241 138 q 412 218 366 178 q 488 317 458 258 q 529 450 518 375 l 553 630 q 556 700 557 661 q 545 775 555 739 q 511 835 535 811 q 444 860 487 859 q 374 842 404 861 q 322 791 343 823 q 288 723 300 760 q 273 652 276 686 q 272 588 269 622 q 288 526 275 555 q 323 477 300 496 q 385 457 347 458 q 451 470 420 457 q 505 506 481 483 q 545 558 528 529 q 567 621 561 588 l 626 594 q 595 491 620 540 q 531 404 570 442 q 443 343 492 365 q 337 322 393 321 q 221 351 269 323 q 144 427 174 380 q 104 531 115 473 q 97 650 92 589 q 132 785 103 721 q 208 898 161 849 q 318 976 255 947 q 456 1002 381 1004 q 593 964 538 1000 q 680 869 648 928 q 722 741 711 811 q 725 600 732 671 l 717 537 q 675 361 705 444 q 598 211 645 278 q 486 94 551 143 q 339 19 421 45 q 158 -8 257 -8 l 139 -8 l 154 138 z "},"\u0000":{"ha":0,"x_min":0,"x_max":0,"o":""},"\u0002":{"ha":0,"x_min":0,"x_max":0,"o":""},"\r":{"ha":342,"x_min":0,"x_max":0,"o":""}," ":{"ha":342,"x_min":0,"x_max":0,"o":""},"!":{"ha":360,"x_min":30,"x_max":378,"o":"m 378 987 l 239 296 l 91 296 l 192 987 l 378 987 m 30 81 q 59 151 30 123 q 130 179 87 178 q 198 154 170 180 q 228 87 227 127 q 199 17 228 45 q 129 -11 170 -11 q 60 14 88 -12 q 30 81 31 39 z "},"\"":{"ha":429,"x_min":94,"x_max":481,"o":"m 275 1042 l 260 940 l 195 681 l 94 681 l 135 941 l 151 1042 l 275 1042 m 481 1042 l 465 940 l 401 681 l 300 681 l 342 946 l 357 1042 l 481 1042 z "},"#":{"ha":805,"x_min":25,"x_max":835,"o":"m 78 0 l 421 987 l 539 987 l 196 0 l 78 0 m 330 0 l 673 987 l 791 987 l 448 0 l 330 0 m 815 595 l 130 595 l 149 705 l 835 705 l 815 595 m 711 278 l 25 278 l 44 388 l 730 388 l 711 278 z "},"$":{"ha":769,"x_min":42,"x_max":752,"o":"m 574 1145 l 541 943 l 438 943 l 471 1145 l 574 1145 m 388 37 l 359 -144 l 256 -144 l 286 37 l 388 37 m 509 263 q 499 334 514 305 q 456 384 484 363 q 393 419 427 404 q 267 488 324 450 q 176 582 209 526 q 149 723 144 638 q 202 874 155 811 q 323 971 250 938 q 481 1002 396 1004 q 604 976 552 1001 q 689 907 656 951 q 737 806 722 864 q 749 682 752 749 l 574 683 q 573 742 576 711 q 559 798 570 772 q 527 841 548 825 q 469 859 505 857 q 397 842 428 859 q 347 794 366 825 q 323 724 328 763 q 333 653 318 682 q 377 605 348 625 q 440 569 406 585 q 565 499 508 538 q 655 404 623 460 q 682 264 687 348 q 627 110 675 172 q 502 15 578 47 q 338 -15 425 -16 q 210 10 265 -14 q 116 75 154 33 q 60 176 79 117 q 45 304 42 234 l 220 304 q 224 239 218 271 q 243 183 229 208 q 283 144 258 159 q 347 129 309 130 q 424 145 389 129 q 481 191 458 161 q 509 263 503 221 z "},"%":{"ha":994,"x_min":121,"x_max":908,"o":"m 125 745 l 129 798 q 165 905 135 858 q 244 977 195 951 q 355 1002 294 1003 q 457 974 414 1001 q 523 902 500 947 q 541 798 545 856 l 536 745 q 500 638 530 685 q 421 567 470 592 q 311 543 372 541 q 209 570 252 543 q 144 642 166 596 q 125 745 121 688 m 250 798 l 243 743 q 248 697 242 720 q 270 661 254 675 q 313 645 286 646 q 364 659 342 644 q 398 696 385 673 q 416 745 411 719 l 422 798 q 419 846 425 823 q 397 884 413 869 q 353 899 382 899 q 302 885 324 900 q 268 847 281 871 q 250 798 254 824 m 489 190 l 493 242 q 529 349 498 302 q 609 421 560 395 q 720 446 658 447 q 822 418 779 445 q 886 346 865 391 q 905 242 908 300 l 901 190 q 865 82 895 129 q 786 10 835 36 q 675 -14 737 -16 q 573 14 616 -13 q 508 86 530 40 q 489 190 486 132 m 614 242 l 609 187 q 613 141 608 163 q 635 104 619 119 q 677 89 651 90 q 730 101 709 87 q 764 138 751 115 q 781 190 777 162 l 787 243 q 784 290 789 267 q 762 328 778 313 q 718 343 746 342 q 667 330 688 344 q 632 292 645 315 q 614 242 618 269 m 850 840 l 255 76 l 168 130 l 765 894 l 850 840 z "},"&":{"ha":875,"x_min":24,"x_max":810,"o":"m 246 533 l 441 652 q 503 703 475 674 q 534 775 530 732 q 517 836 538 811 q 458 861 495 861 q 401 846 426 862 q 361 803 377 829 q 342 747 346 777 q 350 675 337 710 q 385 607 363 640 q 425 547 406 575 l 793 0 l 604 0 l 304 444 q 246 535 275 488 q 199 635 217 583 q 186 743 182 687 q 229 879 191 820 q 328 971 267 938 q 469 1002 390 1004 q 581 972 530 1000 q 660 896 631 945 q 686 783 689 848 q 661 693 683 734 q 605 620 640 652 q 532 560 571 587 l 301 408 q 260 370 279 391 q 227 322 240 348 q 210 268 213 296 q 217 198 204 229 q 257 147 229 166 q 324 127 284 128 q 452 154 394 124 q 555 237 511 184 q 626 351 599 289 q 662 475 654 414 l 810 476 q 782 338 804 404 q 722 215 760 272 q 627 112 683 157 q 614 101 621 106 q 602 90 608 95 q 464 12 539 39 q 308 -14 389 -16 q 162 21 227 -12 q 60 115 97 54 q 28 260 24 176 q 66 374 33 325 q 148 463 99 424 q 246 533 196 501 z "},"'":{"ha":221,"x_min":90,"x_max":277,"o":"m 277 1042 l 261 941 l 203 683 l 90 683 l 132 947 l 147 1042 l 277 1042 z "},"(":{"ha":469,"x_min":69,"x_max":538,"o":"m 81 385 l 83 399 q 129 603 97 498 q 213 806 161 709 q 339 982 264 904 q 511 1102 413 1059 l 538 1002 q 415 880 467 949 q 328 733 363 812 q 270 571 292 655 q 235 401 247 486 l 233 386 q 218 235 223 318 q 220 66 212 151 q 257 -93 229 -18 q 346 -218 286 -168 l 306 -312 q 170 -180 220 -262 q 97 0 120 -98 q 72 198 74 98 q 81 385 69 298 z "},")":{"ha":472,"x_min":-73,"x_max":404,"o":"m 393 405 l 391 391 q 344 186 377 292 q 258 -17 311 81 q 129 -193 205 -115 q -45 -313 54 -270 l -73 -216 q 50 -93 -1 -162 q 137 55 102 -24 q 195 218 173 134 q 231 388 218 303 l 233 404 q 247 554 242 471 q 244 722 252 637 q 207 882 236 808 q 119 1006 178 957 l 161 1101 q 297 970 245 1051 q 373 790 349 888 q 401 592 397 692 q 393 405 404 492 z "},"*":{"ha":605,"x_min":70,"x_max":645,"o":"m 94 479 l 265 661 l 70 722 l 125 831 l 319 748 l 349 987 l 471 987 l 418 752 l 628 831 l 645 708 l 423 646 l 530 461 l 427 395 l 340 593 l 188 404 l 94 479 z "},"+":{"ha":741,"x_min":36,"x_max":721,"o":"m 721 546 l 694 387 l 36 387 l 64 546 l 721 546 m 524 818 l 399 99 l 232 99 l 357 818 l 524 818 z "},",":{"ha":316,"x_min":-77,"x_max":200,"o":"m 200 161 l 179 38 q 123 -113 167 -43 q 14 -233 79 -183 l -77 -180 q -34 -114 -55 -146 q 2 -46 -14 -81 q 26 29 18 -11 l 49 161 l 200 161 z "},"-":{"ha":494,"x_min":54,"x_max":440,"o":"m 440 494 l 415 352 l 54 352 l 79 494 l 440 494 z "},".":{"ha":382,"x_min":30,"x_max":231,"o":"m 31 85 q 59 156 30 127 q 131 184 88 184 q 201 159 172 185 q 231 91 230 133 q 202 20 231 47 q 130 -8 172 -8 q 60 17 90 -9 q 31 85 31 43 z "},"/":{"ha":513,"x_min":-93,"x_max":595,"o":"m 595 987 l 47 -85 l -93 -85 l 455 987 l 595 987 z "},":":{"ha":374,"x_min":26,"x_max":327,"o":"m 27 85 q 56 156 26 127 q 127 184 85 184 q 198 159 169 185 q 227 91 227 133 q 198 20 228 47 q 127 -8 169 -8 q 57 17 86 -9 q 27 85 27 43 m 126 654 q 155 725 125 696 q 227 753 184 753 q 297 728 268 754 q 326 660 326 702 q 297 589 327 616 q 226 561 268 561 q 156 586 185 560 q 126 654 126 612 z "},";":{"ha":345,"x_min":-64,"x_max":315,"o":"m 115 654 q 143 725 114 696 q 215 753 172 753 q 285 728 256 754 q 315 660 314 702 q 286 589 315 616 q 214 561 256 561 q 144 586 174 560 q 115 654 115 612 m 212 161 l 191 38 q 135 -113 179 -43 q 26 -233 91 -183 l -64 -180 q -22 -114 -43 -146 q 15 -46 -1 -81 q 38 29 31 -11 l 61 161 l 212 161 z "},"<":{"ha":686,"x_min":30,"x_max":660,"o":"m 170 441 l 578 274 l 549 109 l 30 359 l 50 471 l 170 441 m 629 572 l 182 408 l 33 376 l 54 501 l 660 751 l 629 572 z "},"=":{"ha":766,"x_min":60,"x_max":718,"o":"m 718 664 l 692 519 l 111 519 l 136 664 l 718 664 m 667 374 l 642 229 l 60 229 l 85 374 l 667 374 z "},">":{"ha":698,"x_min":26,"x_max":667,"o":"m 523 414 l 110 581 l 138 744 l 667 493 l 647 380 l 523 414 m 58 279 l 511 442 l 665 476 l 642 351 l 26 101 l 58 279 z "},"?":{"ha":663,"x_min":94,"x_max":677,"o":"m 373 296 l 218 295 q 237 396 222 350 q 280 480 252 441 q 351 555 308 519 q 410 606 380 580 q 462 665 440 633 q 490 738 484 696 q 488 797 494 770 q 461 841 481 824 q 406 859 441 857 q 339 843 368 859 q 294 798 311 826 q 270 735 277 770 l 94 734 q 148 881 103 821 q 262 972 192 941 q 416 1002 332 1003 q 554 969 494 1000 q 646 882 614 939 q 671 743 677 825 q 635 630 666 680 q 559 539 604 580 q 468 461 514 498 q 404 388 426 428 q 373 296 382 349 m 158 82 q 186 153 157 125 q 257 181 215 180 q 327 156 298 181 q 355 89 355 130 q 327 19 356 46 q 256 -9 298 -9 q 187 16 216 -9 q 158 82 159 41 z "},"@":{"ha":1208,"x_min":26,"x_max":1159,"o":"m 1143 361 q 1107 229 1133 296 q 1042 106 1082 162 q 943 17 1001 50 q 809 -14 885 -17 q 730 6 762 -13 q 680 58 699 26 q 657 129 662 90 q 658 210 652 168 l 755 598 l 882 598 l 785 210 q 779 170 781 191 q 781 131 777 149 q 796 99 784 112 q 833 85 808 86 q 916 111 882 83 q 974 183 951 139 q 1011 275 998 228 q 1031 358 1025 322 q 1044 507 1044 434 q 1026 642 1044 579 q 971 754 1009 705 q 871 830 932 802 q 720 860 809 859 q 551 831 629 861 q 409 748 473 802 q 296 625 345 695 q 214 475 247 555 q 165 313 182 395 q 151 165 151 238 q 169 26 151 92 q 224 -89 186 -39 q 324 -169 262 -140 q 475 -199 386 -198 q 592 -186 534 -199 q 705 -151 650 -174 l 723 -249 q 603 -295 669 -283 q 474 -307 536 -308 q 284 -273 366 -307 q 149 -181 203 -239 q 66 -44 95 -122 q 31 125 37 34 q 42 314 26 216 q 101 510 60 414 q 202 688 141 606 q 341 833 262 771 q 516 930 420 896 q 721 963 612 964 q 904 929 825 962 q 1035 839 982 897 q 1117 706 1088 782 q 1153 543 1146 631 q 1143 361 1159 455 m 467 284 q 458 233 462 263 q 458 172 455 202 q 475 121 460 142 q 522 99 490 100 q 576 114 553 98 q 618 156 600 130 q 650 209 637 181 q 673 260 664 237 l 720 196 q 682 119 705 157 q 629 50 659 81 q 561 2 600 20 q 475 -14 523 -15 q 384 18 418 -12 q 334 93 349 47 q 318 189 319 138 q 326 284 317 240 q 355 391 335 336 q 407 497 376 446 q 478 587 437 547 q 570 650 519 627 q 682 672 621 673 q 787 650 740 671 q 880 595 833 629 l 809 511 q 756 549 785 535 q 692 563 727 562 q 599 538 638 565 q 533 469 559 512 q 490 377 507 426 q 467 284 474 328 z "},"A":{"ha":899,"x_min":-67,"x_max":819,"o":"m 547 827 l 132 0 l -67 0 l 463 987 l 591 987 l 547 827 m 633 0 l 503 847 l 511 987 l 631 987 l 819 0 l 633 0 m 682 367 l 656 220 l 141 220 l 167 367 l 682 367 z "},"B":{"ha":855,"x_min":20,"x_max":827,"o":"m 473 440 l 218 440 l 241 572 l 441 571 q 530 585 488 571 q 601 629 572 599 q 637 711 630 660 q 629 786 644 758 q 582 826 614 814 q 506 840 549 838 l 349 840 l 203 0 l 20 0 l 191 987 l 511 987 q 632 971 574 986 q 735 926 690 957 q 803 846 779 896 q 822 724 827 796 q 776 595 817 646 q 672 518 735 545 q 537 487 608 492 l 473 440 m 391 0 l 85 0 l 186 146 l 397 146 q 485 163 444 146 q 554 212 526 179 q 589 295 582 245 q 584 370 595 338 q 546 419 574 401 q 474 439 519 437 l 276 440 l 300 572 l 532 571 l 564 521 q 676 487 629 515 q 748 410 724 458 q 768 294 772 361 q 707 125 761 190 q 570 30 653 60 q 391 0 486 -1 z "},"C":{"ha":881,"x_min":60,"x_max":880,"o":"m 633 324 l 812 326 q 738 142 797 218 q 588 25 678 65 q 392 -14 498 -16 q 227 29 294 -12 q 122 137 160 69 q 72 287 84 204 q 71 456 60 370 l 82 531 q 132 708 96 623 q 226 860 168 793 q 365 965 284 927 q 547 1002 445 1004 q 725 956 652 1000 q 837 836 798 912 q 880 657 876 759 l 699 657 q 684 758 699 714 q 634 826 669 802 q 537 853 599 851 q 422 827 470 855 q 342 751 374 799 q 292 646 311 703 q 266 532 274 589 l 255 455 q 248 354 249 409 q 259 250 247 299 q 305 169 272 201 q 401 134 338 136 q 513 155 467 132 q 589 220 559 177 q 633 324 619 264 z "},"D":{"ha":878,"x_min":20,"x_max":844,"o":"m 317 0 l 100 0 l 127 146 l 323 146 q 485 190 418 146 q 591 308 552 235 q 644 469 630 382 l 650 521 q 654 631 657 575 q 632 733 651 686 q 573 808 613 779 q 467 840 533 838 l 242 840 l 268 987 l 472 987 q 644 946 571 985 q 763 843 717 908 q 826 694 808 778 q 833 519 844 611 l 827 469 q 771 283 814 369 q 663 134 729 197 q 509 35 596 71 q 317 0 421 -1 m 374 987 l 203 0 l 20 0 l 191 987 l 374 987 z "},"E":{"ha":760,"x_min":20,"x_max":825,"o":"m 682 146 l 656 0 l 146 0 l 172 146 l 682 146 m 374 987 l 203 0 l 20 0 l 191 987 l 374 987 m 690 580 l 666 437 l 222 437 l 247 580 l 690 580 m 825 987 l 800 840 l 292 840 l 318 987 l 825 987 z "},"F":{"ha":741,"x_min":20,"x_max":810,"o":"m 374 987 l 203 0 l 20 0 l 191 987 l 374 987 m 686 561 l 661 414 l 226 414 l 252 561 l 686 561 m 810 987 l 785 840 l 299 840 l 326 987 l 810 987 z "},"G":{"ha":918,"x_min":66,"x_max":889,"o":"m 857 511 l 796 125 q 689 41 753 71 q 553 -2 625 10 q 416 -13 482 -14 q 246 28 316 -12 q 135 135 176 68 q 80 287 94 202 q 77 461 66 371 l 86 526 q 136 707 100 621 q 230 860 172 793 q 370 965 289 927 q 555 1002 451 1004 q 730 961 658 1000 q 842 851 802 922 q 889 680 882 781 l 713 680 q 692 770 709 732 q 640 831 674 809 q 550 855 605 853 q 433 829 482 858 q 351 751 384 800 q 299 643 318 702 q 271 528 279 585 l 262 460 q 256 353 255 409 q 274 247 258 296 q 329 166 291 197 q 433 134 367 135 q 499 138 467 133 q 561 155 531 143 q 616 189 590 168 l 652 374 l 462 374 l 486 511 l 857 511 z "},"H":{"ha":954,"x_min":20,"x_max":962,"o":"m 758 580 l 732 433 l 227 433 l 252 580 l 758 580 m 374 987 l 203 0 l 20 0 l 191 987 l 374 987 m 962 987 l 791 0 l 610 0 l 781 987 l 962 987 z "},"I":{"ha":387,"x_min":33,"x_max":386,"o":"m 386 987 l 214 0 l 33 0 l 204 987 l 386 987 z "},"J":{"ha":750,"x_min":1,"x_max":764,"o":"m 465 299 l 583 987 l 764 987 l 648 300 q 586 134 635 205 q 460 24 536 63 q 287 -14 383 -16 q 130 24 194 -12 q 34 128 66 61 q 6 287 1 195 l 189 286 q 194 211 186 245 q 228 155 203 176 q 299 133 252 134 q 382 155 347 131 q 438 217 417 178 q 465 299 458 255 z "},"K":{"ha":854,"x_min":20,"x_max":956,"o":"m 374 987 l 203 0 l 20 0 l 191 987 l 374 987 m 956 987 l 485 503 l 219 258 l 219 453 l 404 654 l 720 987 l 956 987 m 581 0 l 359 469 l 503 584 l 787 0 l 581 0 z "},"L":{"ha":728,"x_min":20,"x_max":655,"o":"m 655 146 l 629 0 l 146 0 l 172 146 l 655 146 m 374 987 l 203 0 l 20 0 l 191 987 l 374 987 z "},"M":{"ha":1179,"x_min":20,"x_max":1187,"o":"m 274 987 l 425 987 l 557 245 l 947 987 l 1112 987 l 585 0 l 458 0 l 274 987 m 191 987 l 346 987 l 254 297 l 202 0 l 20 0 l 191 987 m 1032 987 l 1187 987 l 1017 0 l 834 0 l 888 313 l 1032 987 z "},"N":{"ha":954,"x_min":20,"x_max":962,"o":"m 962 987 l 791 0 l 614 0 l 323 692 l 203 0 l 20 0 l 191 987 l 369 987 l 661 294 l 781 987 l 962 987 z "},"O":{"ha":929,"x_min":62,"x_max":897,"o":"m 886 521 l 879 471 q 829 289 865 376 q 732 133 792 201 q 591 24 673 64 q 404 -14 509 -16 q 236 30 304 -12 q 128 141 168 72 q 75 295 88 210 q 73 468 62 380 l 79 519 q 130 700 93 612 q 227 856 168 787 q 369 964 287 924 q 555 1001 452 1003 q 723 958 654 1000 q 831 847 791 916 q 883 693 870 778 q 886 521 897 608 m 695 468 l 702 521 q 708 626 708 570 q 694 732 708 682 q 644 815 680 783 q 545 851 609 848 q 427 824 477 854 q 344 745 378 795 q 291 636 311 695 q 264 520 272 577 l 257 467 q 251 363 251 420 q 265 256 251 307 q 315 171 279 205 q 414 136 350 138 q 532 163 483 133 q 615 242 582 193 q 668 352 648 292 q 695 468 688 411 z "},"P":{"ha":864,"x_min":20,"x_max":867,"o":"m 462 359 l 204 360 l 230 507 l 468 506 q 566 525 522 506 q 640 580 610 543 q 676 673 669 617 q 670 756 683 720 q 625 815 656 793 q 545 840 593 838 l 349 840 l 203 0 l 20 0 l 191 987 l 550 987 q 716 947 643 985 q 828 841 789 909 q 859 674 867 772 q 793 497 850 567 q 649 393 736 427 q 462 359 562 359 z "},"Q":{"ha":929,"x_min":60,"x_max":895,"o":"m 551 139 l 778 -77 l 652 -174 l 429 41 l 551 139 m 884 521 l 877 471 q 827 289 864 376 q 730 132 790 201 q 589 24 671 64 q 402 -14 507 -16 q 234 30 302 -12 q 125 141 165 72 q 73 295 86 210 q 71 468 60 380 l 77 519 q 128 700 91 612 q 225 856 165 787 q 367 964 285 924 q 553 1001 450 1003 q 721 958 652 1000 q 829 847 789 916 q 882 693 869 779 q 884 521 895 608 m 693 468 l 700 521 q 706 626 706 570 q 692 732 706 682 q 642 815 677 783 q 543 851 607 848 q 425 824 474 854 q 342 745 376 795 q 290 636 309 695 q 262 520 270 577 l 254 467 q 249 363 249 420 q 263 256 249 307 q 313 171 278 205 q 412 136 349 138 q 530 163 481 133 q 613 242 580 193 q 666 352 646 292 q 693 468 685 411 z "},"R":{"ha":856,"x_min":20,"x_max":846,"o":"m 191 987 l 530 987 q 693 954 621 985 q 806 858 766 922 q 838 696 846 794 q 799 561 832 616 q 711 467 765 505 q 587 402 656 429 l 524 373 l 206 373 l 231 520 l 452 519 q 547 539 504 519 q 619 594 590 558 q 655 684 648 631 q 648 766 661 732 q 603 819 635 800 q 525 840 572 838 l 349 840 l 203 0 l 20 0 l 191 987 m 566 0 l 420 442 l 604 443 l 760 10 l 760 0 l 566 0 z "},"S":{"ha":823,"x_min":24,"x_max":830,"o":"m 567 261 q 561 325 573 299 q 524 369 548 351 q 469 400 499 387 q 408 423 438 412 q 306 468 356 442 q 215 528 256 493 q 152 611 174 564 q 133 722 129 659 q 173 847 138 794 q 264 935 209 901 q 386 986 320 970 q 515 1001 451 1002 q 678 963 606 1000 q 790 858 749 926 q 827 698 830 791 l 646 698 q 634 781 649 746 q 586 835 618 816 q 504 856 553 854 q 420 842 460 857 q 350 798 379 828 q 314 722 321 768 q 323 664 309 688 q 365 623 338 640 q 421 594 391 606 q 476 573 451 582 q 582 527 531 553 q 672 464 633 500 q 732 378 711 427 q 749 262 753 328 q 709 136 743 189 q 620 50 674 83 q 500 1 565 16 q 370 -14 435 -15 q 235 8 298 -13 q 124 71 172 30 q 50 170 76 111 q 27 304 24 229 l 209 304 q 216 229 206 261 q 249 175 227 197 q 304 143 271 154 q 378 131 336 132 q 462 144 422 130 q 531 186 503 157 q 567 261 559 215 z "},"T":{"ha":828,"x_min":103,"x_max":901,"o":"m 604 987 l 433 0 l 251 0 l 422 987 l 604 987 m 901 987 l 876 840 l 103 840 l 129 987 l 901 987 z "},"U":{"ha":885,"x_min":57,"x_max":907,"o":"m 725 987 l 907 987 l 795 332 q 723 145 779 224 q 580 26 667 67 q 383 -14 492 -16 q 206 31 281 -12 q 94 150 131 73 q 69 332 57 227 l 181 987 l 363 987 l 252 331 q 256 233 245 277 q 301 162 268 189 q 394 133 334 135 q 503 156 457 131 q 576 226 548 180 q 613 332 604 271 l 725 987 z "},"V":{"ha":875,"x_min":101,"x_max":962,"o":"m 395 201 l 755 987 l 962 987 l 469 0 l 330 0 l 395 201 m 296 987 l 412 184 l 415 0 l 283 0 l 101 987 l 296 987 z "},"W":{"ha":1183,"x_min":119,"x_max":1253,"o":"m 294 198 l 606 987 l 709 987 l 692 812 l 363 0 l 252 0 l 294 198 m 296 987 l 329 184 l 302 0 l 182 0 l 119 987 l 296 987 m 793 203 l 1068 987 l 1253 987 l 882 0 l 762 0 l 793 203 m 760 987 l 826 178 l 811 0 l 701 0 l 626 827 l 656 987 l 760 987 z "},"X":{"ha":853,"x_min":-50,"x_max":923,"o":"m 322 987 l 458 636 l 705 987 l 923 987 l 556 490 l 767 0 l 565 0 l 424 358 l 172 0 l -50 0 l 327 507 l 121 987 l 322 987 z "},"Y":{"ha":828,"x_min":107,"x_max":930,"o":"m 300 987 l 431 528 l 722 987 l 930 987 l 496 353 l 435 0 l 251 0 l 316 371 l 107 987 l 300 987 z "},"Z":{"ha":815,"x_min":-20,"x_max":862,"o":"m 728 146 l 703 0 l 30 0 l 56 146 l 728 146 m 842 870 l 111 0 l -20 0 l 1 121 l 733 987 l 862 987 l 842 870 m 798 987 l 772 840 l 127 840 l 153 987 l 798 987 z "},"[":{"ha":370,"x_min":-16,"x_max":475,"o":"m 475 1143 l 452 1007 l 352 1007 l 181 -89 l 282 -89 l 260 -224 l -16 -224 l 198 1143 l 475 1143 z "},"\\":{"ha":565,"x_min":110,"x_max":494,"o":"m 323 -85 l 110 987 l 280 987 l 494 -85 l 323 -85 z "},"]":{"ha":370,"x_min":-92,"x_max":399,"o":"m 101 1007 l 123 1143 l 399 1143 l 186 -224 l -92 -224 l -70 -89 l 32 -89 l 203 1007 l 101 1007 z "},"^":{"ha":584,"x_min":43,"x_max":564,"o":"m 371 819 l 193 494 l 43 494 l 326 987 l 433 987 l 371 819 m 429 494 l 360 837 l 357 987 l 452 987 l 564 494 l 429 494 z "},"_":{"ha":602,"x_min":-94,"x_max":530,"o":"m 530 0 l 506 -138 l -94 -138 l -70 0 l 530 0 z "},"`":{"ha":438,"x_min":140,"x_max":421,"o":"m 324 1042 l 421 836 l 288 836 l 140 1041 l 324 1042 z "},"a":{"ha":724,"x_min":13,"x_max":666,"o":"m 429 156 l 482 497 q 478 556 486 530 q 450 600 471 583 q 393 616 429 616 q 334 606 361 617 q 289 572 307 594 q 264 519 271 551 l 89 518 q 123 622 93 578 q 201 693 154 665 q 302 735 248 722 q 410 747 357 749 q 545 715 486 746 q 635 629 604 685 q 658 493 666 573 l 606 173 q 597 92 600 134 q 608 12 594 50 l 607 0 l 434 -1 q 423 77 422 37 q 429 156 423 117 m 503 447 l 485 340 l 384 341 q 321 334 353 341 q 262 313 290 328 q 217 274 235 298 q 195 214 199 250 q 201 167 191 187 q 230 135 210 146 q 276 122 249 123 q 349 137 313 121 q 412 180 385 152 q 449 244 439 208 l 490 165 q 450 92 475 125 q 390 35 424 59 q 316 -2 356 11 q 233 -15 277 -16 q 122 14 172 -14 q 42 89 71 41 q 16 200 13 137 q 52 320 19 272 q 137 395 85 368 q 251 435 189 423 q 374 448 313 448 l 503 447 z "},"b":{"ha":758,"x_min":7,"x_max":710,"o":"m 188 1042 l 363 1042 l 209 153 l 165 0 l 7 0 l 188 1042 m 703 378 l 702 363 q 671 228 694 296 q 610 105 649 160 q 512 17 570 50 q 375 -14 454 -16 q 259 22 305 -12 q 188 109 213 56 q 153 225 162 163 q 146 347 143 288 l 151 385 q 186 512 161 448 q 252 631 212 576 q 348 718 292 685 q 477 748 404 750 q 600 712 553 747 q 672 624 648 678 q 704 505 697 570 q 703 378 710 441 m 527 364 l 528 379 q 532 450 532 412 q 524 524 532 489 q 491 582 515 559 q 423 606 468 604 q 349 592 382 608 q 293 551 317 577 q 254 490 269 524 q 231 420 239 456 l 216 313 q 223 227 213 269 q 262 158 234 185 q 342 129 291 130 q 425 148 391 127 q 478 205 458 170 q 511 283 499 241 q 527 364 522 325 z "},"c":{"ha":703,"x_min":33,"x_max":678,"o":"m 325 127 q 393 141 363 126 q 444 184 424 157 q 472 248 465 211 l 637 248 q 584 108 630 168 q 467 17 537 49 q 319 -14 397 -16 q 185 18 241 -12 q 95 100 129 49 q 47 217 60 151 q 40 354 33 283 l 43 376 q 79 520 51 452 q 155 640 107 588 q 267 721 202 692 q 413 747 332 749 q 555 709 496 746 q 647 610 615 673 q 677 466 678 547 l 513 467 q 502 534 513 503 q 466 585 491 566 q 401 607 441 605 q 320 588 353 608 q 266 532 287 567 q 233 456 244 497 q 216 376 221 416 l 215 355 q 212 282 212 321 q 221 209 212 243 q 256 151 231 174 q 325 127 280 128 z "},"d":{"ha":758,"x_min":34,"x_max":791,"o":"m 463 166 l 614 1042 l 791 1042 l 610 0 l 452 0 l 463 166 m 40 353 l 41 368 q 73 503 50 435 q 136 628 96 572 q 235 718 176 684 q 372 748 293 751 q 487 711 441 745 q 558 622 532 676 q 593 504 583 567 q 600 385 602 441 l 595 345 q 558 219 584 283 q 492 102 533 155 q 395 16 452 48 q 268 -14 339 -16 q 147 22 195 -12 q 74 111 100 56 q 41 229 49 165 q 40 353 34 292 m 218 368 l 216 354 q 213 284 213 322 q 222 211 213 245 q 255 153 231 176 q 321 128 279 130 q 414 152 374 126 q 479 220 454 178 q 513 310 504 262 l 529 417 q 527 482 532 449 q 508 542 522 515 q 469 587 494 570 q 406 605 444 604 q 325 585 358 607 q 269 527 291 563 q 235 450 248 492 q 218 368 223 408 z "},"e":{"ha":725,"x_min":36,"x_max":690,"o":"m 344 -14 q 210 16 269 -12 q 111 92 151 43 q 54 203 72 140 q 41 340 36 267 l 44 368 q 80 512 52 443 q 158 634 109 581 q 272 719 206 688 q 419 747 338 749 q 549 716 496 746 q 635 635 603 686 q 679 521 667 585 q 683 388 690 457 l 673 313 l 114 313 l 134 436 l 515 435 l 518 451 q 514 526 524 491 q 478 584 505 562 q 408 607 452 606 q 326 586 359 608 q 270 528 292 564 q 235 450 248 492 q 218 368 223 408 l 216 340 q 218 265 212 302 q 240 197 224 228 q 287 148 257 167 q 361 127 317 129 q 463 150 416 126 q 547 214 509 174 l 629 121 q 552 44 598 75 q 452 0 506 14 q 344 -14 398 -14 z "},"f":{"ha":479,"x_min":58,"x_max":585,"o":"m 235 0 l 60 0 l 197 802 q 244 938 207 880 q 342 1028 281 996 q 485 1058 404 1059 q 536 1054 511 1057 q 585 1044 561 1050 l 570 907 q 540 912 555 910 q 510 915 525 914 q 446 901 474 915 q 398 863 417 888 q 374 802 380 838 l 235 0 m 508 734 l 485 605 l 58 605 l 80 734 l 508 734 z "},"g":{"ha":767,"x_min":-7,"x_max":747,"o":"m 586 734 l 747 734 l 625 23 q 560 -147 612 -76 q 428 -255 508 -218 q 248 -290 347 -292 q 152 -274 199 -288 q 63 -234 104 -260 q -7 -168 22 -207 l 81 -64 q 153 -128 112 -105 q 245 -153 195 -151 q 343 -133 300 -154 q 412 -73 385 -112 q 449 20 439 -33 l 543 575 l 586 734 m 41 353 l 43 368 q 76 505 52 437 q 141 629 100 573 q 242 717 182 684 q 381 747 302 749 q 499 712 454 745 q 570 624 545 678 q 603 508 595 570 q 608 384 612 445 l 604 345 q 567 219 593 283 q 502 101 542 155 q 405 16 461 47 q 277 -14 349 -16 q 155 22 203 -12 q 79 110 106 56 q 44 228 52 164 q 41 353 35 292 m 219 368 l 217 353 q 215 282 214 320 q 227 210 216 244 q 262 153 237 175 q 330 129 287 130 q 424 152 384 126 q 490 219 465 177 q 526 310 516 261 l 542 417 q 540 484 545 450 q 520 544 535 517 q 480 588 505 571 q 415 605 454 604 q 333 585 368 607 q 274 528 298 564 q 237 450 251 492 q 219 368 224 408 z "},"h":{"ha":751,"x_min":3,"x_max":691,"o":"m 359 1042 l 178 0 l 3 0 l 184 1042 l 359 1042 m 221 393 l 172 393 q 202 520 179 456 q 264 635 225 583 q 358 719 302 688 q 488 748 414 750 q 590 724 549 747 q 653 662 631 701 q 684 573 676 623 q 685 468 691 523 l 608 0 l 431 0 l 511 470 q 508 538 515 508 q 480 587 502 568 q 416 606 458 605 q 336 589 370 607 q 279 540 302 571 q 241 471 255 509 q 221 393 227 433 z "},"i":{"ha":350,"x_min":17,"x_max":365,"o":"m 319 734 l 193 0 l 17 0 l 144 734 l 319 734 m 166 922 q 194 992 165 965 q 265 1019 223 1019 q 335 995 305 1020 q 364 928 364 970 q 336 860 365 886 q 265 833 307 833 q 196 857 225 832 q 166 922 167 881 z "},"j":{"ha":344,"x_min":-177,"x_max":361,"o":"m 143 734 l 319 734 l 186 -54 q 143 -183 176 -128 q 54 -269 110 -239 q -79 -298 -1 -299 q -128 -294 -104 -298 q -177 -286 -153 -291 l -162 -146 q -132 -152 -147 -150 q -102 -155 -117 -155 q -47 -142 -70 -155 q -11 -107 -24 -130 q 8 -54 3 -84 l 143 734 m 163 922 q 191 992 162 965 q 261 1019 220 1019 q 331 995 301 1019 q 360 928 360 970 q 332 860 361 886 q 261 833 302 833 q 192 857 221 833 q 163 922 163 881 z "},"k":{"ha":711,"x_min":7,"x_max":762,"o":"m 363 1042 l 182 0 l 7 0 l 188 1042 l 363 1042 m 762 734 l 391 376 l 188 196 l 155 347 l 309 510 l 538 734 l 762 734 m 455 0 l 290 349 l 419 459 l 648 0 l 455 0 z "},"l":{"ha":350,"x_min":17,"x_max":373,"o":"m 373 1042 l 193 0 l 17 0 l 197 1042 l 373 1042 z "},"m":{"ha":1171,"x_min":6,"x_max":1108,"o":"m 281 573 l 182 0 l 6 0 l 134 734 l 298 734 l 281 573 m 226 393 l 174 393 q 205 524 182 460 q 267 639 228 588 q 364 720 307 690 q 497 748 421 750 q 591 725 553 747 q 651 667 629 703 q 681 586 673 631 q 684 490 688 540 l 602 0 l 427 0 l 506 472 q 504 539 510 509 q 477 587 498 569 q 415 606 456 605 q 336 589 370 608 q 281 539 303 570 q 245 470 259 508 q 226 393 232 432 m 665 427 l 591 413 q 622 538 599 477 q 685 646 646 598 q 780 722 724 694 q 907 748 836 749 q 1008 724 968 746 q 1070 663 1048 701 q 1101 575 1093 624 q 1102 471 1108 526 l 1023 0 l 847 0 l 926 473 q 925 539 931 510 q 899 587 920 569 q 836 606 878 605 q 768 592 798 607 q 717 551 738 577 q 683 493 696 526 q 665 427 670 460 z "},"n":{"ha":753,"x_min":3,"x_max":692,"o":"m 277 567 l 179 0 l 3 0 l 131 734 l 295 734 l 277 567 m 221 393 l 173 393 q 204 523 181 458 q 267 638 227 587 q 363 720 307 690 q 496 748 420 749 q 596 723 556 746 q 657 662 635 700 q 685 574 679 623 q 686 471 692 524 l 608 0 l 431 0 l 511 473 q 508 541 515 511 q 480 588 502 570 q 416 606 458 605 q 338 589 372 607 q 280 539 304 570 q 242 470 256 508 q 221 393 228 431 z "},"o":{"ha":762,"x_min":34,"x_max":717,"o":"m 40 355 l 42 370 q 80 516 50 447 q 158 637 109 585 q 273 720 206 690 q 422 747 340 749 q 558 715 500 746 q 651 632 615 684 q 702 514 688 581 q 710 375 717 448 l 709 360 q 670 215 700 283 q 591 95 640 147 q 476 14 543 43 q 328 -14 410 -16 q 193 18 250 -12 q 99 100 136 49 q 48 217 63 151 q 40 355 34 283 m 216 370 l 215 355 q 214 281 212 320 q 228 207 216 241 q 267 150 240 172 q 338 127 293 128 q 421 146 386 125 q 479 202 456 167 q 515 279 502 237 q 534 361 529 321 l 535 375 q 536 450 538 410 q 522 525 534 490 q 484 582 510 559 q 412 606 457 605 q 329 587 363 608 q 271 530 294 565 q 234 452 248 494 q 216 370 221 410 z "},"p":{"ha":758,"x_min":-42,"x_max":709,"o":"m 283 583 l 133 -282 l -42 -282 l 134 734 l 296 734 l 283 583 m 703 378 l 701 364 q 671 230 694 298 q 608 107 648 163 q 511 17 568 51 q 375 -14 453 -16 q 260 20 307 -12 q 188 105 214 53 q 150 218 161 157 q 142 338 139 279 l 147 384 q 183 511 158 446 q 250 631 209 576 q 347 718 290 685 q 476 748 403 750 q 599 712 551 746 q 672 624 647 678 q 703 505 696 570 q 703 378 709 441 m 526 365 l 528 380 q 531 450 532 412 q 521 523 530 488 q 488 581 511 558 q 420 606 464 604 q 346 592 378 608 q 290 550 313 577 q 251 489 266 524 q 229 418 235 455 l 212 304 q 220 221 209 261 q 261 155 232 181 q 338 127 290 128 q 419 148 386 126 q 475 206 453 170 q 509 284 497 242 q 526 365 522 326 z "},"q":{"ha":761,"x_min":33,"x_max":737,"o":"m 385 -282 l 537 596 l 581 734 l 737 734 l 561 -282 l 385 -282 m 40 355 l 42 369 q 73 505 50 437 q 136 629 96 573 q 235 717 176 684 q 373 747 294 750 q 489 711 443 745 q 560 623 534 677 q 595 506 586 569 q 602 385 604 444 l 597 346 q 561 219 587 283 q 494 101 535 155 q 397 16 453 47 q 269 -14 340 -16 q 147 22 195 -12 q 74 111 100 56 q 41 230 48 166 q 40 355 33 294 m 218 370 l 216 355 q 213 284 212 323 q 222 211 213 245 q 255 152 232 176 q 322 127 279 128 q 416 151 376 125 q 480 220 456 177 q 515 311 505 263 l 532 418 q 530 484 534 451 q 511 544 525 517 q 471 589 496 572 q 407 607 446 606 q 325 586 359 608 q 270 529 292 564 q 235 451 248 493 q 218 370 222 409 z "},"r":{"ha":485,"x_min":7,"x_max":521,"o":"m 281 575 l 182 0 l 7 0 l 134 734 l 300 734 l 281 575 m 521 740 l 500 572 q 468 577 484 575 q 435 579 452 579 q 362 569 395 580 q 306 536 330 557 q 265 483 281 514 q 240 414 249 452 l 202 419 q 225 530 209 472 q 271 638 241 588 q 346 719 300 688 q 456 749 391 750 q 489 747 473 749 q 521 740 505 744 z "},"s":{"ha":693,"x_min":12,"x_max":656,"o":"m 439 205 q 422 259 444 239 q 369 288 401 278 q 311 304 336 298 q 230 332 271 315 q 155 373 189 348 q 102 433 121 397 q 84 519 82 469 q 114 620 87 577 q 185 692 142 663 q 281 734 229 720 q 386 747 334 749 q 519 720 458 747 q 618 642 581 694 q 655 513 656 589 l 481 513 q 471 569 483 545 q 436 605 459 593 q 379 618 413 618 q 323 608 351 618 q 276 578 296 598 q 252 527 256 557 q 259 487 248 503 q 289 461 270 471 q 330 446 309 452 q 370 435 352 439 q 484 396 428 420 q 576 328 541 372 q 609 214 612 285 q 576 110 606 153 q 500 38 547 66 q 399 -2 454 11 q 292 -14 345 -14 q 155 16 219 -12 q 52 99 91 45 q 12 232 12 153 l 178 231 q 194 168 179 194 q 236 129 208 142 q 300 116 263 116 q 359 124 330 115 q 411 152 389 132 q 439 205 433 172 z "},"t":{"ha":452,"x_min":41,"x_max":473,"o":"m 473 734 l 450 605 l 41 605 l 64 734 l 473 734 m 204 914 l 379 914 l 259 210 q 259 170 256 186 q 275 143 262 153 q 313 133 288 134 q 342 134 328 132 q 371 138 357 136 l 359 2 q 307 -9 333 -5 q 253 -13 280 -13 q 150 16 190 -12 q 94 90 111 43 q 83 197 78 137 l 204 914 z "},"u":{"ha":752,"x_min":45,"x_max":734,"o":"m 463 183 l 558 734 l 734 734 l 607 0 l 442 0 l 463 183 m 507 326 l 562 328 q 532 200 553 262 q 474 90 511 138 q 382 13 437 41 q 252 -14 327 -16 q 151 9 192 -13 q 86 69 110 31 q 53 156 62 107 q 50 260 45 205 l 130 734 l 305 734 l 225 257 q 225 210 222 233 q 236 170 227 188 q 262 141 245 152 q 309 129 280 130 q 411 153 370 127 q 475 225 452 180 q 507 326 498 271 z "},"v":{"ha":675,"x_min":64,"x_max":717,"o":"m 273 144 l 529 734 l 717 734 l 357 0 l 243 0 l 273 144 m 243 734 l 318 125 l 304 0 l 195 0 l 64 734 l 243 734 z "},"w":{"ha":994,"x_min":80,"x_max":1030,"o":"m 237 185 l 486 734 l 602 734 l 532 533 l 286 0 l 185 0 l 237 185 m 246 734 l 267 165 l 247 0 l 139 0 l 80 734 l 246 734 m 650 192 l 856 734 l 1030 734 l 718 0 l 603 0 l 650 192 m 614 734 l 675 172 l 664 0 l 571 0 l 506 550 l 507 734 l 614 734 z "},"x":{"ha":682,"x_min":-51,"x_max":715,"o":"m 262 734 l 351 502 l 517 734 l 715 734 l 444 366 l 600 0 l 420 0 l 321 244 l 148 0 l -51 0 l 231 382 l 81 734 l 262 734 z "},"y":{"ha":669,"x_min":-41,"x_max":724,"o":"m 231 90 l 531 734 l 724 734 l 294 -112 q 252 -185 276 -151 q 198 -245 229 -219 q 131 -284 168 -271 q 46 -298 93 -298 q 2 -294 24 -298 q -41 -286 -20 -290 l -28 -151 q -14 -152 -21 -151 q 1 -153 -6 -153 q 65 -144 37 -154 q 114 -114 93 -134 q 151 -61 134 -93 l 231 90 m 247 734 l 317 184 l 311 2 l 192 -20 l 64 734 l 247 734 z "},"z":{"ha":682,"x_min":-20,"x_max":681,"o":"m 591 141 l 566 0 l 30 0 l 55 141 l 591 141 m 661 618 l 102 0 l -20 0 l 1 119 l 557 734 l 681 734 l 661 618 m 617 734 l 593 592 l 92 592 l 117 734 l 617 734 z "},"{":{"ha":446,"x_min":28,"x_max":517,"o":"m 491 1085 l 517 983 q 414 898 446 957 q 372 768 382 839 l 353 629 q 298 488 342 541 q 184 410 253 435 q 35 382 116 385 l 43 481 q 146 524 110 484 q 191 629 182 565 l 210 768 q 257 915 222 852 q 351 1019 292 977 q 491 1085 410 1061 m 340 -146 l 303 -245 q 183 -176 230 -221 q 116 -68 136 -131 q 104 70 96 -6 l 123 209 q 122 280 128 249 q 94 331 116 312 q 28 354 71 351 l 35 453 q 168 422 109 450 q 258 341 227 395 q 283 208 290 288 l 264 69 q 260 -15 259 27 q 279 -92 262 -57 q 340 -146 297 -126 z "},"|":{"ha":337,"x_min":22,"x_max":316,"o":"m 316 987 l 133 -183 l 22 -183 l 205 987 l 316 987 z "},"}":{"ha":446,"x_min":-67,"x_max":422,"o":"m 110 984 l 149 1082 q 268 1013 221 1058 q 334 906 315 968 q 346 768 354 844 l 327 628 q 328 556 322 588 q 357 506 334 525 q 422 484 379 487 l 415 387 q 283 417 342 390 q 192 497 224 444 q 168 629 160 549 l 186 768 q 190 853 191 810 q 171 930 189 895 q 110 984 153 964 m -41 -248 l -67 -146 q 10 -95 -20 -128 q 56 -20 39 -62 q 79 70 72 22 l 97 208 q 153 348 108 296 q 266 425 197 401 q 416 451 334 449 l 408 356 q 304 313 340 353 q 258 208 269 273 l 239 70 q 193 -77 229 -15 q 99 -182 158 -140 q -41 -248 41 -224 z "},"~":{"ha":882,"x_min":58,"x_max":823,"o":"m 695 535 l 823 536 q 803 435 819 485 q 756 346 786 386 q 683 282 726 305 q 582 260 640 258 q 483 287 526 261 q 404 352 440 313 q 358 393 382 374 q 301 412 334 412 q 243 394 267 413 q 208 345 220 374 q 191 286 195 315 l 58 286 q 79 386 62 337 q 125 474 96 435 q 199 535 155 513 q 300 557 243 558 q 399 530 355 556 q 479 465 443 504 q 524 424 500 444 q 581 404 549 405 q 640 424 616 404 q 676 474 663 444 q 695 535 690 505 z "},"¡":{"ha":369,"x_min":-21,"x_max":327,"o":"m -21 -249 l 118 442 l 266 442 l 165 -249 l -21 -249 m 326 656 q 298 586 327 613 q 227 558 269 559 q 158 583 186 557 q 128 650 129 608 q 157 720 128 693 q 228 748 186 747 q 297 723 269 749 q 326 656 326 698 z "},"¢":{"ha":768,"x_min":52,"x_max":700,"o":"m 541 894 l 505 697 l 377 697 l 412 894 l 541 894 m 391 30 l 356 -166 l 228 -166 l 262 30 l 391 30 m 340 127 q 409 141 378 125 q 460 183 440 156 q 489 248 481 211 l 654 248 q 600 107 646 167 q 482 16 553 48 q 334 -14 412 -16 q 199 18 254 -12 q 110 100 144 49 q 64 217 77 152 q 59 354 52 283 l 61 376 q 100 520 71 452 q 177 640 129 588 q 290 721 224 692 q 437 747 356 749 q 579 709 520 746 q 669 610 638 673 q 699 466 700 547 l 534 467 q 524 534 534 503 q 489 586 513 566 q 425 607 465 606 q 343 588 376 608 q 287 532 309 567 q 253 457 265 498 q 236 376 241 416 l 234 355 q 230 283 230 321 q 238 209 229 244 q 272 151 248 174 q 340 127 296 128 z "},"£":{"ha":797,"x_min":-5,"x_max":812,"o":"m 689 0 l -5 0 l 21 146 l 714 146 l 689 0 m 555 401 l 62 401 l 87 544 l 581 544 l 555 401 m 393 705 l 342 291 q 300 174 335 222 q 207 94 266 125 l 81 147 q 122 180 107 157 q 143 230 136 202 q 155 281 151 257 l 212 705 q 268 862 222 794 q 385 966 313 929 q 548 1000 457 1002 q 692 964 632 998 q 782 868 751 930 q 809 723 812 806 l 635 724 q 628 788 637 759 q 597 836 619 818 q 535 855 574 854 q 463 834 492 856 q 416 778 433 812 q 393 705 399 743 z "},"¤":{"ha":939,"x_min":1,"x_max":951,"o":"m 200 406 q 203 301 193 353 q 241 207 214 249 q 312 138 269 164 q 415 111 356 112 q 535 133 479 109 q 635 202 591 158 q 707 302 679 246 q 744 418 736 359 q 741 524 751 472 q 704 617 731 575 q 632 686 676 660 q 530 713 589 711 q 410 690 466 715 q 310 622 354 665 q 237 522 266 578 q 200 406 209 467 m 81 407 q 128 570 90 492 q 227 709 166 648 q 367 805 288 770 q 534 838 445 839 q 684 800 618 836 q 792 705 749 764 q 853 571 835 645 q 864 418 872 496 q 817 254 854 332 q 718 115 779 176 q 578 19 656 54 q 411 -14 500 -16 q 261 24 327 -12 q 153 119 196 60 q 91 254 110 179 q 81 407 72 328 m 951 755 l 801 623 l 722 726 l 871 858 l 951 755 m 229 115 l 80 -18 l 1 85 l 150 216 l 229 115 m 733 -18 l 618 129 l 717 216 l 832 70 l 733 -18 m 234 623 l 119 770 l 218 857 l 332 710 l 234 623 z "},"¥":{"ha":719,"x_min":26,"x_max":817,"o":"m 660 502 l 642 394 l 60 394 l 79 502 l 660 502 m 626 304 l 608 197 l 26 197 l 45 304 l 626 304 m 329 481 l 618 987 l 817 987 l 441 387 l 337 387 l 329 481 m 295 987 l 418 462 l 383 387 l 280 387 l 113 987 l 295 987 m 467 517 l 378 0 l 196 0 l 286 517 l 467 517 z "},"¦":{"ha":335,"x_min":-16,"x_max":348,"o":"m 144 -183 l -16 -183 l 78 355 l 238 355 l 144 -183 m 348 987 l 258 473 l 98 473 l 188 987 l 348 987 z "},"§":{"ha":842,"x_min":-20,"x_max":816,"o":"m 398 87 l 406 180 q 483 195 446 181 q 546 236 520 208 q 579 308 572 264 q 570 367 585 342 q 528 408 555 391 q 470 435 500 424 q 412 455 439 446 q 309 496 359 473 q 219 550 258 518 q 158 629 179 583 q 141 741 137 675 q 180 861 146 811 q 269 942 215 911 q 385 988 322 974 q 510 1001 448 1002 q 671 967 602 1000 q 778 870 741 934 q 812 711 816 806 l 639 711 q 626 788 641 755 q 579 840 610 821 q 502 859 548 859 q 422 849 463 860 q 353 812 382 838 q 316 743 323 787 q 325 683 311 707 q 366 645 339 660 q 423 621 392 631 q 480 602 454 611 q 585 564 534 586 q 676 511 635 543 q 738 433 716 479 q 756 322 760 387 q 718 207 751 252 q 631 136 684 161 q 517 99 578 110 q 398 87 456 88 m 402 595 l 395 501 q 320 486 355 500 q 263 445 286 472 q 234 375 241 417 q 242 314 229 338 q 281 273 256 289 q 337 247 307 258 q 397 227 368 236 q 502 187 451 209 q 592 133 553 165 q 653 55 631 101 q 669 -58 674 8 q 631 -179 665 -130 q 544 -259 597 -229 q 429 -303 492 -290 q 303 -316 366 -317 q 175 -297 235 -315 q 72 -245 116 -280 q 4 -157 28 -210 q -18 -29 -20 -103 l 157 -29 q 166 -94 156 -66 q 197 -138 176 -121 q 246 -164 217 -155 q 311 -173 275 -173 q 389 -163 349 -174 q 459 -127 429 -153 q 495 -60 488 -102 q 486 -3 501 -26 q 443 36 470 20 q 384 62 415 52 q 329 80 353 72 q 226 119 277 97 q 136 173 176 141 q 73 251 96 205 q 55 361 51 296 q 92 474 59 429 q 176 545 125 519 q 286 583 227 572 q 402 595 345 594 z "},"¨":{"ha":617,"x_min":145,"x_max":633,"o":"m 145 926 q 171 985 145 962 q 231 1010 196 1009 q 292 988 266 1010 q 319 930 318 966 q 294 870 319 894 q 233 846 268 847 q 172 868 199 846 q 145 926 146 890 m 459 925 q 484 985 458 961 q 545 1009 509 1008 q 606 987 579 1010 q 633 929 632 965 q 608 870 633 893 q 547 846 582 846 q 486 867 513 845 q 459 925 460 889 z "},"©":{"ha":1059,"x_min":62,"x_max":1017,"o":"m 633 404 l 732 405 q 662 246 724 303 q 497 192 600 189 q 378 231 424 194 q 312 328 332 269 q 296 454 292 387 l 304 534 q 345 665 313 605 q 431 762 376 726 q 563 797 486 798 q 715 738 662 795 q 765 583 768 680 l 665 584 q 646 673 669 640 q 563 708 624 707 q 481 683 514 709 q 430 618 448 658 q 406 534 412 578 l 396 454 q 398 377 393 416 q 427 310 404 338 q 496 281 450 283 q 591 313 559 279 q 633 404 624 347 m 151 490 q 157 337 141 412 q 214 203 173 263 q 318 107 254 143 q 466 69 381 71 q 633 102 555 67 q 773 198 711 136 q 875 337 836 259 q 926 499 915 415 q 921 650 937 576 q 864 784 905 724 q 760 881 823 844 q 612 918 697 917 q 445 886 524 920 q 304 790 366 851 q 203 652 243 730 q 151 490 163 574 m 72 490 q 128 683 83 591 q 245 848 173 776 q 410 962 317 920 q 608 1001 503 1003 q 788 957 709 1000 q 919 843 866 914 q 994 683 971 772 q 1006 498 1017 593 q 950 306 995 398 q 833 140 905 213 q 668 26 761 68 q 471 -14 576 -16 q 290 31 369 -12 q 159 145 212 73 q 84 306 107 216 q 72 490 62 395 z "},"ª":{"ha":599,"x_min":128,"x_max":568,"o":"m 418 584 l 453 816 q 452 859 456 840 q 434 890 448 878 q 395 903 421 902 q 330 888 357 905 q 292 834 302 871 l 180 843 q 216 934 184 899 q 295 986 248 970 q 394 1002 342 1003 q 490 977 450 1001 q 549 912 529 954 q 564 814 568 870 l 531 601 q 525 539 526 570 q 530 477 524 509 l 421 477 q 418 584 411 531 m 478 780 l 465 702 l 377 702 q 321 694 351 701 q 271 669 292 686 q 243 621 249 651 q 259 576 239 589 q 307 562 279 563 q 360 573 333 562 q 411 602 388 583 q 444 644 433 620 l 448 565 q 407 512 433 534 q 350 479 381 490 q 283 468 318 468 q 172 508 215 468 q 130 618 128 548 q 169 718 131 683 q 261 767 206 753 q 370 781 316 781 l 478 780 z "},"«":{"ha":671,"x_min":43,"x_max":646,"o":"m 399 631 l 190 358 l 47 356 l 47 368 l 273 631 l 399 631 m 181 363 l 298 90 l 191 90 l 43 353 l 43 365 l 181 363 m 646 631 l 437 358 l 294 356 l 294 368 l 519 631 l 646 631 m 428 363 l 545 90 l 437 90 l 290 353 l 290 365 l 428 363 z "},"¬":{"ha":743,"x_min":87,"x_max":656,"o":"m 656 545 l 636 431 l 87 431 l 106 545 l 656 545 m 647 493 l 606 254 l 477 254 l 519 493 l 647 493 z "},"®":{"ha":1059,"x_min":62,"x_max":1016,"o":"m 556 444 l 405 444 l 418 532 l 534 532 q 589 541 561 533 q 639 568 618 549 q 666 617 661 586 q 660 669 672 651 q 625 694 648 687 q 572 702 602 701 l 476 702 l 399 214 l 302 214 l 393 791 l 567 790 q 665 770 620 788 q 738 715 711 752 q 762 619 764 677 q 736 542 760 568 q 675 502 711 517 q 604 466 640 486 q 598 462 601 465 q 593 457 596 459 q 582 449 587 452 q 570 445 576 446 q 556 444 564 444 m 541 443 l 556 513 q 677 470 634 511 q 714 349 720 430 l 711 311 q 710 269 709 289 q 713 226 711 248 l 712 214 l 614 214 q 612 263 610 239 q 616 313 614 288 l 621 350 q 607 418 625 398 q 541 443 588 438 m 151 490 q 156 337 140 412 q 213 203 172 263 q 317 107 254 143 q 465 68 381 71 q 633 102 555 67 q 773 198 711 136 q 875 337 836 259 q 926 499 915 415 q 921 651 937 576 q 864 785 905 725 q 760 881 823 844 q 612 918 696 917 q 445 886 524 920 q 304 790 366 851 q 202 652 242 730 q 151 490 163 574 m 71 490 q 128 683 83 591 q 245 848 173 776 q 410 962 317 920 q 608 1001 502 1003 q 787 957 709 1000 q 918 843 866 914 q 993 683 970 772 q 1006 498 1016 593 q 950 305 995 398 q 833 140 905 212 q 668 26 761 67 q 470 -14 576 -16 q 290 31 369 -12 q 159 145 212 73 q 84 306 107 216 q 71 490 62 395 z "},"¯":{"ha":661,"x_min":180,"x_max":648,"o":"m 648 985 l 631 878 l 180 878 l 197 985 l 648 985 z "},"°":{"ha":520,"x_min":155,"x_max":507,"o":"m 156 812 q 183 906 157 862 q 252 976 210 949 q 347 1002 295 1002 q 430 976 394 1001 q 487 910 467 950 q 506 824 507 869 q 479 730 504 773 q 412 661 454 687 q 318 635 370 635 q 234 661 271 636 q 176 725 197 686 q 156 812 155 765 m 248 813 q 263 756 244 781 q 316 732 282 731 q 381 759 353 732 q 413 823 408 787 q 400 880 418 854 q 349 906 382 905 q 282 878 311 906 q 248 813 253 849 z "},"±":{"ha":723,"x_min":14,"x_max":696,"o":"m 696 622 l 673 477 l 69 477 l 93 622 l 696 622 m 513 869 l 412 219 l 258 219 l 359 869 l 513 869 m 602 143 l 579 1 l 14 1 l 36 143 l 602 143 z "},"²":{"ha":507,"x_min":58,"x_max":511,"o":"m 481 556 l 462 452 l 58 452 l 74 546 l 284 718 q 321 751 301 732 q 358 791 342 770 q 378 836 374 812 q 369 878 382 863 q 328 894 355 894 q 269 870 290 894 q 239 812 248 846 l 111 812 q 144 910 115 869 q 220 975 174 952 q 323 997 267 998 q 417 979 374 996 q 486 926 460 962 q 509 836 511 890 q 481 749 507 787 q 417 683 454 712 q 345 627 380 653 l 247 557 l 481 556 z "},"³":{"ha":507,"x_min":68,"x_max":519,"o":"m 241 768 l 290 768 q 334 777 313 770 q 370 799 355 784 q 389 838 385 813 q 374 879 393 866 q 330 892 355 892 q 282 881 304 892 q 251 844 260 869 l 121 844 q 155 931 125 897 q 230 981 184 965 q 324 996 275 997 q 416 981 370 996 q 490 933 461 966 q 519 847 519 901 q 486 766 517 795 q 408 723 454 736 q 320 710 362 710 l 231 711 l 241 768 m 225 682 l 236 738 l 303 737 q 390 726 347 736 q 459 688 432 715 q 486 607 487 660 q 450 512 485 548 q 362 460 414 476 q 260 445 310 444 q 165 465 208 446 q 95 519 121 483 q 68 611 69 556 l 193 610 q 215 564 194 578 q 267 550 236 550 q 329 566 300 549 q 363 618 357 583 q 358 655 367 642 q 332 674 349 669 q 294 681 315 680 l 225 682 z "},"´":{"ha":439,"x_min":131,"x_max":497,"o":"m 131 836 l 292 1042 l 497 1042 l 285 836 l 131 836 z "},"µ":{"ha":817,"x_min":-25,"x_max":770,"o":"m 594 734 l 770 734 l 642 0 l 480 0 l 498 180 l 594 734 m 545 342 l 610 345 q 587 221 604 284 q 539 103 571 157 q 458 16 508 49 q 334 -14 408 -16 q 251 4 291 -14 q 183 54 211 21 q 148 132 155 86 l 158 313 l 251 313 q 249 250 249 282 q 258 191 250 218 q 287 146 266 163 q 345 128 307 129 q 431 143 395 126 q 490 190 467 160 q 526 260 513 220 q 545 342 540 299 m 151 734 l 326 734 l 149 -282 l -25 -282 l 151 734 z "},"¶":{"ha":659,"x_min":87,"x_max":667,"o":"m 496 0 l 358 0 l 420 353 l 374 353 q 217 395 283 355 q 119 504 151 434 q 96 665 87 573 q 155 837 105 765 q 286 949 205 909 q 464 988 366 988 l 667 987 l 496 0 z "},"·":{"ha":394,"x_min":106,"x_max":307,"o":"m 106 475 q 136 547 106 519 q 208 576 165 575 q 277 550 248 576 q 307 482 307 524 q 278 411 307 439 q 206 383 249 383 q 136 408 165 382 q 106 475 106 433 z "},"¸":{"ha":355,"x_min":-33,"x_max":214,"o":"m 13 3 l 142 4 l 129 -37 q 193 -76 171 -47 q 214 -148 214 -105 q 190 -228 213 -197 q 129 -277 166 -260 q 48 -301 92 -294 q -33 -309 5 -309 l -28 -208 q 13 -200 -7 -206 q 49 -181 34 -194 q 68 -144 64 -168 q 57 -109 72 -119 q 21 -96 43 -99 q -17 -92 -1 -94 l 13 3 z "},"¹":{"ha":507,"x_min":155,"x_max":438,"o":"m 438 987 l 351 452 l 223 452 l 290 833 l 155 802 l 174 909 l 422 986 l 438 987 z "},"º":{"ha":616,"x_min":128,"x_max":597,"o":"m 133 708 l 138 760 q 178 884 144 829 q 266 971 212 939 q 393 1002 321 1003 q 507 967 460 1000 q 575 880 553 934 q 592 761 597 826 l 587 708 q 547 584 580 640 q 460 497 514 529 q 334 467 406 466 q 219 502 266 469 q 151 589 173 535 q 133 708 128 643 m 252 761 l 246 706 q 249 641 243 673 q 276 587 255 608 q 336 564 296 565 q 407 584 378 563 q 452 637 435 604 q 474 708 469 671 l 480 762 q 477 827 484 795 q 450 881 471 860 q 391 904 430 903 q 320 885 349 905 q 274 831 291 865 q 252 761 257 798 z "},"»":{"ha":671,"x_min":-1,"x_max":608,"o":"m -1 91 l 209 363 l 351 365 l 352 353 l 127 90 l -1 91 m 102 631 l 208 631 l 357 368 l 357 356 l 218 357 l 102 631 m 251 91 l 460 363 l 603 365 l 604 353 l 378 90 l 251 91 m 354 631 l 460 631 l 608 368 l 608 356 l 469 357 l 354 631 z "},"¼":{"ha":977,"x_min":132,"x_max":886,"o":"m 416 985 l 328 450 l 201 450 l 267 831 l 133 800 l 151 907 l 400 984 l 416 985 m 845 846 l 248 81 l 163 136 l 758 900 l 845 846 m 886 216 l 867 111 l 447 111 l 455 203 l 745 535 l 857 534 l 714 355 l 584 216 l 886 216 m 880 535 l 787 0 l 659 0 l 752 535 l 880 535 z "},"½":{"ha":1034,"x_min":123,"x_max":949,"o":"m 817 846 l 220 81 l 135 136 l 730 900 l 817 846 m 406 987 l 319 453 l 191 453 l 257 833 l 123 803 l 142 909 l 391 987 l 406 987 m 919 104 l 900 0 l 496 0 l 512 94 l 722 266 q 760 299 739 280 q 796 338 780 317 q 817 384 812 359 q 807 426 821 410 q 766 441 793 441 q 707 418 728 441 q 677 360 686 394 l 549 359 q 583 458 553 416 q 659 523 612 500 q 762 545 705 545 q 854 527 811 544 q 924 474 898 509 q 947 383 949 438 q 919 297 945 334 q 855 230 892 260 q 782 175 817 201 l 685 104 l 919 104 z "},"¾":{"ha":1088,"x_min":99,"x_max":983,"o":"m 947 846 l 351 81 l 265 136 l 861 900 l 947 846 m 983 216 l 964 111 l 544 111 l 552 203 l 842 535 l 954 534 l 811 355 l 681 216 l 983 216 m 977 535 l 884 0 l 755 0 l 849 535 l 977 535 m 271 768 l 321 768 q 364 777 343 770 q 400 799 385 784 q 419 838 415 813 q 405 879 424 866 q 361 892 386 892 q 312 881 334 892 q 281 844 291 869 l 151 844 q 185 931 155 897 q 260 981 215 965 q 355 996 305 997 q 446 981 401 996 q 520 933 491 966 q 549 847 550 901 q 516 766 548 795 q 438 723 484 736 q 351 710 393 710 l 260 711 l 271 768 m 256 682 l 266 738 l 334 737 q 420 726 378 736 q 490 688 463 715 q 516 607 517 660 q 479 512 515 548 q 392 460 444 476 q 290 445 340 444 q 195 465 238 446 q 125 519 151 483 q 99 611 99 556 l 223 610 q 245 564 224 578 q 298 550 267 550 q 358 566 330 549 q 393 618 387 583 q 388 655 397 642 q 362 674 379 669 q 324 681 345 680 l 256 682 z "},"¿":{"ha":664,"x_min":-29,"x_max":555,"o":"m 272 444 l 426 444 q 407 345 421 390 q 366 262 393 300 q 298 188 340 224 q 237 134 267 161 q 184 73 206 106 q 157 -3 162 39 q 159 -61 152 -35 q 187 -102 167 -87 q 241 -119 208 -118 q 309 -103 281 -120 q 355 -58 338 -87 q 380 6 373 -29 l 555 7 q 503 -140 547 -79 q 389 -232 458 -201 q 233 -262 319 -263 q 95 -230 155 -260 q 3 -143 35 -200 q -23 -4 -29 -86 q 14 111 -18 60 q 91 203 45 161 q 183 283 136 245 q 228 329 210 305 q 256 381 245 353 q 272 444 267 410 m 490 657 q 462 587 491 614 q 391 559 433 559 q 322 584 351 558 q 292 651 293 609 q 321 721 292 694 q 392 749 350 748 q 461 723 433 749 q 490 657 490 698 z "},"Æ":{"ha":1263,"x_min":-75,"x_max":1288,"o":"m 732 874 l 140 0 l -75 0 l 626 987 l 741 987 l 732 874 m 721 383 l 694 231 l 201 231 l 227 383 l 721 383 m 1182 143 l 1157 0 l 674 0 l 699 143 l 1182 143 m 876 987 l 745 0 l 570 0 l 702 987 l 876 987 m 1164 581 l 1139 437 l 724 437 l 749 581 l 1164 581 m 1288 987 l 1263 844 l 781 844 l 806 987 l 1288 987 z "},"×":{"ha":715,"x_min":18,"x_max":709,"o":"m 111 137 l 18 249 l 616 781 l 709 668 l 111 137 m 520 136 l 94 683 l 208 781 l 634 234 l 520 136 z "},"Ø":{"ha":928,"x_min":12,"x_max":962,"o":"m 962 1029 l 140 -64 l 12 -64 l 836 1029 l 962 1029 m 890 521 l 883 470 q 833 289 869 376 q 736 133 796 201 q 595 24 677 64 q 408 -14 513 -16 q 269 16 328 -12 q 168 91 209 43 q 104 199 127 138 q 74 329 81 260 q 77 468 68 397 l 83 519 q 134 700 97 612 q 231 856 171 787 q 373 964 291 924 q 559 1002 456 1004 q 698 972 639 1000 q 798 898 758 945 q 862 789 839 850 q 892 660 886 728 q 890 521 898 591 m 699 468 l 706 521 q 712 604 711 559 q 707 691 713 648 q 683 769 701 734 q 632 827 665 805 q 549 851 600 849 q 431 824 480 854 q 348 745 381 795 q 295 636 315 696 q 268 520 276 577 l 260 467 q 255 385 256 429 q 260 297 254 340 q 284 218 267 254 q 334 160 302 182 q 418 136 367 138 q 536 163 487 133 q 619 242 586 193 q 671 352 652 292 q 699 468 691 411 z "},"Þ":{"ha":815,"x_min":22,"x_max":792,"o":"m 193 987 l 368 987 l 197 0 l 22 0 l 193 987 m 229 800 l 481 800 q 641 764 569 798 q 752 666 713 730 q 785 506 792 601 q 720 335 777 403 q 578 233 664 267 q 397 199 493 199 l 203 200 l 229 341 l 402 340 q 497 360 453 341 q 572 415 542 378 q 609 505 602 451 q 602 585 616 551 q 555 638 587 619 q 477 659 523 658 l 317 661 l 229 800 z "},"ß":{"ha":840,"x_min":19,"x_max":764,"o":"m 321 748 l 194 0 l 19 0 l 147 749 q 183 876 156 819 q 255 974 211 933 q 357 1037 298 1015 q 488 1057 416 1059 q 616 1027 559 1055 q 703 945 672 998 q 728 818 734 892 q 710 746 725 779 q 676 684 695 714 q 640 624 656 654 q 617 555 624 593 q 625 491 612 522 q 661 432 638 461 q 708 374 684 404 q 748 311 732 344 q 762 239 764 278 q 713 96 758 153 q 598 12 668 39 q 448 -15 528 -16 q 383 -10 416 -14 q 319 3 351 -6 q 260 27 288 12 l 307 168 q 374 137 337 148 q 448 127 411 127 q 512 139 482 127 q 563 175 543 151 q 589 235 584 199 q 581 300 595 270 q 543 358 566 330 q 494 414 519 386 q 454 476 470 443 q 441 549 438 509 q 459 618 444 587 q 494 680 475 650 q 530 741 514 710 q 551 809 547 772 q 547 863 555 839 q 518 902 538 887 q 467 918 498 917 q 388 895 418 920 q 342 829 358 869 q 321 748 327 789 z "},"æ":{"ha":1138,"x_min":8,"x_max":1109,"o":"m 432 123 l 492 484 q 488 543 495 516 q 461 588 481 570 q 405 606 441 605 q 343 597 373 608 q 292 564 313 586 q 264 509 271 542 l 91 521 q 125 626 95 582 q 203 697 156 669 q 307 736 251 724 q 416 748 362 749 q 554 713 496 746 q 641 621 612 680 q 661 480 669 562 l 606 146 l 432 123 m 516 438 l 496 320 l 361 321 q 287 309 325 321 q 222 272 249 297 q 189 205 195 246 q 196 155 184 174 q 232 125 209 135 q 283 116 255 116 q 339 124 309 115 q 398 148 369 132 q 448 185 427 163 q 476 234 469 207 l 549 130 q 470 46 520 78 q 359 -1 419 14 q 243 -14 300 -15 q 122 13 176 -13 q 38 87 68 38 q 12 208 8 137 q 48 321 15 277 q 133 392 81 366 q 243 428 184 418 q 361 439 303 439 l 516 438 m 762 -13 q 628 16 685 -12 q 534 92 570 43 q 482 203 497 140 q 474 339 467 267 l 479 382 q 517 523 488 456 q 593 641 546 589 q 705 721 640 692 q 850 747 770 749 q 972 719 921 745 q 1055 646 1023 692 q 1097 541 1086 600 q 1101 416 1109 482 l 1086 315 l 543 315 l 564 436 l 929 436 l 933 456 q 932 527 939 494 q 904 583 926 561 q 839 607 882 606 q 759 589 793 609 q 702 535 725 569 q 666 461 679 501 q 647 382 652 420 l 642 339 q 642 262 637 299 q 663 195 646 224 q 709 148 679 165 q 784 128 739 130 q 890 144 840 127 q 989 186 941 161 l 1029 67 q 948 19 994 37 q 855 -6 903 1 q 762 -13 807 -14 z "},"ð":{"ha":778,"x_min":41,"x_max":743,"o":"m 252 933 l 316 1072 q 513 984 429 1044 q 650 840 597 924 q 723 653 703 756 q 728 437 743 551 l 720 383 q 679 236 710 307 q 598 107 648 164 q 481 17 549 50 q 330 -14 413 -16 q 207 14 261 -12 q 114 84 152 39 q 59 186 77 128 q 47 311 41 245 q 79 445 54 381 q 149 556 105 508 q 253 632 193 605 q 388 657 313 659 q 513 621 459 655 q 599 529 568 586 q 631 402 630 472 l 568 404 q 557 457 570 435 q 523 493 545 479 q 474 515 501 508 q 421 523 448 522 q 340 507 375 524 q 281 459 305 490 q 242 391 256 429 q 223 311 227 353 q 224 248 220 279 q 243 189 229 216 q 282 145 257 161 q 343 126 307 128 q 426 147 391 125 q 485 207 461 170 q 522 287 508 244 q 542 369 536 330 l 552 439 q 552 606 564 528 q 503 750 540 685 q 402 861 465 814 q 252 933 340 908 m 743 943 l 342 704 l 300 786 l 702 1025 l 743 943 z "},"÷":{"ha":768,"x_min":40,"x_max":739,"o":"m 739 540 l 713 394 l 40 394 l 66 540 l 739 540 m 338 737 q 367 808 338 781 q 439 836 397 835 q 509 811 479 836 q 539 743 538 785 q 510 674 539 701 q 439 646 480 647 q 369 670 398 646 q 338 737 339 695 m 243 186 q 272 257 243 230 q 343 285 301 284 q 414 260 385 286 q 444 193 444 235 q 415 122 444 149 q 343 95 385 96 q 273 119 302 94 q 243 186 243 144 z "},"ø":{"ha":760,"x_min":24,"x_max":729,"o":"m 729 823 l 134 -95 l 24 -95 l 620 823 l 729 823 m 39 354 l 41 369 q 80 515 50 446 q 160 637 111 585 q 277 720 210 690 q 427 748 344 749 q 562 715 505 746 q 654 632 618 684 q 703 514 689 580 q 709 376 717 448 l 708 361 q 668 215 699 283 q 588 94 637 146 q 471 13 538 42 q 322 -14 404 -16 q 188 18 244 -12 q 95 100 131 49 q 46 217 60 151 q 39 354 32 282 m 216 370 l 214 355 q 212 281 211 320 q 225 207 214 241 q 262 151 237 173 q 333 127 288 128 q 417 146 381 125 q 476 202 452 167 q 513 279 499 237 q 533 361 527 321 l 534 375 q 536 449 538 410 q 524 524 535 489 q 486 582 512 559 q 416 607 460 605 q 332 587 367 608 q 273 530 296 566 q 235 452 249 495 q 216 370 222 410 z "},"þ":{"ha":766,"x_min":-41,"x_max":712,"o":"m 366 1042 l 136 -282 l -41 -282 l 189 1042 l 366 1042 m 705 378 l 704 364 q 673 230 696 297 q 610 106 650 162 q 513 17 570 51 q 377 -14 455 -16 q 262 20 308 -12 q 190 105 216 53 q 152 218 163 157 q 144 338 141 279 l 150 384 q 186 511 160 446 q 252 631 212 576 q 349 718 292 685 q 478 748 405 750 q 601 712 553 747 q 674 624 649 678 q 705 505 699 569 q 705 378 712 441 m 528 366 l 530 380 q 533 450 534 412 q 523 524 533 488 q 490 582 513 559 q 422 606 466 604 q 348 592 380 608 q 292 550 315 577 q 253 489 268 524 q 231 418 238 455 l 213 304 q 217 241 211 272 q 238 184 223 210 q 278 144 253 159 q 341 127 304 128 q 421 148 388 125 q 477 206 455 170 q 512 284 499 242 q 528 366 524 326 z "},"đ":{"ha":839,"x_min":33,"x_max":882,"o":"m 463 166 l 614 1042 l 791 1042 l 610 0 l 452 0 l 463 166 m 40 353 l 41 367 q 73 503 50 435 q 136 628 96 572 q 235 718 176 684 q 372 748 293 751 q 487 711 441 746 q 558 622 532 676 q 593 504 583 567 q 600 385 602 441 l 595 345 q 558 219 584 283 q 492 101 533 155 q 395 16 452 47 q 268 -14 339 -16 q 147 22 195 -12 q 74 111 100 56 q 41 228 49 165 q 40 353 33 292 m 218 369 l 216 354 q 213 284 213 322 q 222 211 213 245 q 255 153 231 176 q 321 128 279 130 q 414 152 374 126 q 479 220 454 178 q 513 310 504 262 l 529 417 q 527 482 532 449 q 508 542 522 515 q 469 587 494 570 q 406 605 444 604 q 325 585 358 607 q 269 528 291 564 q 235 450 248 492 q 218 369 222 408 m 882 947 l 861 830 l 408 830 l 429 947 l 882 947 z "},"Ħ":{"ha":964,"x_min":27,"x_max":1022,"o":"m 1022 819 l 1003 707 l 73 707 l 92 819 l 1022 819 m 765 580 l 739 433 l 233 433 l 260 580 l 765 580 m 380 987 l 210 0 l 27 0 l 199 987 l 380 987 m 970 987 l 798 0 l 616 0 l 787 987 l 970 987 z "},"ı":{"ha":360,"x_min":20,"x_max":323,"o":"m 323 734 l 196 0 l 20 0 l 148 734 l 323 734 z "},"ĸ":{"ha":785,"x_min":18,"x_max":808,"o":"m 321 734 l 194 0 l 18 0 l 146 734 l 321 734 m 808 734 l 397 283 l 208 283 l 214 448 l 324 448 l 576 734 l 808 734 m 470 0 l 306 321 l 460 410 l 684 0 l 470 0 z "},"Ł":{"ha":745,"x_min":20,"x_max":672,"o":"m 481 646 l 463 537 l 20 410 l 39 519 l 481 646 m 672 146 l 646 0 l 163 0 l 190 146 l 672 146 m 391 987 l 220 0 l 37 0 l 209 987 l 391 987 z "},"ł":{"ha":401,"x_min":20,"x_max":423,"o":"m 423 647 l 404 538 l 20 410 l 39 520 l 423 647 m 395 1042 l 214 0 l 39 0 l 220 1042 l 395 1042 z "},"Ŋ":{"ha":945,"x_min":19,"x_max":959,"o":"m 190 987 l 372 987 l 201 0 l 19 0 l 190 987 m 233 913 l 366 989 l 745 74 l 611 0 l 233 913 m 777 987 l 959 987 l 785 -29 q 740 -169 775 -108 q 645 -264 705 -230 q 501 -298 585 -299 q 451 -295 476 -298 q 402 -286 427 -291 l 427 -141 q 459 -149 443 -146 q 492 -152 475 -152 q 549 -134 527 -151 q 584 -88 572 -116 q 602 -30 597 -60 l 777 987 z "},"ŋ":{"ha":760,"x_min":5,"x_max":694,"o":"m 279 567 l 181 0 l 5 0 l 133 734 l 295 734 l 279 567 m 210 391 l 186 390 q 216 516 195 452 q 275 633 238 580 q 367 718 313 686 q 496 748 422 749 q 600 721 559 746 q 662 653 640 695 q 689 558 683 610 q 689 452 694 506 l 610 -34 q 565 -172 600 -112 q 473 -266 531 -232 q 332 -298 414 -299 q 283 -295 307 -298 q 235 -286 259 -292 l 258 -144 q 291 -152 274 -149 q 325 -155 308 -155 q 382 -137 359 -155 q 416 -92 404 -119 q 434 -34 429 -64 l 513 452 q 515 506 516 479 q 505 555 514 533 q 477 591 496 577 q 425 606 458 604 q 340 590 377 608 q 278 542 304 572 q 235 472 252 511 q 210 391 218 433 z "},"Œ":{"ha":1299,"x_min":53,"x_max":1324,"o":"m 546 1002 q 645 997 595 1002 q 744 988 694 993 l 728 842 q 635 857 682 851 q 541 863 588 863 q 435 843 481 863 q 356 786 389 822 q 301 701 322 749 q 271 598 280 653 l 239 390 q 237 297 233 342 q 258 214 241 252 q 311 154 276 177 q 401 130 346 131 q 499 133 450 127 q 597 146 549 138 l 583 -1 q 489 -9 536 -6 q 394 -12 441 -13 q 243 21 309 -11 q 133 109 177 53 q 71 236 90 164 q 64 391 53 308 l 96 597 q 146 758 109 684 q 243 887 184 832 q 379 972 302 942 q 546 1002 456 1002 m 1181 146 l 1156 0 l 645 0 l 671 146 l 1181 146 m 873 987 l 701 0 l 519 0 l 690 987 l 873 987 m 1190 580 l 1164 437 l 721 437 l 746 580 l 1190 580 m 1324 987 l 1299 840 l 790 840 l 817 987 l 1324 987 z "},"œ":{"ha":1219,"x_min":41,"x_max":1178,"o":"m 826 -13 q 694 18 750 -12 q 603 97 638 47 q 553 211 568 147 q 545 345 538 275 l 547 374 q 584 514 555 446 q 660 635 612 582 q 772 720 708 689 q 916 748 836 750 q 1038 720 986 746 q 1122 648 1090 693 q 1166 544 1154 603 q 1170 418 1178 484 l 1154 315 l 615 315 l 636 439 l 998 438 l 1002 458 q 1001 529 1008 496 q 970 584 994 563 q 903 607 946 606 q 825 587 858 609 q 771 528 793 564 q 737 451 749 492 q 720 374 725 410 l 717 346 q 716 272 713 309 q 734 202 720 234 q 776 150 749 170 q 848 129 804 130 q 957 143 905 127 q 1057 186 1008 159 l 1099 71 q 970 5 1044 24 q 826 -13 896 -14 m 48 355 l 50 369 q 89 515 59 446 q 168 637 119 584 q 284 720 217 690 q 433 747 351 749 q 569 715 512 746 q 660 632 625 684 q 708 514 695 580 q 714 376 722 448 l 713 361 q 673 215 703 283 q 593 95 643 147 q 477 13 544 42 q 330 -14 411 -16 q 195 18 251 -12 q 103 100 138 49 q 55 217 68 152 q 48 355 41 283 m 227 369 l 224 355 q 222 281 221 319 q 234 208 223 242 q 270 150 245 173 q 340 126 296 127 q 424 146 389 125 q 482 202 458 167 q 519 279 505 237 q 537 361 532 321 l 539 375 q 542 449 543 410 q 529 524 541 489 q 493 582 518 559 q 422 607 467 605 q 339 587 374 608 q 281 530 304 566 q 244 452 258 494 q 227 369 231 410 z "},"ſ":{"ha":345,"x_min":12,"x_max":543,"o":"m 187 0 l 12 0 l 149 802 q 196 938 159 880 q 293 1027 233 996 q 435 1058 354 1059 q 489 1054 462 1058 q 543 1044 516 1049 l 517 908 q 485 915 500 912 q 453 917 469 917 q 391 902 417 917 q 348 862 364 888 q 325 802 331 836 l 187 0 z "},"Ə":{"ha":936,"x_min":49,"x_max":904,"o":"m 401 -14 q 231 24 302 -13 q 119 125 161 62 q 63 271 77 189 q 61 446 49 353 l 77 549 l 766 549 l 740 402 l 239 403 l 233 379 q 232 287 224 330 q 261 212 239 244 q 321 162 283 180 q 413 142 359 144 q 525 167 476 141 q 609 238 574 193 q 666 337 644 283 q 696 447 688 392 l 710 538 q 712 654 719 600 q 680 750 705 708 q 610 817 655 792 q 496 843 564 842 q 363 831 429 844 q 235 795 298 819 l 216 944 q 308 981 256 969 q 413 998 359 994 q 513 1001 467 1002 q 691 964 614 1000 q 817 866 768 928 q 885 719 865 803 q 891 538 904 635 l 878 447 q 826 273 865 357 q 725 124 787 190 q 581 22 663 59 q 401 -14 499 -16 z "},"ƒ":{"ha":479,"x_min":-129,"x_max":578,"o":"m 490 734 l 470 605 l 333 605 l 234 -41 q 193 -175 225 -117 q 104 -266 160 -233 q -32 -298 48 -299 q -80 -294 -56 -298 q -129 -286 -104 -291 l -105 -147 q -76 -154 -91 -151 q -44 -157 -60 -157 q 11 -141 -10 -158 q 43 -97 32 -124 q 58 -41 54 -71 l 157 605 l 50 605 l 70 734 l 177 734 l 186 802 q 232 939 195 881 q 329 1027 269 996 q 470 1057 389 1058 q 525 1053 498 1057 q 578 1042 552 1048 l 551 907 q 518 913 534 911 q 486 915 502 915 q 424 901 450 915 q 384 861 399 886 q 362 802 368 836 l 353 734 l 490 734 z "},"Ơ":{"ha":942,"x_min":60,"x_max":1068,"o":"m 951 1067 l 1068 1068 q 1029 914 1061 979 q 937 812 998 848 q 785 772 877 775 l 793 875 q 881 904 849 876 q 928 975 913 932 q 951 1067 943 1019 m 882 521 l 874 471 q 825 289 861 376 q 728 133 788 201 q 586 24 669 64 q 400 -14 504 -16 q 260 16 320 -12 q 160 91 201 43 q 96 199 119 138 q 66 329 73 260 q 68 468 60 398 l 75 519 q 126 700 89 612 q 223 856 163 787 q 365 964 283 924 q 551 1001 448 1003 q 690 972 630 1000 q 791 898 750 945 q 854 790 831 850 q 884 660 877 729 q 882 521 890 591 m 690 468 l 698 521 q 704 604 703 559 q 699 691 705 648 q 674 769 692 734 q 624 827 656 805 q 541 851 592 849 q 422 824 472 854 q 340 744 373 794 q 287 635 307 694 q 259 519 267 576 l 252 467 q 246 384 248 429 q 252 297 245 340 q 276 218 258 254 q 326 160 294 182 q 410 136 359 137 q 528 163 479 133 q 611 242 578 193 q 664 352 644 292 q 690 468 683 411 z "},"ơ":{"ha":780,"x_min":31,"x_max":856,"o":"m 749 806 l 856 807 q 820 668 850 725 q 733 582 789 612 q 593 550 677 552 l 600 632 q 683 657 653 633 q 728 721 713 682 q 749 806 743 760 m 39 355 l 40 369 q 80 515 50 446 q 159 637 110 585 q 276 720 209 690 q 426 747 343 749 q 561 715 505 746 q 653 632 618 684 q 702 514 688 580 q 709 376 716 448 l 707 361 q 667 215 698 283 q 587 94 637 146 q 470 13 537 42 q 321 -14 404 -16 q 187 18 243 -12 q 95 100 130 49 q 45 217 59 151 q 39 355 31 282 m 216 369 l 214 355 q 212 280 210 319 q 224 207 213 241 q 262 151 236 173 q 332 127 288 128 q 416 146 380 125 q 475 202 451 167 q 512 279 498 237 q 532 361 526 321 l 533 375 q 536 449 537 410 q 523 524 534 489 q 486 582 511 559 q 415 607 460 605 q 331 587 366 608 q 272 530 296 566 q 235 452 248 494 q 216 369 221 410 z "},"Ư":{"ha":954,"x_min":57,"x_max":1160,"o":"m 1044 1042 l 1160 1044 q 1116 873 1152 942 q 1011 770 1080 805 q 840 732 943 734 l 849 835 q 957 862 918 836 q 1017 934 997 888 q 1044 1042 1036 981 m 725 987 l 907 987 l 795 332 q 723 145 779 224 q 580 25 667 67 q 383 -14 492 -16 q 206 31 281 -12 q 94 150 131 73 q 69 332 57 227 l 181 987 l 363 987 l 252 331 q 256 232 245 277 q 301 161 268 188 q 394 132 335 134 q 503 155 457 130 q 576 226 549 180 q 613 332 604 272 l 725 987 z "},"ư":{"ha":821,"x_min":45,"x_max":933,"o":"m 828 797 l 933 798 q 894 655 927 709 q 801 575 861 601 q 653 549 741 550 l 661 637 q 752 655 719 638 q 803 708 786 673 q 828 797 821 743 m 463 183 l 558 734 l 734 734 l 607 0 l 442 0 l 463 183 m 507 326 l 561 328 q 532 200 553 262 q 474 89 511 138 q 382 12 437 40 q 252 -15 327 -16 q 150 9 191 -14 q 85 69 109 31 q 53 156 62 107 q 51 260 45 205 l 130 734 l 305 734 l 225 257 q 225 210 222 233 q 236 170 227 188 q 263 141 245 151 q 309 129 281 130 q 411 153 370 126 q 476 225 452 180 q 507 326 499 271 z "},"ȷ":{"ha":370,"x_min":-172,"x_max":334,"o":"m 159 734 l 334 734 l 203 -33 q 159 -171 193 -111 q 66 -265 125 -231 q -75 -298 7 -299 q -124 -294 -100 -298 q -172 -286 -149 -291 l -148 -147 q -116 -155 -132 -152 q -83 -157 -100 -157 q -25 -139 -48 -157 q 10 -93 -3 -121 q 27 -34 22 -64 l 159 734 z "},"ə":{"ha":712,"x_min":32,"x_max":673,"o":"m 385 747 q 516 716 460 746 q 608 637 572 687 q 658 523 643 587 q 666 389 673 459 l 663 361 q 626 220 654 288 q 550 99 597 152 q 438 15 503 45 q 295 -13 374 -15 q 172 15 224 -12 q 88 86 120 41 q 44 191 56 132 q 40 317 32 250 l 56 419 l 595 419 l 574 295 l 212 296 l 208 277 q 210 205 202 239 q 240 150 217 172 q 306 127 264 128 q 384 148 351 125 q 438 206 417 170 q 472 283 460 242 q 490 361 485 324 l 493 389 q 493 463 496 425 q 475 532 490 500 q 433 584 461 564 q 362 606 406 604 q 254 591 305 608 q 153 548 202 575 l 112 663 q 240 730 165 711 q 385 747 314 749 z "},"ˆ":{"ha":659,"x_min":165,"x_max":646,"o":"m 477 1042 l 646 856 l 646 844 l 510 846 l 427 948 l 307 846 l 165 844 l 165 857 l 377 1042 l 477 1042 z "},"ˇ":{"ha":625,"x_min":171,"x_max":666,"o":"m 316 1042 l 395 940 l 511 1041 l 665 1044 l 666 1032 l 450 846 l 338 846 l 172 1033 l 171 1044 l 316 1042 z "},"ˉ":{"ha":668,"x_min":180,"x_max":648,"o":"m 648 985 l 631 878 l 180 878 l 197 985 l 648 985 z "},"˘":{"ha":594,"x_min":168,"x_max":609,"o":"m 483 1029 l 609 1030 q 572 922 605 966 q 488 855 540 878 q 375 834 437 833 q 227 887 286 836 q 168 1030 168 938 l 295 1029 q 312 962 294 988 q 376 935 331 936 q 448 961 420 935 q 483 1029 475 987 z "},"˙":{"ha":350,"x_min":172,"x_max":356,"o":"m 172 928 q 198 993 172 968 q 262 1019 224 1018 q 328 996 300 1019 q 355 934 355 972 q 330 870 356 895 q 264 845 303 846 q 200 867 227 844 q 172 928 172 890 z "},"˚":{"ha":448,"x_min":167,"x_max":456,"o":"m 168 909 q 188 984 167 951 q 243 1036 209 1017 q 318 1055 278 1055 q 415 1016 374 1055 q 456 920 456 977 q 435 846 456 879 q 380 796 414 814 q 306 778 346 778 q 209 815 250 778 q 168 909 168 852 m 240 911 q 252 862 237 882 q 297 841 268 841 q 354 864 330 841 q 383 919 379 887 q 372 969 387 947 q 326 991 356 991 q 269 966 294 991 q 240 911 245 942 z "},"˛":{"ha":396,"x_min":-61,"x_max":199,"o":"m 107 41 l 199 -1 q 149 -36 176 -17 q 101 -78 121 -54 q 77 -134 80 -102 q 82 -162 74 -152 q 109 -174 90 -173 q 138 -170 123 -174 q 165 -159 152 -165 l 177 -260 q 127 -281 153 -275 q 73 -288 100 -288 q -24 -252 14 -288 q -60 -155 -61 -216 q -35 -69 -60 -106 q 29 -5 -9 -32 q 107 41 67 22 z "},"˜":{"ha":643,"x_min":149,"x_max":660,"o":"m 557 1036 l 660 1029 q 638 944 656 985 q 585 877 619 903 q 501 852 551 851 q 454 862 475 852 q 411 884 432 871 q 370 907 391 897 q 324 915 349 916 q 278 893 294 914 q 255 846 262 873 l 149 852 q 171 937 152 896 q 225 1005 191 979 q 309 1030 259 1031 q 355 1020 334 1029 q 397 998 376 1010 q 439 976 418 985 q 486 967 460 966 q 532 989 516 968 q 557 1036 549 1009 z "},"˝":{"ha":544,"x_min":113,"x_max":693,"o":"m 333 837 l 518 1041 l 693 1041 l 481 837 l 333 837 m 113 837 l 269 1041 l 440 1041 l 254 837 l 113 837 z "},"˳":{"ha":419,"x_min":-5,"x_max":236,"o":"m -4 -163 q 32 -77 -5 -111 q 119 -42 68 -42 q 201 -74 166 -42 q 236 -155 235 -106 q 200 -238 236 -205 q 115 -272 164 -272 q 32 -242 68 -273 q -4 -163 -4 -212 m 66 -162 q 74 -195 63 -180 q 105 -210 85 -210 q 144 -193 126 -210 q 165 -155 162 -176 q 159 -121 168 -137 q 129 -104 149 -105 q 88 -122 106 -104 q 66 -162 69 -140 z "},"̀":{"ha":0,"x_min":-468,"x_max":-190,"o":"m -285 1042 l -190 836 l -323 836 l -468 1041 l -285 1042 z "},"́":{"ha":0,"x_min":-376,"x_max":-5,"o":"m -376 836 l -211 1042 l -5 1041 l -221 836 l -376 836 z "},"̃":{"ha":0,"x_min":-532,"x_max":-21,"o":"m -124 1036 l -21 1029 q -43 944 -24 985 q -96 877 -62 903 q -180 852 -130 851 q -227 862 -205 852 q -270 884 -249 871 q -311 907 -290 897 q -357 915 -332 916 q -403 893 -387 914 q -426 846 -418 873 l -532 852 q -510 937 -529 896 q -456 1005 -490 979 q -372 1030 -422 1031 q -326 1020 -347 1029 q -284 998 -304 1010 q -242 976 -263 985 q -195 967 -220 966 q -149 989 -165 968 q -124 1036 -132 1009 z "},"̉":{"ha":0,"x_min":-385,"x_max":-131,"o":"m -248 853 l -385 854 l -381 949 q -340 953 -363 950 q -299 966 -317 956 q -277 999 -280 977 q -283 1025 -274 1016 q -307 1037 -292 1034 q -338 1042 -322 1041 q -365 1043 -354 1042 l -354 1128 q -286 1123 -324 1128 q -213 1106 -248 1118 q -154 1068 -177 1093 q -131 1003 -131 1044 q -166 930 -132 954 q -242 899 -199 907 l -248 853 z "},"̏":{"ha":0,"x_min":-576,"x_max":-42,"o":"m -254 849 l -414 849 l -576 1029 l -386 1029 l -254 849 m -42 849 l -196 849 l -326 1029 l -141 1029 l -42 849 z "},"̣":{"ha":0,"x_min":-593,"x_max":-393,"o":"m -591 -164 q -563 -98 -593 -123 q -493 -73 -532 -74 q -425 -95 -455 -73 q -394 -159 -394 -118 q -424 -224 -393 -200 q -492 -248 -454 -248 q -561 -227 -530 -249 q -591 -164 -591 -204 z "},"΄":{"ha":433,"x_min":216,"x_max":469,"o":"m 216 854 l 302 1086 l 469 1086 l 326 854 l 216 854 z "},"΅":{"ha":726,"x_min":161,"x_max":731,"o":"m 396 961 l 461 1173 l 627 1173 l 497 961 l 396 961 m 161 925 q 186 985 161 962 q 247 1010 211 1009 q 307 988 281 1010 q 334 930 334 966 q 309 870 335 894 q 249 846 283 847 q 188 868 214 846 q 161 925 161 890 m 557 924 q 582 985 557 961 q 643 1009 607 1008 q 704 988 677 1010 q 730 930 730 966 q 706 870 731 893 q 645 846 680 846 q 584 867 610 845 q 557 924 557 889 z "},"·":{"ha":401,"x_min":106,"x_max":307,"o":"m 106 475 q 136 547 106 519 q 208 576 165 575 q 277 550 248 576 q 307 482 307 524 q 278 411 307 439 q 206 383 249 383 q 136 408 165 382 q 106 475 106 433 z "},"Γ":{"ha":751,"x_min":22,"x_max":813,"o":"m 813 987 l 788 840 l 350 840 l 204 0 l 22 0 l 193 987 l 813 987 z "},"Δ":{"ha":978,"x_min":-59,"x_max":892,"o":"m 627 892 l 139 0 l -59 0 l 498 987 l 601 987 l 627 892 m 708 0 l 532 916 l 580 987 l 684 987 l 892 0 l 708 0 m 754 146 l 728 0 l 90 0 l 115 146 l 754 146 z "},"∆":{"ha":978,"x_min":-59,"x_max":892,"o":"m 627 892 l 139 0 l -59 0 l 498 987 l 601 987 l 627 892 m 708 0 l 532 916 l 580 987 l 684 987 l 892 0 l 708 0 m 754 146 l 728 0 l 90 0 l 115 146 l 754 146 z "},"Θ":{"ha":924,"x_min":60,"x_max":891,"o":"m 629 563 l 604 422 l 332 422 l 357 563 l 629 563 m 882 521 l 875 471 q 825 288 862 376 q 729 132 789 201 q 587 24 669 64 q 401 -14 505 -16 q 260 16 320 -12 q 160 91 201 43 q 96 199 119 138 q 67 329 73 260 q 69 468 60 398 l 75 519 q 126 700 89 612 q 223 856 163 787 q 366 964 283 924 q 551 1002 448 1003 q 690 972 631 1000 q 791 898 750 945 q 854 789 831 850 q 884 660 878 728 q 882 521 891 591 m 691 468 l 698 521 q 704 604 703 559 q 699 691 705 648 q 675 769 692 734 q 625 827 657 805 q 541 851 593 849 q 423 824 473 854 q 340 745 374 795 q 288 636 307 695 q 260 520 268 577 l 253 467 q 247 385 248 429 q 252 297 245 340 q 277 218 259 254 q 327 160 294 182 q 410 136 359 137 q 528 163 479 133 q 611 242 578 193 q 664 352 645 292 q 691 468 683 411 z "},"Λ":{"ha":874,"x_min":-58,"x_max":783,"o":"m 530 807 l 144 0 l -58 0 l 440 987 l 575 987 l 530 807 m 592 0 l 483 828 l 500 987 l 627 987 l 783 0 l 592 0 z "},"Ξ":{"ha":764,"x_min":-5,"x_max":783,"o":"m -5 0 l 21 146 l 663 146 l 637 0 l -5 0 m 142 431 l 167 573 l 663 573 l 638 431 l 142 431 m 153 840 l 180 987 l 783 987 l 757 840 l 153 840 z "},"Π":{"ha":955,"x_min":22,"x_max":962,"o":"m 962 987 l 791 0 l 609 0 l 754 840 l 350 840 l 204 0 l 22 0 l 193 987 l 962 987 z "},"Σ":{"ha":764,"x_min":-24,"x_max":807,"o":"m 681 146 l 655 0 l 45 0 l 71 146 l 681 146 m 807 987 l 781 840 l 201 840 l 227 987 l 807 987 m 551 505 l 550 492 l 120 0 l -24 0 l -5 108 l 360 507 l 132 896 l 148 987 l 279 987 l 551 505 z "},"Φ":{"ha":1023,"x_min":56,"x_max":1003,"o":"m 547 114 l 403 115 q 256 143 322 117 q 145 218 191 170 q 78 334 100 267 q 64 482 56 401 q 138 688 76 601 q 298 823 201 775 q 512 871 396 871 l 658 869 q 805 840 739 868 q 916 762 871 812 q 982 644 961 711 q 995 494 1003 576 q 920 291 983 376 q 759 160 857 205 q 547 114 661 114 m 410 271 l 556 269 q 682 296 627 269 q 772 374 737 323 q 817 494 807 425 q 815 579 822 540 q 789 648 809 618 q 735 695 768 677 q 652 713 701 712 l 505 715 q 377 687 433 715 q 286 606 321 658 q 243 482 252 553 q 244 398 237 436 q 273 332 252 360 q 328 289 294 304 q 410 271 362 273 m 708 987 l 536 0 l 355 0 l 526 987 l 708 987 z "},"Ψ":{"ha":970,"x_min":76,"x_max":1028,"o":"m 845 987 l 1028 987 l 973 662 q 891 446 954 537 q 728 306 827 355 q 503 257 629 256 l 429 258 q 272 290 341 260 q 158 374 203 320 q 95 500 113 427 q 86 661 76 574 l 141 987 l 323 987 l 269 661 q 268 566 262 611 q 293 485 273 521 q 350 429 313 450 q 442 405 387 408 l 515 404 q 652 435 595 402 q 744 527 709 469 q 790 661 778 586 l 845 987 m 677 987 l 506 0 l 324 0 l 496 987 l 677 987 z "},"Ω":{"ha":903,"x_min":7,"x_max":861,"o":"m 642 517 l 651 583 q 656 667 656 621 q 644 755 656 713 q 604 824 633 796 q 524 854 576 852 q 429 831 469 856 q 362 765 389 806 q 320 675 336 724 q 298 581 305 627 l 290 516 q 279 424 284 477 q 278 314 274 370 q 301 215 281 259 q 366 152 321 171 l 357 54 q 226 117 281 70 q 138 231 172 164 q 93 371 105 297 q 90 517 81 446 l 98 580 q 146 741 111 665 q 237 877 181 818 q 369 969 294 936 q 536 1000 444 1002 q 686 963 623 999 q 790 868 750 928 q 846 734 830 809 q 852 580 861 660 l 843 517 q 797 358 831 436 q 708 216 762 281 q 584 107 654 151 q 428 52 513 64 l 437 151 q 526 213 490 173 q 585 303 562 253 q 622 409 608 354 q 642 517 635 464 m 413 0 l 439 148 l 769 148 l 743 0 l 413 0 m 7 0 l 33 148 l 368 148 l 342 0 l 7 0 z "},"Ω":{"ha":903,"x_min":7,"x_max":861,"o":"m 642 517 l 651 583 q 656 667 656 621 q 644 755 656 713 q 604 824 633 796 q 524 854 576 852 q 429 831 469 856 q 362 765 389 806 q 320 675 336 724 q 298 581 305 627 l 290 516 q 279 424 284 477 q 278 314 274 370 q 301 215 281 259 q 366 152 321 171 l 357 54 q 226 117 281 70 q 138 231 172 164 q 93 371 105 297 q 90 517 81 446 l 98 580 q 146 741 111 665 q 237 877 181 818 q 369 969 294 936 q 536 1000 444 1002 q 686 963 623 999 q 790 868 750 928 q 846 734 830 809 q 852 580 861 660 l 843 517 q 797 358 831 436 q 708 216 762 281 q 584 107 654 151 q 428 52 513 64 l 437 151 q 526 213 490 173 q 585 303 562 253 q 622 409 608 354 q 642 517 635 464 m 413 0 l 439 148 l 769 148 l 743 0 l 413 0 m 7 0 l 33 148 l 368 148 l 342 0 l 7 0 z "},"α":{"ha":760,"x_min":36,"x_max":732,"o":"m 43 340 l 44 355 q 75 493 53 422 q 137 622 98 563 q 236 715 177 680 q 375 747 295 750 q 467 721 429 745 q 528 657 505 696 q 564 569 552 617 q 580 471 576 521 q 581 379 584 422 l 578 342 q 545 221 568 284 q 484 103 522 157 q 394 16 447 49 q 271 -15 342 -16 q 151 19 199 -13 q 78 103 104 52 q 44 217 52 155 q 43 340 36 279 m 221 355 l 220 341 q 216 272 216 309 q 226 203 216 236 q 259 149 236 170 q 325 126 282 128 q 400 143 368 125 q 458 192 433 161 q 498 260 483 222 q 522 334 514 297 l 528 382 q 527 452 530 414 q 512 525 524 490 q 474 583 499 559 q 409 606 450 606 q 326 585 360 608 q 271 522 292 561 q 237 438 249 483 q 221 355 225 394 m 578 734 l 732 734 l 646 225 q 643 201 644 216 q 642 171 641 186 q 649 146 643 157 q 671 134 656 136 q 680 135 675 134 q 688 136 684 136 l 692 3 q 654 -10 673 -6 q 614 -13 635 -14 q 544 7 573 -12 q 497 55 515 25 q 473 121 480 85 q 467 195 465 157 l 530 587 l 578 734 z "},"β":{"ha":808,"x_min":-21,"x_max":774,"o":"m 385 549 l 466 548 q 607 516 545 545 q 703 429 669 486 q 732 288 737 372 q 681 128 725 197 q 565 21 637 59 q 401 -14 493 -16 q 291 7 341 -13 q 203 63 240 27 q 148 149 167 100 q 132 260 129 199 l 199 273 q 221 192 196 224 q 287 143 246 159 q 372 127 328 127 q 461 147 421 127 q 527 204 501 168 q 559 289 553 241 q 555 367 565 332 q 519 425 545 402 q 447 450 492 448 l 371 450 l 385 549 m 499 1002 q 641 969 578 1000 q 739 881 704 939 q 769 739 774 823 q 716 602 764 657 q 599 517 669 546 q 453 488 528 488 l 374 488 l 388 581 l 429 581 q 509 600 475 581 q 564 652 543 618 q 589 731 585 686 q 583 795 593 766 q 548 842 572 824 q 488 861 524 860 q 409 842 444 863 q 351 785 374 821 q 322 709 329 749 l 154 -271 l -21 -271 l 146 708 q 209 863 159 796 q 335 966 260 929 q 499 1002 411 1003 z "},"γ":{"ha":684,"x_min":75,"x_max":732,"o":"m 372 68 l 311 -283 l 136 -283 l 197 68 l 372 68 m 296 186 l 544 734 l 732 734 l 358 0 l 235 0 l 296 186 m 252 734 l 317 164 l 309 0 l 195 0 l 75 734 l 252 734 z "},"δ":{"ha":760,"x_min":32,"x_max":719,"o":"m 208 846 q 255 973 212 924 q 363 1044 298 1022 q 497 1066 428 1067 q 587 1056 543 1066 q 673 1033 630 1046 l 660 895 q 585 920 623 909 q 505 930 546 930 q 451 922 479 930 q 402 898 423 915 q 374 851 381 880 q 378 815 370 831 q 400 788 386 800 q 432 768 415 777 q 464 753 449 759 q 606 662 547 716 q 691 535 664 608 q 709 369 719 463 l 708 354 q 668 211 699 277 q 587 93 637 144 q 471 13 538 41 q 324 -14 404 -16 q 191 17 248 -12 q 98 95 134 45 q 47 208 62 144 q 38 344 32 272 l 39 358 q 82 497 47 433 q 173 606 117 562 q 305 664 229 650 l 304 673 q 251 719 273 692 q 217 777 229 745 q 208 846 206 809 m 218 368 l 216 354 q 214 281 212 319 q 228 207 216 242 q 265 150 239 172 q 335 126 290 127 q 417 145 382 124 q 476 202 452 167 q 514 279 500 237 q 534 361 528 321 l 535 374 q 535 443 539 407 q 517 512 530 479 q 479 568 503 545 q 418 601 455 592 q 336 583 372 604 q 276 526 301 562 q 237 449 252 491 q 218 368 222 408 z "},"ε":{"ha":745,"x_min":26,"x_max":708,"o":"m 334 399 l 503 399 l 488 315 l 372 315 q 301 306 337 315 q 239 276 265 298 q 207 212 212 254 q 213 169 203 187 q 241 140 223 151 q 282 124 260 130 q 325 119 304 119 q 392 127 358 118 q 451 159 426 137 q 484 217 476 181 l 661 218 q 624 110 655 154 q 545 37 593 65 q 440 -3 496 9 q 327 -14 383 -15 q 225 -1 278 -13 q 127 35 172 10 q 54 101 81 60 q 28 202 26 142 q 60 300 31 262 q 135 360 90 338 q 233 391 180 382 q 334 399 285 399 m 494 350 l 347 351 q 264 362 308 352 q 183 392 221 372 q 122 446 145 413 q 100 528 98 479 q 133 634 101 592 q 216 702 165 677 q 323 737 266 727 q 433 747 381 747 q 533 732 485 745 q 622 691 582 718 q 685 623 661 664 q 708 524 708 581 l 535 525 q 518 576 535 557 q 475 604 502 595 q 419 612 448 612 q 356 603 389 612 q 299 573 323 594 q 270 517 275 552 q 274 478 266 494 q 299 454 283 463 q 335 441 315 445 q 374 436 355 437 l 509 435 l 494 350 z "},"ζ":{"ha":677,"x_min":58,"x_max":736,"o":"m 625 987 l 736 987 l 717 878 l 437 593 q 351 500 392 548 q 281 397 310 452 q 242 275 252 342 q 241 230 239 250 q 251 194 243 210 q 276 166 260 178 q 315 145 292 154 l 370 126 q 450 94 412 111 q 513 47 489 77 q 534 -36 536 17 q 504 -127 531 -84 q 438 -204 477 -170 q 363 -264 400 -239 l 275 -189 q 308 -155 291 -173 q 337 -115 325 -136 q 355 -70 350 -94 q 350 -39 358 -51 q 328 -20 342 -28 q 298 -8 314 -13 l 252 7 q 169 42 205 21 q 107 94 132 64 q 70 163 81 123 q 63 253 58 203 q 107 408 71 335 q 196 546 143 481 q 303 667 248 610 l 625 987 m 153 987 l 662 987 l 637 847 l 128 847 l 153 987 z "},"η":{"ha":760,"x_min":5,"x_max":697,"o":"m 279 567 l 181 0 l 5 0 l 133 734 l 295 734 l 279 567 m 216 391 l 176 389 q 206 519 183 454 q 268 635 229 583 q 365 719 308 688 q 496 748 421 749 q 598 724 557 747 q 661 662 638 701 q 690 574 683 624 q 691 469 697 525 l 564 -282 l 389 -282 l 516 470 q 517 522 519 498 q 505 565 515 546 q 476 594 495 583 q 425 607 456 606 q 342 591 378 609 q 280 542 306 573 q 239 471 255 511 q 216 391 224 432 z "},"θ":{"ha":789,"x_min":73,"x_max":748,"o":"m 485 1001 q 604 974 555 1000 q 684 904 653 947 q 729 806 715 861 q 746 691 744 751 q 741 572 748 631 l 718 418 q 689 292 708 355 q 641 173 671 229 q 568 75 611 117 q 468 8 526 32 q 336 -14 410 -15 q 216 14 265 -12 q 136 84 167 41 q 91 183 106 128 q 74 299 76 239 q 80 418 73 359 l 103 572 q 131 698 113 635 q 180 817 150 761 q 253 914 210 872 q 353 980 296 956 q 485 1001 411 1003 m 474 861 q 388 838 422 863 q 332 771 353 812 q 299 684 311 730 q 281 598 288 637 l 277 564 l 565 564 l 570 599 q 576 658 573 625 q 577 726 578 691 q 565 791 575 761 q 533 840 555 821 q 474 861 511 859 m 347 127 q 419 141 389 125 q 470 188 449 158 q 505 253 491 217 q 527 326 519 289 q 539 394 535 363 l 545 427 l 256 427 l 251 393 q 245 335 248 368 q 244 266 242 301 q 256 199 246 230 q 288 149 266 168 q 347 127 310 129 z "},"ι":{"ha":449,"x_min":60,"x_max":353,"o":"m 155 734 l 330 734 l 242 216 q 242 176 239 193 q 258 149 245 159 q 296 138 271 139 q 325 140 310 138 q 353 143 339 142 l 342 8 q 289 -4 316 0 q 235 -7 262 -7 q 133 21 172 -6 q 77 96 94 49 q 66 203 60 143 l 155 734 z "},"λ":{"ha":741,"x_min":-65,"x_max":676,"o":"m 375 485 l 131 0 l -65 0 l 333 751 l 458 747 l 375 485 m 283 1042 q 339 1034 313 1042 q 386 1012 365 1027 q 421 975 406 997 q 445 924 437 954 l 598 202 q 607 172 602 186 q 623 146 613 157 q 651 134 633 136 q 664 134 657 134 q 676 134 670 134 l 665 -7 q 633 -11 649 -9 q 602 -11 618 -12 q 521 8 555 -10 q 465 58 487 26 q 432 136 443 91 l 333 665 l 291 838 q 277 869 286 856 q 255 890 269 883 q 221 899 241 898 q 201 899 211 900 q 181 899 191 899 l 190 1031 q 236 1039 212 1036 q 283 1042 260 1042 z "},"ξ":{"ha":704,"x_min":45,"x_max":723,"o":"m 723 970 l 684 832 q 636 845 660 840 q 587 855 612 851 q 538 859 563 859 q 461 849 500 859 q 392 814 421 839 q 356 747 363 790 q 361 694 351 715 q 392 661 372 673 q 439 644 413 649 q 491 638 465 639 l 599 637 l 581 535 l 491 536 q 388 546 442 536 q 286 578 334 555 q 209 642 238 602 q 184 743 180 682 q 218 861 187 812 q 298 942 248 910 q 407 988 347 973 q 527 1002 467 1003 q 594 998 562 1002 q 659 987 627 994 q 723 970 691 979 m 484 592 l 591 591 l 573 492 l 489 493 q 369 474 426 493 q 274 413 313 455 q 227 302 235 371 q 236 224 221 257 q 283 170 252 192 q 354 137 314 149 l 416 120 q 497 90 458 108 q 560 42 536 73 q 581 -41 584 11 q 551 -131 578 -88 q 485 -208 524 -173 q 410 -267 447 -243 l 320 -194 q 354 -158 336 -177 q 385 -118 372 -139 q 403 -73 399 -97 q 397 -43 406 -54 q 374 -25 389 -32 q 347 -12 360 -18 l 308 0 q 200 43 250 19 q 115 100 151 66 q 63 182 80 134 q 50 299 45 231 q 97 439 56 382 q 201 529 138 496 q 338 577 264 562 q 484 592 412 592 z "},"π":{"ha":855,"x_min":66,"x_max":868,"o":"m 868 734 l 844 599 l 66 599 l 90 734 l 868 734 m 381 734 l 254 0 l 78 0 l 205 734 l 381 734 m 581 734 l 756 734 l 668 216 q 668 176 665 193 q 684 149 671 159 q 722 138 696 139 q 750 140 736 138 q 779 144 765 142 l 768 8 q 715 -4 742 0 q 662 -7 688 -7 q 559 21 598 -6 q 503 96 519 48 q 492 203 487 143 l 581 734 z "},"ρ":{"ha":760,"x_min":-41,"x_max":709,"o":"m -41 -282 l 75 392 q 114 530 85 465 q 191 645 144 595 q 301 722 237 694 q 443 747 364 749 q 577 712 524 746 q 660 622 630 677 q 700 498 690 566 q 702 361 709 431 l 701 347 q 669 216 692 281 q 606 98 646 151 q 510 15 567 45 q 376 -14 453 -16 q 262 20 307 -12 q 193 105 218 53 q 159 217 169 157 q 147 335 149 277 q 166 322 157 328 q 186 311 176 316 q 206 300 196 305 q 219 216 207 255 q 259 153 231 177 q 339 126 288 128 q 418 145 385 125 q 473 197 451 164 q 507 269 495 230 q 525 347 519 309 l 526 361 q 530 434 530 393 q 523 514 531 475 q 491 579 515 553 q 423 608 468 606 q 348 587 379 609 q 297 529 317 565 q 265 454 277 494 q 248 379 253 414 l 134 -282 l -41 -282 z "},"ς":{"ha":699,"x_min":31,"x_max":676,"o":"m 418 747 q 559 710 501 746 q 647 611 618 673 q 673 466 676 548 l 509 467 q 502 534 511 503 q 470 585 492 565 q 406 607 447 606 q 326 587 359 608 q 270 531 292 566 q 234 455 247 496 q 216 376 221 414 l 214 355 q 220 258 208 300 q 265 187 233 216 q 348 139 296 157 q 432 106 391 123 q 497 58 472 89 q 520 -27 523 28 q 492 -117 519 -74 q 427 -195 465 -160 q 353 -254 389 -230 l 263 -180 q 296 -145 279 -163 q 326 -105 313 -126 q 342 -60 339 -84 q 339 -30 346 -41 q 318 -11 332 -18 q 290 2 305 -3 q 145 78 204 33 q 58 191 86 123 q 40 354 31 258 l 42 376 q 80 519 51 452 q 158 639 109 587 q 271 720 206 691 q 418 747 336 749 z "},"σ":{"ha":768,"x_min":33,"x_max":814,"o":"m 39 355 l 41 369 q 81 512 50 445 q 161 630 111 579 q 277 710 211 682 q 425 735 344 738 q 460 704 444 722 q 493 668 476 686 q 535 639 511 650 q 626 567 589 613 q 680 464 662 521 q 692 349 697 407 l 690 334 q 653 197 683 260 q 574 85 623 133 q 461 10 526 37 q 320 -15 397 -16 q 186 17 242 -14 q 95 100 130 48 q 46 217 60 152 q 39 355 33 283 m 216 369 l 214 355 q 212 280 211 319 q 224 207 214 241 q 261 150 235 172 q 332 126 287 127 q 413 146 379 125 q 469 203 446 168 q 503 280 491 239 q 520 361 515 322 l 522 375 q 525 445 526 408 q 513 515 524 482 q 478 570 503 548 q 411 593 454 591 q 330 575 365 594 q 272 523 296 555 q 235 449 249 490 q 216 369 221 409 m 814 734 l 789 592 l 410 592 l 435 734 l 814 734 z "},"τ":{"ha":701,"x_min":65,"x_max":725,"o":"m 725 734 l 701 594 l 65 594 l 90 734 l 725 734 m 311 734 l 487 734 l 398 210 q 397 174 396 191 q 408 144 399 156 q 441 132 418 132 q 473 135 458 131 q 505 144 489 139 l 514 10 q 457 -8 486 -3 q 397 -13 429 -14 q 290 20 330 -11 q 235 102 250 51 q 225 215 219 153 l 311 734 z "},"υ":{"ha":734,"x_min":54,"x_max":686,"o":"m 136 734 l 311 734 l 237 281 q 234 235 235 261 q 238 184 233 209 q 258 144 243 160 q 302 126 273 127 q 384 150 349 124 q 444 217 420 176 q 483 304 469 258 q 503 387 498 349 q 513 562 516 473 q 490 736 511 651 l 653 734 q 679 621 671 679 q 685 503 686 562 q 676 387 684 444 q 638 235 667 308 q 563 105 610 163 q 449 16 516 48 q 295 -15 382 -17 q 181 10 229 -14 q 105 74 134 33 q 65 168 76 115 q 60 285 54 222 l 136 734 z "},"φ":{"ha":992,"x_min":28,"x_max":947,"o":"m 277 -324 l 425 555 q 461 653 432 611 q 537 720 491 696 q 639 743 583 743 q 773 712 714 741 q 872 633 832 683 q 930 517 913 583 q 940 380 947 452 q 885 207 929 281 q 771 82 840 132 q 614 8 701 33 q 433 -15 528 -16 q 262 14 339 -14 q 131 93 184 41 q 53 220 77 145 q 40 393 28 296 q 74 527 49 464 q 141 645 100 591 q 240 741 183 699 l 350 640 q 289 567 316 606 q 243 484 262 528 q 216 392 224 440 q 217 282 206 331 q 256 200 227 234 q 332 147 286 165 q 440 127 378 128 q 592 154 522 125 q 708 239 662 182 q 765 381 755 296 q 767 452 769 415 q 752 521 764 489 q 715 575 740 553 q 650 601 690 597 q 620 588 631 595 q 604 560 610 581 l 452 -324 l 277 -324 z "},"ψ":{"ha":989,"x_min":38,"x_max":950,"o":"m 106 734 l 282 734 l 226 398 q 227 290 218 339 q 260 204 235 241 q 329 148 286 168 q 434 126 372 127 q 557 144 500 125 q 657 198 614 162 q 730 285 701 233 q 769 403 758 337 q 776 571 781 486 q 747 736 770 656 l 906 734 q 938 627 928 682 q 949 515 948 571 q 943 402 950 458 q 887 222 930 300 q 775 91 844 144 q 620 11 707 37 q 433 -15 533 -16 q 260 14 336 -14 q 133 95 184 42 q 60 225 82 149 q 50 401 38 302 l 106 734 m 458 734 l 633 734 l 450 -323 l 274 -323 l 458 734 z "},"ω":{"ha":1107,"x_min":50,"x_max":1050,"o":"m 837 736 l 998 734 q 1035 622 1023 680 q 1049 504 1047 564 q 1043 387 1050 445 q 1013 243 1035 315 q 952 112 991 172 q 853 18 913 53 q 709 -14 793 -17 q 595 21 637 -13 q 531 110 552 56 q 506 225 510 163 q 508 342 501 286 l 543 558 l 673 558 l 637 330 q 632 272 633 305 q 637 205 631 238 q 661 150 643 172 q 715 127 679 128 q 787 153 758 125 q 832 224 815 181 q 858 311 849 267 q 871 386 867 355 q 875 563 882 474 q 837 736 867 652 m 205 733 l 380 733 q 292 562 336 648 q 234 378 249 475 q 228 329 231 359 q 224 264 224 298 q 232 199 224 230 q 255 149 239 169 q 302 126 272 128 q 369 143 342 123 q 413 195 396 163 q 439 263 430 227 q 452 330 448 300 l 490 558 l 618 558 l 583 342 q 553 217 574 281 q 498 100 533 153 q 411 15 464 47 q 284 -14 358 -16 q 175 11 219 -13 q 105 76 132 35 q 65 166 78 116 q 51 271 52 216 q 56 378 50 326 q 84 506 64 444 q 135 624 104 567 q 205 733 165 681 z "},"ϑ":{"ha":798,"x_min":55,"x_max":801,"o":"m 801 549 l 795 401 q 713 381 755 389 q 629 374 671 374 q 445 419 526 375 q 317 541 363 463 q 279 726 272 619 l 281 740 q 324 875 288 815 q 420 970 360 935 q 557 1002 479 1004 q 658 978 616 1001 q 724 916 699 955 q 758 828 749 877 q 761 726 767 779 l 693 307 q 632 139 680 212 q 507 25 584 66 q 332 -14 431 -16 q 212 13 265 -12 q 123 82 159 39 q 71 183 87 125 q 63 307 55 240 l 92 490 l 260 490 l 231 306 q 236 223 225 262 q 275 159 247 184 q 353 132 304 134 q 435 157 403 131 q 486 223 468 182 q 511 306 504 263 l 581 741 q 582 775 582 758 q 579 809 583 793 q 565 836 576 825 q 534 848 555 846 q 488 833 507 848 q 460 795 470 819 q 447 747 450 772 l 446 732 q 462 624 440 669 q 529 554 484 578 q 636 529 574 530 q 719 535 677 528 q 801 549 760 541 z "},"ϒ":{"ha":781,"x_min":76,"x_max":901,"o":"m 494 473 l 412 0 l 229 0 l 311 473 l 494 473 m 397 501 l 587 849 q 638 929 608 893 q 707 985 667 965 q 800 1004 747 1006 q 851 999 827 1004 q 901 985 876 993 l 861 847 q 843 850 852 848 q 824 852 833 852 q 791 844 806 851 q 765 826 777 838 q 744 799 753 814 l 465 329 l 342 330 l 397 501 m 338 851 l 418 479 l 412 330 l 298 329 l 182 799 q 170 824 178 813 q 152 840 163 834 q 126 848 141 846 q 106 847 116 848 q 87 844 96 846 l 76 986 q 120 998 98 994 q 165 1002 142 1002 q 247 982 213 1001 q 304 929 281 962 q 338 851 326 895 z "},"ϖ":{"ha":1103,"x_min":50,"x_max":1151,"o":"m 1151 734 l 1128 606 l 54 606 l 76 734 l 1151 734 m 833 736 l 994 734 q 1031 622 1019 680 q 1045 504 1044 564 q 1040 387 1046 445 q 1018 273 1033 331 q 979 163 1004 216 q 918 70 954 111 q 831 6 882 29 q 714 -15 781 -17 q 598 21 643 -13 q 532 107 554 54 q 505 223 510 161 q 507 342 500 285 l 528 476 l 657 476 l 635 330 q 631 269 631 303 q 637 202 630 235 q 664 149 644 170 q 721 126 684 127 q 779 144 755 125 q 818 194 802 163 q 843 260 833 225 q 859 329 853 296 q 867 386 864 362 q 871 563 878 474 q 833 736 863 652 m 205 733 l 381 733 q 293 562 336 648 q 235 378 250 475 q 229 331 232 361 q 224 267 225 301 q 229 201 224 233 q 250 149 235 170 q 294 127 265 128 q 362 142 334 123 q 408 193 390 161 q 437 262 427 225 q 452 330 447 298 l 473 476 l 602 476 l 581 342 q 551 215 572 279 q 494 98 530 151 q 404 14 458 45 q 275 -15 350 -17 q 169 12 212 -13 q 101 77 126 37 q 64 169 75 118 q 51 274 52 220 q 56 378 50 328 q 85 506 64 444 q 136 624 105 567 q 205 733 166 681 z "},"Ђ":{"ha":1008,"x_min":96,"x_max":958,"o":"m 379 414 l 391 562 q 471 585 430 575 q 555 601 513 595 q 638 606 597 606 q 805 570 732 604 q 918 469 879 536 q 949 302 958 402 q 907 160 942 220 q 815 63 871 101 q 689 7 759 26 q 544 -13 619 -12 l 557 127 q 634 139 598 128 q 697 170 669 149 q 742 221 724 190 q 766 296 760 253 q 756 381 772 345 q 707 435 741 416 q 624 456 673 454 q 541 452 582 457 q 459 436 499 446 q 379 414 418 427 m 550 987 l 378 0 l 197 0 l 368 987 l 550 987 m 869 987 l 844 840 l 96 840 l 122 987 l 869 987 z "},"Є":{"ha":892,"x_min":60,"x_max":881,"o":"m 585 570 l 559 422 l 168 422 l 194 570 l 585 570 m 633 324 l 813 326 q 739 141 798 218 q 589 24 679 64 q 393 -14 499 -16 q 228 28 294 -12 q 123 136 161 68 q 73 286 85 203 q 72 456 60 369 l 83 530 q 132 707 96 622 q 227 860 168 793 q 365 965 285 927 q 548 1001 446 1003 q 726 956 654 1000 q 838 835 799 911 q 881 656 877 758 l 700 657 q 685 758 700 714 q 635 827 671 802 q 538 854 600 852 q 422 828 471 857 q 342 751 374 800 q 292 645 311 703 q 265 531 273 587 l 254 455 q 247 374 249 418 q 251 289 245 331 q 273 212 256 247 q 320 155 289 177 q 403 132 351 133 q 514 153 467 130 q 590 219 561 176 q 633 324 620 263 z "},"Љ":{"ha":1428,"x_min":-41,"x_max":1377,"o":"m 329 987 l 511 987 l 402 494 q 370 355 388 426 q 326 221 353 285 q 259 107 300 157 q 158 29 218 58 q 14 0 98 0 l -41 0 l -21 146 l 2 148 q 95 181 58 152 q 157 254 133 210 q 196 350 181 298 q 220 454 210 402 q 237 547 229 505 l 329 987 m 824 987 l 798 840 l 332 840 l 358 987 l 824 987 m 836 638 l 1057 637 q 1223 597 1149 635 q 1336 490 1296 559 q 1369 324 1377 421 q 1327 184 1362 245 q 1236 82 1292 123 q 1112 20 1181 41 q 968 0 1042 -1 l 604 0 l 775 987 l 958 987 l 812 146 l 974 146 q 1074 168 1028 146 q 1149 231 1120 191 q 1187 326 1179 271 q 1179 409 1194 373 q 1132 467 1164 446 q 1053 490 1100 488 l 810 491 l 836 638 z "},"Њ":{"ha":1432,"x_min":22,"x_max":1379,"o":"m 756 567 l 730 420 l 227 420 l 252 567 l 756 567 m 376 987 l 204 0 l 22 0 l 193 987 l 376 987 m 838 625 l 1060 625 q 1223 586 1149 622 q 1338 483 1297 551 q 1371 320 1379 416 q 1330 181 1365 241 q 1240 80 1295 121 q 1115 19 1184 39 q 972 0 1046 -1 l 608 0 l 779 987 l 962 987 l 816 149 l 978 148 q 1077 169 1031 149 q 1153 228 1122 189 q 1191 321 1183 267 q 1181 402 1197 368 q 1133 456 1166 437 q 1055 478 1101 476 l 812 479 l 838 625 z "},"Ћ":{"ha":1050,"x_min":100,"x_max":958,"o":"m 895 1 l 714 1 l 765 307 q 760 401 772 363 q 713 458 747 439 q 622 479 680 477 q 559 477 590 479 q 496 470 528 475 q 433 459 464 466 q 372 444 402 452 l 387 592 q 445 608 415 601 q 506 618 475 614 q 568 624 537 622 q 629 625 600 625 q 805 588 729 624 q 919 482 881 553 q 945 305 958 412 l 895 1 m 544 987 l 373 0 l 190 0 l 361 987 l 544 987 m 860 987 l 835 840 l 100 840 l 125 987 l 860 987 z "},"Џ":{"ha":946,"x_min":14,"x_max":954,"o":"m 14 0 l 185 987 l 368 987 l 222 146 l 625 146 l 772 987 l 954 987 l 783 0 l 14 0 m 522 140 l 455 -244 l 273 -244 l 340 140 l 522 140 z "},"Б":{"ha":852,"x_min":18,"x_max":810,"o":"m 810 987 l 784 840 l 346 840 l 200 0 l 18 0 l 189 987 l 810 987 m 248 618 l 469 617 q 633 581 559 615 q 749 480 707 547 q 783 317 790 414 q 741 178 776 238 q 650 79 706 119 q 526 19 595 39 q 383 0 457 -1 l 19 0 l 190 987 l 373 987 l 227 146 l 389 146 q 488 166 442 146 q 563 225 533 187 q 601 319 593 264 q 592 399 607 366 q 543 451 576 433 q 465 471 510 469 l 222 471 l 248 618 z "},"Д":{"ha":1006,"x_min":-83,"x_max":972,"o":"m 806 146 l 780 0 l 81 0 l 106 146 l 806 146 m 157 146 l 90 -242 l -83 -242 l -24 146 l 157 146 m 941 146 l 860 -243 l 690 -243 l 758 146 l 941 146 m 839 987 l 813 840 l 361 840 l 387 987 l 839 987 m 972 987 l 801 0 l 619 0 l 791 987 l 972 987 m 357 987 l 541 987 l 446 587 q 417 473 433 531 q 378 359 400 416 q 328 250 356 303 q 264 151 300 197 q 186 65 229 104 q 90 0 142 27 l -21 0 l 1 146 l 43 145 q 131 234 95 183 q 193 343 168 285 q 234 464 218 401 q 264 586 251 526 l 357 987 z "},"Ж":{"ha":1318,"x_min":-64,"x_max":1406,"o":"m 396 417 l 134 987 l 349 987 l 503 581 l 678 581 l 625 417 l 396 417 m 484 436 l 173 0 l -64 0 l 357 559 l 484 436 m 859 987 l 688 0 l 507 0 l 677 987 l 859 987 m 1406 987 l 951 417 l 715 417 l 720 581 l 881 581 l 1171 987 l 1406 987 m 1024 0 l 864 450 l 1019 562 l 1242 0 l 1024 0 z "},"З":{"ha":825,"x_min":19,"x_max":812,"o":"m 456 473 l 304 473 l 323 576 l 430 575 q 519 591 478 575 q 588 640 561 607 q 622 724 615 672 q 609 797 627 768 q 556 840 590 826 q 481 856 522 854 q 400 841 438 856 q 335 797 362 827 q 301 723 309 766 l 119 722 q 159 845 125 793 q 245 933 193 898 q 362 985 298 968 q 490 1001 426 1002 q 613 984 555 1000 q 718 934 672 968 q 787 849 763 901 q 806 725 812 798 q 769 612 802 660 q 685 533 736 564 q 574 488 633 503 q 456 473 514 473 m 315 532 l 446 532 q 560 516 505 530 q 658 473 615 503 q 724 396 701 444 q 743 281 747 349 q 700 147 737 203 q 605 55 663 91 q 478 2 547 19 q 340 -14 409 -14 q 215 6 274 -12 q 112 61 157 25 q 43 151 68 97 q 21 275 19 204 l 202 275 q 220 199 201 230 q 272 151 239 168 q 349 133 306 134 q 443 148 396 132 q 522 198 489 164 q 562 283 555 231 q 560 348 568 320 q 534 394 552 376 q 488 421 515 412 q 425 431 460 430 l 298 432 l 315 532 z "},"И":{"ha":947,"x_min":16,"x_max":956,"o":"m 252 309 l 768 987 l 956 987 l 785 0 l 602 0 l 720 678 l 203 0 l 16 0 l 188 987 l 370 987 l 252 309 z "},"Л":{"ha":952,"x_min":-41,"x_max":960,"o":"m 826 987 l 800 840 l 332 840 l 357 987 l 826 987 m 960 987 l 789 0 l 606 0 l 777 987 l 960 987 m 328 987 l 511 987 l 401 494 q 370 356 387 427 q 325 221 352 286 q 258 106 298 157 q 157 27 217 56 q 13 0 97 -2 l -41 0 l -22 146 l 1 149 q 95 181 57 153 q 157 254 133 210 q 196 350 181 298 q 219 453 210 401 q 237 547 229 505 l 328 987 z "},"У":{"ha":850,"x_min":105,"x_max":933,"o":"m 381 357 l 728 987 l 933 987 l 465 184 q 414 104 441 141 q 352 40 386 68 q 276 -2 318 13 q 180 -17 233 -16 q 142 -15 161 -16 q 105 -13 123 -14 l 119 135 q 144 132 132 133 q 170 131 157 131 q 231 143 205 131 q 276 177 257 155 q 311 229 295 199 l 381 357 m 319 987 l 461 462 l 479 269 l 347 264 l 130 987 l 319 987 z "},"Ф":{"ha":1086,"x_min":56,"x_max":1065,"o":"m 521 897 l 721 896 q 871 862 805 894 q 981 775 937 830 q 1045 649 1025 720 q 1056 495 1065 577 q 1009 331 1047 406 q 909 202 970 256 q 769 118 848 148 q 602 87 690 87 l 401 89 q 251 121 317 90 q 140 205 184 152 q 76 330 96 259 q 64 483 56 401 q 112 649 73 573 q 211 780 150 724 q 351 866 273 836 q 521 897 430 897 m 514 749 q 376 714 435 749 q 282 618 317 679 q 236 482 246 558 q 237 392 231 435 q 263 315 243 349 q 319 260 283 281 q 406 238 355 240 l 609 236 q 744 270 686 236 q 838 362 802 304 q 884 495 874 421 q 884 586 890 542 q 859 666 878 630 q 805 723 840 701 q 717 747 770 745 l 514 749 m 741 1028 l 556 -41 l 381 -41 l 566 1028 l 741 1028 z "},"Ц":{"ha":1014,"x_min":14,"x_max":954,"o":"m 933 147 l 854 -238 l 684 -238 l 726 0 l 643 0 l 669 147 l 933 147 m 14 0 l 185 987 l 367 987 l 221 146 l 625 146 l 771 987 l 954 987 l 783 0 l 14 0 z "},"Ч":{"ha":932,"x_min":131,"x_max":941,"o":"m 194 987 l 376 987 l 326 682 q 331 587 319 625 q 377 530 343 549 q 469 509 411 511 q 531 511 500 509 q 594 518 563 513 q 656 529 625 522 q 717 544 687 536 l 703 396 q 644 379 673 386 q 583 369 614 372 q 520 363 551 365 q 460 362 490 361 q 284 399 359 363 q 170 506 208 435 q 143 683 131 576 l 194 987 m 759 987 l 941 987 l 770 0 l 587 0 l 759 987 z "},"Ш":{"ha":1286,"x_min":20,"x_max":1297,"o":"m 191 987 l 374 987 l 228 146 l 509 146 l 654 987 l 837 987 l 690 146 l 968 146 l 1114 987 l 1297 987 l 1125 0 l 20 0 l 191 987 z "},"Щ":{"ha":1360,"x_min":20,"x_max":1297,"o":"m 1270 141 l 1192 -237 l 1029 -237 l 1070 1 l 987 1 l 1012 141 l 1270 141 m 191 987 l 374 987 l 228 146 l 509 146 l 654 987 l 837 987 l 690 146 l 968 146 l 1114 987 l 1297 987 l 1125 0 l 20 0 l 191 987 z "},"Ъ":{"ha":1036,"x_min":90,"x_max":982,"o":"m 90 846 l 115 987 l 450 987 l 425 846 l 90 846 m 439 618 l 661 617 q 825 581 751 615 q 941 480 899 547 q 974 317 982 414 q 933 178 968 238 q 842 79 898 119 q 718 19 787 39 q 575 0 649 -1 l 211 0 l 382 987 l 564 987 l 418 146 l 581 146 q 679 166 634 146 q 754 226 724 187 q 792 319 784 264 q 783 399 798 366 q 735 451 768 433 q 656 471 702 469 l 414 471 l 439 618 z "},"Ы":{"ha":1177,"x_min":23,"x_max":1177,"o":"m 252 618 l 473 617 q 637 581 564 615 q 753 480 711 547 q 787 317 794 414 q 745 178 780 238 q 654 79 710 119 q 530 19 599 39 q 387 0 461 -1 l 23 0 l 194 987 l 376 987 l 231 146 l 393 146 q 492 166 447 146 q 567 225 537 187 q 605 319 597 264 q 596 399 612 366 q 547 451 581 433 q 469 471 514 469 l 226 471 l 252 618 m 1177 987 l 1006 0 l 823 0 l 995 987 l 1177 987 z "},"Ь":{"ha":842,"x_min":19,"x_max":790,"o":"m 248 618 l 469 617 q 633 581 559 615 q 749 480 707 547 q 783 317 790 414 q 741 178 776 238 q 650 79 706 119 q 526 19 595 39 q 383 0 457 -1 l 19 0 l 190 987 l 373 987 l 227 146 l 389 146 q 488 166 442 146 q 563 225 533 187 q 601 319 593 264 q 592 399 607 366 q 543 451 576 433 q 465 471 510 469 l 222 471 l 248 618 z "},"Э":{"ha":882,"x_min":35,"x_max":854,"o":"m 755 567 l 730 420 l 325 420 l 351 567 l 755 567 m 35 325 l 216 325 q 233 225 217 268 q 285 158 249 182 q 382 132 321 134 q 497 158 450 130 q 576 236 545 187 q 626 342 608 284 q 652 456 644 399 l 663 532 q 669 613 667 570 q 664 698 670 656 q 642 775 659 740 q 593 831 625 810 q 511 854 561 852 q 398 833 445 857 q 323 764 352 809 q 280 658 294 719 l 99 657 q 176 842 117 764 q 324 961 235 920 q 520 1002 412 1003 q 685 959 618 1000 q 791 850 752 918 q 842 699 830 783 q 844 530 854 616 l 833 456 q 784 279 820 363 q 691 127 749 194 q 554 22 634 60 q 372 -14 474 -16 q 194 30 269 -12 q 79 147 119 72 q 35 325 38 222 z "},"Ю":{"ha":1266,"x_min":28,"x_max":1230,"o":"m 382 987 l 211 0 l 28 0 l 200 987 l 382 987 m 493 547 l 475 405 l 221 405 l 239 547 l 493 547 m 1219 521 l 1213 471 q 1162 289 1199 376 q 1066 133 1126 201 q 924 24 1006 64 q 738 -14 842 -16 q 570 30 638 -12 q 462 141 501 72 q 409 295 422 210 q 406 468 395 380 l 414 519 q 464 700 427 612 q 561 856 501 787 q 703 964 621 924 q 888 1001 785 1003 q 1057 958 989 1000 q 1165 847 1126 916 q 1217 693 1204 778 q 1219 521 1230 608 m 1029 468 l 1036 521 q 1042 626 1042 570 q 1027 732 1042 682 q 978 815 1013 783 q 878 851 943 848 q 761 824 810 854 q 678 745 711 795 q 625 636 644 695 q 597 520 606 577 l 591 467 q 585 363 585 420 q 599 256 585 307 q 648 171 613 205 q 748 136 684 138 q 866 163 817 133 q 949 242 916 193 q 1001 352 982 292 q 1029 468 1021 411 z "},"Я":{"ha":812,"x_min":-79,"x_max":829,"o":"m 599 365 l 346 365 l 285 393 q 140 503 190 433 q 98 680 90 572 q 163 854 107 786 q 305 955 219 922 q 490 988 391 988 l 829 987 l 658 0 l 475 0 l 621 840 l 485 842 q 345 797 401 841 q 278 669 289 753 q 284 585 272 621 q 326 528 296 549 q 406 505 355 507 l 623 505 l 599 365 m 422 444 l 127 0 l -79 0 l 218 444 l 422 444 z "},"б":{"ha":763,"x_min":43,"x_max":755,"o":"m 616 1056 l 755 1057 q 730 953 752 994 q 672 887 709 912 q 587 847 635 861 q 483 822 538 832 q 353 770 405 807 q 270 678 302 732 q 221 558 238 624 q 198 422 205 493 l 193 382 l 54 366 l 59 406 q 95 587 68 497 q 168 755 121 677 q 286 886 214 832 q 456 960 357 940 q 522 974 488 966 q 582 1000 556 982 q 616 1056 608 1019 m 454 692 q 577 663 526 691 q 661 587 629 634 q 705 479 692 539 q 713 354 718 420 l 711 339 q 673 199 703 264 q 594 86 643 134 q 480 11 545 37 q 336 -14 414 -16 q 200 18 256 -13 q 108 101 143 49 q 58 219 73 153 q 49 357 43 286 l 50 373 q 65 405 53 389 q 92 434 77 420 q 115 464 106 449 q 203 577 154 524 q 314 662 252 630 q 454 692 376 694 m 412 552 q 314 525 354 553 q 252 450 275 496 q 223 351 230 403 l 222 337 q 221 266 218 302 q 237 198 224 229 q 276 147 250 167 q 346 126 302 127 q 425 143 391 125 q 481 193 458 161 q 518 262 505 224 q 536 340 531 300 l 537 354 q 536 423 540 389 q 519 487 533 458 q 480 533 506 515 q 412 552 454 551 z "},"в":{"ha":764,"x_min":20,"x_max":706,"o":"m 417 310 l 185 311 l 205 432 l 382 431 q 442 439 412 433 q 496 463 473 445 q 524 514 519 480 q 521 554 528 538 q 498 577 513 569 q 464 589 483 586 q 425 593 444 593 l 297 594 l 194 0 l 20 0 l 146 734 l 429 733 q 526 723 476 732 q 616 692 575 713 q 682 632 657 670 q 703 535 706 593 q 678 455 701 488 q 618 403 655 423 q 540 372 582 382 q 458 357 498 361 l 417 310 m 368 0 l 81 0 l 170 140 l 372 139 q 432 148 404 140 q 482 175 461 156 q 509 229 503 195 q 503 276 514 259 q 470 301 492 294 q 421 310 448 309 l 231 311 l 254 432 l 456 431 l 492 383 q 584 359 540 378 q 654 304 627 340 q 680 215 681 269 q 649 110 677 151 q 575 44 621 68 q 475 9 529 20 q 368 0 421 -1 z "},"г":{"ha":565,"x_min":8,"x_max":614,"o":"m 614 734 l 589 592 l 286 592 l 183 0 l 8 0 l 136 734 l 614 734 z "},"д":{"ha":841,"x_min":-85,"x_max":772,"o":"m 262 734 l 438 734 l 388 482 q 349 331 374 408 q 284 186 324 254 q 184 69 243 118 q 44 0 125 20 l -4 0 l 12 139 l 33 140 q 101 215 72 177 q 152 295 131 254 q 189 382 174 336 q 213 481 203 429 l 262 734 m 309 734 l 772 734 l 645 0 l 470 0 l 572 587 l 283 587 l 309 734 m -22 141 l 769 141 l 706 -220 l 530 -220 l 569 0 l 132 0 l 93 -220 l -85 -220 l -22 141 z "},"ж":{"ha":1128,"x_min":-52,"x_max":1162,"o":"m 306 286 l 92 733 l 298 734 l 408 451 l 552 451 l 502 286 l 306 286 m 393 309 l 170 0 l -52 0 l 266 407 l 393 309 m 709 734 l 581 0 l 407 0 l 534 734 l 709 734 m 1162 734 l 795 286 l 590 286 l 597 451 l 728 451 l 936 734 l 1162 734 m 829 0 l 708 321 l 859 410 l 1036 0 l 829 0 z "},"з":{"ha":690,"x_min":13,"x_max":656,"o":"m 384 349 l 235 350 l 250 435 l 347 435 q 405 445 377 435 q 451 474 432 454 q 475 527 470 494 q 468 575 479 556 q 437 604 458 594 q 389 614 416 614 q 332 605 359 615 q 286 576 305 595 q 259 526 267 556 l 83 525 q 135 652 89 602 q 250 725 182 702 q 388 747 317 749 q 485 735 437 747 q 572 699 533 724 q 634 635 611 675 q 654 538 656 595 q 626 451 652 487 q 560 393 600 415 q 474 360 520 370 q 384 349 428 349 m 243 399 l 372 398 q 459 387 416 397 q 537 357 503 378 q 591 300 571 336 q 609 213 611 265 q 575 106 606 150 q 496 36 545 63 q 392 -3 448 9 q 283 -14 336 -15 q 150 14 212 -12 q 51 90 88 39 q 14 218 13 141 l 186 218 q 201 163 186 184 q 241 131 216 142 q 298 121 267 120 q 360 131 330 120 q 412 165 391 142 q 437 222 433 188 q 431 276 442 256 q 398 304 420 296 q 345 315 375 313 l 229 315 l 243 399 z "},"и":{"ha":766,"x_min":9,"x_max":745,"o":"m 230 267 l 564 734 l 745 734 l 617 0 l 441 0 l 524 467 l 189 0 l 9 0 l 136 734 l 311 734 l 230 267 z "},"к":{"ha":751,"x_min":19,"x_max":791,"o":"m 321 734 l 194 0 l 19 0 l 146 734 l 321 734 m 791 734 l 399 283 l 209 283 l 215 448 l 338 448 l 560 734 l 791 734 m 454 0 l 310 321 l 464 410 l 676 0 l 454 0 z "},"л":{"ha":767,"x_min":-50,"x_max":745,"o":"m 614 734 l 589 592 l 239 592 l 264 734 l 614 734 m 745 734 l 618 0 l 442 0 l 570 734 l 745 734 m 220 734 l 395 734 l 313 368 q 288 262 302 315 q 253 162 274 210 q 199 78 231 115 q 121 20 167 41 q 12 0 75 -1 l -50 0 l -33 144 l -9 145 q 55 168 29 148 q 99 218 81 188 q 126 284 116 248 q 143 355 137 319 q 155 420 150 391 l 220 734 z "},"м":{"ha":1017,"x_min":20,"x_max":981,"o":"m 468 213 l 758 734 l 912 734 l 498 0 l 380 0 l 221 734 l 361 734 l 468 213 m 321 734 l 194 0 l 20 0 l 146 734 l 321 734 m 678 0 l 806 734 l 981 734 l 854 0 l 678 0 z "},"н":{"ha":766,"x_min":9,"x_max":743,"o":"m 570 433 l 545 292 l 178 292 l 203 433 l 570 433 m 311 734 l 184 0 l 9 0 l 136 734 l 311 734 m 743 734 l 616 0 l 440 0 l 568 734 l 743 734 z "},"п":{"ha":766,"x_min":9,"x_max":745,"o":"m 613 734 l 589 592 l 239 592 l 264 734 l 613 734 m 311 734 l 184 0 l 9 0 l 136 734 l 311 734 m 745 734 l 617 0 l 441 0 l 569 734 l 745 734 z "},"т":{"ha":678,"x_min":54,"x_max":713,"o":"m 481 734 l 354 0 l 178 0 l 306 734 l 481 734 m 713 734 l 688 594 l 54 594 l 78 734 l 713 734 z "},"ф":{"ha":983,"x_min":34,"x_max":930,"o":"m 925 363 l 924 349 q 895 221 916 286 q 837 102 873 156 q 745 16 800 48 q 614 -14 690 -16 q 518 13 558 -13 q 453 81 478 39 q 417 173 428 123 q 408 273 407 223 l 433 439 q 465 548 443 492 q 522 649 486 603 q 605 723 557 695 q 715 748 653 750 q 816 722 775 747 q 881 656 857 697 q 916 565 905 615 q 929 463 928 515 q 925 363 930 411 m 749 350 l 751 365 q 755 418 753 387 q 754 481 757 448 q 743 541 752 513 q 714 587 733 569 q 661 606 694 606 q 586 591 617 609 q 534 541 555 572 q 504 473 514 509 l 465 239 q 480 181 467 206 q 516 141 492 156 q 578 127 541 127 q 653 146 622 125 q 703 201 684 168 q 734 274 723 235 q 749 350 745 313 m 40 341 l 42 355 q 63 462 48 407 q 101 569 77 517 q 161 662 125 621 q 245 726 197 703 q 356 747 293 749 q 454 716 414 745 q 517 642 494 688 q 549 543 540 596 q 556 440 558 490 l 532 282 q 501 175 523 229 q 444 79 479 122 q 361 9 409 35 q 253 -15 314 -16 q 137 21 182 -13 q 69 107 92 54 q 40 221 46 160 q 40 341 34 283 m 218 356 l 216 341 q 212 277 213 313 q 218 207 211 241 q 246 151 225 174 q 307 127 267 129 q 378 140 348 125 q 430 183 409 155 q 461 247 450 211 l 499 473 q 488 538 498 508 q 455 587 478 568 q 391 607 432 606 q 312 583 344 608 q 261 519 281 558 q 232 436 242 479 q 218 356 222 392 m 282 -282 l 512 1042 l 688 1042 l 458 -282 l 282 -282 z "},"ц":{"ha":815,"x_min":9,"x_max":745,"o":"m 9 0 l 136 734 l 311 734 l 208 141 l 466 141 l 569 734 l 745 734 l 617 0 l 9 0 m 744 140 l 669 -218 l 507 -218 l 545 0 l 462 0 l 486 140 l 744 140 z "},"ч":{"ha":743,"x_min":71,"x_max":721,"o":"m 721 734 l 594 0 l 418 0 l 545 734 l 721 734 m 582 414 l 569 272 q 502 247 537 256 q 429 233 466 237 q 357 229 393 229 q 204 261 271 230 q 104 355 138 293 q 81 509 71 416 l 117 734 l 292 734 l 255 508 q 259 434 250 464 q 294 388 268 404 q 365 372 319 372 q 439 376 402 370 q 511 393 475 382 q 582 414 547 403 z "},"ш":{"ha":1109,"x_min":9,"x_max":1083,"o":"m 136 734 l 311 734 l 208 141 l 419 141 l 522 734 l 698 734 l 595 141 l 804 141 l 907 734 l 1083 734 l 956 0 l 9 0 l 136 734 z "},"щ":{"ha":1192,"x_min":5,"x_max":1110,"o":"m 1110 140 l 1036 -218 l 873 -218 l 911 0 l 828 0 l 852 140 l 1110 140 m 133 734 l 309 734 l 205 141 l 416 141 l 519 734 l 694 734 l 592 141 l 802 141 l 905 734 l 1080 734 l 953 0 l 5 0 l 133 734 z "},"ъ":{"ha":875,"x_min":54,"x_max":825,"o":"m 435 734 l 410 592 l 54 592 l 79 734 l 435 734 m 357 508 l 555 507 q 691 477 629 505 q 789 395 753 450 q 819 259 825 340 q 786 144 815 193 q 709 63 756 95 q 605 15 663 31 q 487 0 548 -1 l 157 0 l 284 734 l 460 734 l 357 140 l 492 140 q 562 154 529 140 q 616 193 594 167 q 644 258 638 218 q 640 315 650 291 q 606 352 629 338 q 550 366 583 365 l 332 367 l 357 508 z "},"ы":{"ha":1106,"x_min":20,"x_max":1059,"o":"m 219 508 l 417 507 q 554 477 492 505 q 651 395 616 449 q 682 259 687 340 q 648 144 677 193 q 572 63 619 95 q 468 15 526 31 q 350 0 410 -1 l 20 0 l 146 734 l 321 734 l 219 140 l 355 140 q 424 153 392 140 q 479 192 456 166 q 508 257 502 218 q 502 315 513 291 q 469 352 492 338 q 413 366 446 365 l 195 367 l 219 508 m 1059 734 l 931 0 l 755 0 l 883 734 l 1059 734 z "},"ь":{"ha":747,"x_min":20,"x_max":687,"o":"m 219 508 l 417 507 q 554 477 492 505 q 651 395 616 449 q 682 259 687 340 q 648 144 677 193 q 572 63 619 95 q 468 15 526 31 q 350 0 410 -1 l 20 0 l 146 734 l 321 734 l 219 140 l 355 140 q 424 153 392 140 q 479 192 456 166 q 508 257 502 218 q 502 315 513 291 q 469 352 492 338 q 413 366 446 365 l 195 367 l 219 508 z "},"э":{"ha":705,"x_min":17,"x_max":661,"o":"m 370 607 q 303 592 333 608 q 255 549 274 576 q 229 487 236 522 l 64 486 q 117 626 71 566 q 233 717 163 685 q 380 748 302 749 q 513 715 458 746 q 602 632 568 684 q 648 515 635 581 q 654 379 661 450 l 652 357 q 613 214 642 282 q 536 95 584 146 q 422 14 488 43 q 276 -14 357 -16 q 135 24 194 -12 q 47 124 77 61 q 20 267 17 187 l 185 267 q 193 201 183 232 q 225 149 202 170 q 288 127 248 128 q 368 146 334 125 q 424 202 401 168 q 459 278 446 237 q 477 357 472 319 l 479 379 q 482 450 482 412 q 472 524 482 489 q 438 583 463 559 q 370 607 414 606 m 551 428 l 530 314 l 257 314 l 277 428 l 551 428 z "},"ю":{"ha":1095,"x_min":21,"x_max":1049,"o":"m 509 444 l 485 302 l 100 302 l 125 444 l 509 444 m 324 734 l 197 0 l 21 0 l 149 734 l 324 734 m 372 354 l 373 369 q 413 515 382 446 q 492 637 443 585 q 609 720 542 690 q 759 748 675 749 q 894 715 838 746 q 986 632 951 684 q 1036 514 1022 580 q 1042 376 1049 448 l 1040 361 q 1000 215 1031 283 q 920 94 970 146 q 803 13 870 42 q 654 -14 736 -16 q 520 18 576 -12 q 428 100 463 49 q 378 217 393 151 q 372 354 364 282 m 549 370 l 547 355 q 545 281 543 320 q 557 207 546 241 q 595 151 569 173 q 665 127 621 128 q 749 146 713 125 q 808 201 785 167 q 846 278 832 236 q 865 361 860 320 l 867 375 q 869 449 870 410 q 856 524 868 489 q 819 582 844 559 q 747 607 793 605 q 664 587 699 608 q 605 530 629 566 q 568 452 581 494 q 549 370 554 410 z "},"я":{"ha":750,"x_min":-46,"x_max":718,"o":"m 216 362 l 406 362 l 142 0 l -46 0 l 216 362 m 397 734 l 718 734 l 590 0 l 415 0 l 518 594 l 393 595 q 327 581 359 593 q 272 545 295 569 q 243 484 250 521 q 250 434 239 455 q 283 402 261 414 q 332 390 305 391 l 546 389 l 524 263 l 331 264 q 232 279 280 265 q 147 320 184 293 q 88 390 109 348 q 70 490 67 433 q 103 600 73 553 q 180 676 133 646 q 284 720 227 706 q 397 734 340 734 z "},"ђ":{"ha":751,"x_min":3,"x_max":691,"o":"m 486 315 l 663 315 l 604 -33 q 560 -171 595 -111 q 467 -266 526 -231 q 326 -298 408 -300 q 278 -295 302 -298 q 229 -286 254 -292 l 252 -147 q 285 -155 268 -152 q 319 -159 302 -159 q 376 -140 354 -159 q 411 -93 399 -121 q 428 -34 423 -64 l 486 315 m 359 1042 l 178 0 l 3 0 l 184 1042 l 359 1042 m 221 393 l 172 393 q 202 520 180 456 q 264 635 225 583 q 358 719 302 688 q 488 748 414 749 q 590 724 549 747 q 653 662 631 701 q 684 573 676 623 q 685 468 691 523 l 608 0 l 431 0 l 510 470 q 508 538 515 508 q 480 587 502 568 q 416 606 458 605 q 336 589 370 607 q 278 541 302 572 q 241 471 255 509 q 221 393 227 433 m 511 928 l 491 811 l 38 811 l 59 928 l 511 928 z "},"є":{"ha":705,"x_min":33,"x_max":680,"o":"m 443 418 l 422 304 l 134 304 l 155 418 l 443 418 m 321 127 q 390 141 359 125 q 441 183 420 156 q 470 248 462 211 l 635 248 q 581 108 627 168 q 463 16 534 48 q 314 -14 393 -16 q 180 18 235 -12 q 91 100 125 49 q 45 217 58 152 q 39 354 33 283 l 42 376 q 81 520 52 452 q 158 640 110 588 q 271 721 205 692 q 418 747 336 749 q 560 709 501 746 q 650 610 619 673 q 679 466 680 547 l 515 467 q 505 534 515 503 q 469 585 494 566 q 405 607 445 605 q 323 588 357 608 q 268 532 290 567 q 234 457 246 498 q 217 376 222 416 l 214 355 q 211 283 211 321 q 219 209 210 244 q 253 151 229 174 q 321 127 277 128 z "},"љ":{"ha":1155,"x_min":-52,"x_max":1099,"o":"m 219 734 l 393 734 l 311 368 q 287 263 301 316 q 252 162 273 210 q 198 78 231 115 q 120 20 166 41 q 11 0 74 -1 l -52 0 l -33 144 l -11 145 q 54 168 28 148 q 97 218 80 187 q 125 284 114 248 q 142 355 136 319 q 154 420 149 391 l 219 734 m 604 734 l 579 592 l 237 592 l 262 734 l 604 734 m 630 488 l 827 488 q 961 460 899 486 q 1062 382 1024 434 q 1095 251 1099 330 q 1061 137 1090 185 q 984 59 1031 90 q 880 14 937 28 q 764 0 823 -1 l 433 0 l 560 734 l 736 734 l 633 140 l 768 139 q 836 152 804 140 q 891 189 869 164 q 920 252 913 214 q 913 305 925 285 q 877 335 901 326 q 823 347 852 345 l 605 347 l 630 488 z "},"њ":{"ha":1160,"x_min":9,"x_max":1107,"o":"m 574 452 l 549 311 l 182 311 l 207 452 l 574 452 m 311 734 l 184 0 l 9 0 l 136 734 l 311 734 m 637 488 l 835 488 q 969 460 907 486 q 1069 382 1032 434 q 1101 251 1107 331 q 1068 138 1097 186 q 991 59 1038 90 q 887 14 945 28 q 771 0 830 -1 l 440 0 l 568 734 l 743 734 l 640 140 l 776 139 q 844 152 811 140 q 899 189 876 164 q 927 252 921 214 q 920 305 932 285 q 884 335 907 326 q 831 347 860 345 l 612 347 l 637 488 z "},"ћ":{"ha":767,"x_min":3,"x_max":691,"o":"m 359 1042 l 178 0 l 3 0 l 184 1042 l 359 1042 m 221 393 l 172 393 q 202 520 179 456 q 264 635 225 583 q 358 719 302 688 q 488 748 414 750 q 590 724 549 747 q 653 662 631 701 q 684 573 676 623 q 685 468 691 523 l 608 0 l 431 0 l 511 470 q 508 538 515 508 q 480 587 502 568 q 416 606 458 605 q 336 589 370 607 q 279 540 302 571 q 241 471 255 509 q 221 393 227 433 m 522 935 l 502 818 l 49 818 l 70 935 l 522 935 z "},"џ":{"ha":766,"x_min":9,"x_max":745,"o":"m 250 141 l 426 141 l 359 -243 l 184 -243 l 250 141 m 136 734 l 311 734 l 208 141 l 466 141 l 569 734 l 745 734 l 617 0 l 9 0 l 136 734 z "},"Ѡ":{"ha":1259,"x_min":60,"x_max":1273,"o":"m 637 987 l 785 987 l 669 303 q 634 178 660 236 q 567 75 608 119 q 468 7 526 31 q 338 -15 411 -17 q 216 11 269 -14 q 126 77 162 35 q 76 177 91 120 q 68 303 60 235 l 184 987 l 367 987 l 251 302 q 249 243 248 273 q 261 190 251 214 q 293 149 272 165 q 350 132 315 134 q 437 154 401 130 q 493 217 472 177 q 520 302 513 256 l 637 987 m 1090 987 l 1273 987 l 1156 304 q 1096 135 1143 208 q 972 22 1048 62 q 797 -15 896 -18 q 680 13 729 -14 q 601 83 631 39 q 560 183 571 127 q 555 303 549 240 l 672 987 l 821 987 l 705 302 q 703 242 701 272 q 717 189 705 213 q 750 149 728 164 q 808 132 772 134 q 893 154 859 130 q 947 218 928 178 q 974 302 967 258 l 1090 987 z "},"ѡ":{"ha":1097,"x_min":45,"x_max":1094,"o":"m 524 734 l 667 734 l 592 286 q 561 169 584 224 q 501 72 538 114 q 411 7 463 30 q 290 -15 358 -16 q 178 11 226 -13 q 100 76 130 35 q 58 170 70 117 q 52 286 45 224 l 127 734 l 303 734 l 229 285 q 226 235 226 262 q 232 184 226 208 q 255 144 239 160 q 302 126 272 127 q 379 147 349 124 q 427 208 410 170 q 450 285 444 245 l 524 734 m 918 734 l 1094 734 l 1019 286 q 965 130 1006 199 q 857 22 924 61 q 696 -14 789 -17 q 589 13 633 -12 q 519 80 545 38 q 485 175 494 122 q 482 286 476 228 l 557 734 l 701 734 l 626 285 q 624 232 623 260 q 632 181 625 205 q 659 142 640 158 q 709 125 677 127 q 766 139 742 125 q 805 176 789 153 q 830 229 821 200 q 844 285 840 257 l 918 734 z "},"ѣ":{"ha":747,"x_min":19,"x_max":688,"o":"m 222 527 l 420 526 q 558 494 496 524 q 654 408 620 465 q 683 271 688 352 q 629 120 677 181 q 507 29 581 60 q 349 0 433 -1 l 19 0 l 202 1058 l 378 1058 l 218 140 l 354 140 q 427 156 394 140 q 481 199 460 171 q 509 269 503 228 q 504 328 513 302 q 472 369 494 354 q 416 385 450 383 l 197 386 l 222 527 m 519 851 l 498 734 l 37 734 l 58 851 l 519 851 z "},"Ѥ":{"ha":1204,"x_min":20,"x_max":1210,"o":"m 902 578 l 877 436 l 215 436 l 240 578 l 902 578 m 963 325 l 1141 326 q 1067 142 1126 218 q 917 25 1007 66 q 721 -13 827 -15 q 556 30 623 -11 q 451 137 489 70 q 401 287 413 204 q 400 456 389 370 l 411 531 q 461 709 425 623 q 555 861 497 794 q 694 966 614 928 q 876 1002 774 1004 q 1055 957 982 1000 q 1166 836 1127 913 q 1210 658 1206 760 l 1028 658 q 1014 759 1029 715 q 964 827 999 802 q 867 854 929 852 q 752 828 800 857 q 672 752 704 800 q 623 647 641 704 q 596 533 604 589 l 585 456 q 578 376 581 419 q 582 291 576 333 q 603 215 587 250 q 650 158 618 180 q 731 135 681 136 q 842 155 795 133 q 919 221 889 178 q 963 325 949 264 m 374 987 l 202 0 l 20 0 l 192 987 l 374 987 z "},"ѥ":{"ha":1015,"x_min":12,"x_max":985,"o":"m 763 427 l 742 309 l 169 309 l 189 427 l 763 427 m 627 127 q 695 141 665 125 q 747 183 726 156 q 775 248 767 211 l 940 248 q 886 107 932 167 q 768 16 839 48 q 620 -14 698 -16 q 485 18 541 -12 q 396 100 430 49 q 350 217 363 152 q 345 354 338 283 l 347 376 q 386 520 356 452 q 463 640 415 588 q 576 721 511 692 q 724 747 642 749 q 865 709 806 746 q 955 610 924 673 q 984 466 985 547 l 821 467 q 810 534 821 503 q 775 586 800 566 q 711 607 751 606 q 629 588 663 608 q 574 532 595 567 q 540 457 552 498 q 522 376 528 416 l 520 355 q 516 283 516 321 q 525 209 515 244 q 558 151 534 174 q 627 127 582 128 m 315 734 l 187 0 l 12 0 l 139 734 l 315 734 z "},"Ѧ":{"ha":875,"x_min":-61,"x_max":802,"o":"m 577 887 l 136 0 l -61 0 l 450 987 l 552 987 l 577 887 m 618 0 l 483 911 l 531 987 l 635 987 l 802 0 l 618 0 m 688 420 l 665 289 l 162 289 l 185 420 l 688 420 m 511 363 l 448 0 l 292 0 l 356 363 l 511 363 z "},"ѧ":{"ha":747,"x_min":-68,"x_max":656,"o":"m 358 464 l 118 0 l -68 0 l 333 734 l 471 734 l 358 464 m 484 0 l 399 481 l 383 734 l 509 734 l 656 0 l 484 0 m 585 309 l 563 189 l 102 189 l 123 309 l 585 309 m 401 257 l 357 0 l 234 0 l 279 257 l 401 257 z "},"Ѩ":{"ha":1246,"x_min":34,"x_max":1158,"o":"m 610 420 l 587 290 l 197 290 l 220 420 l 610 420 m 934 887 l 492 0 l 295 0 l 806 987 l 909 987 l 934 887 m 975 0 l 839 911 l 887 987 l 992 987 l 1158 0 l 975 0 m 1044 420 l 1021 289 l 518 289 l 541 420 l 1044 420 m 867 363 l 804 0 l 649 0 l 712 363 l 867 363 m 387 987 l 216 0 l 34 0 l 205 987 l 387 987 z "},"ѩ":{"ha":1065,"x_min":21,"x_max":972,"o":"m 530 308 l 508 189 l 101 189 l 122 308 l 530 308 m 675 465 l 434 0 l 248 0 l 650 734 l 787 734 l 675 465 m 801 0 l 715 481 l 699 734 l 825 734 l 972 0 l 801 0 m 900 309 l 879 189 l 418 189 l 439 309 l 900 309 m 718 257 l 673 0 l 549 0 l 595 257 l 718 257 m 324 734 l 197 0 l 21 0 l 149 734 l 324 734 z "},"Ѫ":{"ha":1166,"x_min":7,"x_max":1117,"o":"m 189 0 l 7 0 l 45 234 q 112 413 60 345 q 248 513 165 481 q 437 545 331 545 l 756 544 q 927 509 855 543 q 1034 408 999 475 q 1058 235 1069 340 l 1019 0 l 838 0 l 876 235 q 872 322 882 288 q 833 376 863 357 q 751 395 804 394 l 432 397 q 293 361 345 398 q 228 235 241 323 l 189 0 m 954 987 l 928 839 l 414 839 l 440 987 l 954 987 m 562 486 l 907 987 l 1117 987 l 675 387 l 570 387 l 562 486 m 471 987 l 652 465 l 616 387 l 515 387 l 280 987 l 471 987 m 701 517 l 611 0 l 430 0 l 520 517 l 701 517 z "},"ѫ":{"ha":986,"x_min":8,"x_max":903,"o":"m 182 0 l 8 0 l 26 120 q 85 287 39 221 q 205 384 130 352 q 379 415 279 415 l 589 414 q 745 378 682 412 q 838 280 808 345 q 857 121 867 215 l 838 0 l 663 0 l 682 121 q 683 199 687 164 q 656 255 679 233 q 586 278 634 276 l 376 280 q 286 262 321 281 q 230 208 250 243 q 202 121 210 172 l 182 0 m 807 734 l 786 613 l 302 613 l 323 734 l 807 734 m 449 349 l 702 734 l 903 734 l 556 269 l 457 269 l 449 349 m 398 734 l 526 330 l 496 269 l 402 269 l 216 733 l 398 734 m 576 364 l 513 0 l 338 0 l 401 364 l 576 364 z "},"Ѭ":{"ha":1554,"x_min":33,"x_max":1505,"o":"m 874 546 l 848 404 l 218 404 l 243 546 l 874 546 m 386 987 l 214 0 l 33 0 l 204 987 l 386 987 m 576 0 l 394 0 l 431 233 q 498 413 445 345 q 635 513 551 482 q 825 545 719 545 l 1143 544 q 1315 509 1243 543 q 1422 408 1388 476 q 1445 235 1457 340 l 1407 0 l 1225 0 l 1263 235 q 1260 322 1270 288 q 1221 376 1251 357 q 1138 395 1192 394 l 819 397 q 681 360 732 398 q 615 235 629 323 l 576 0 m 1341 987 l 1315 839 l 802 839 l 827 987 l 1341 987 m 949 486 l 1295 987 l 1505 987 l 1063 387 l 958 387 l 949 486 m 859 987 l 1040 466 l 1004 387 l 902 387 l 668 987 l 859 987 m 1089 517 l 999 0 l 817 0 l 907 517 l 1089 517 z "},"ѭ":{"ha":1343,"x_min":20,"x_max":1259,"o":"m 808 414 l 785 283 l 132 283 l 155 414 l 808 414 m 323 734 l 196 0 l 20 0 l 148 734 l 323 734 m 540 0 l 365 0 l 383 120 q 442 287 397 221 q 562 384 488 352 q 736 415 636 415 l 947 414 q 1103 378 1040 412 q 1195 280 1166 345 q 1214 121 1224 215 l 1196 0 l 1019 0 l 1038 121 q 1040 199 1044 164 q 1014 255 1036 233 q 943 278 991 276 l 732 280 q 643 262 678 281 q 587 208 607 243 q 559 121 567 172 l 540 0 m 1164 734 l 1143 613 l 659 613 l 681 734 l 1164 734 m 806 349 l 1059 734 l 1259 734 l 913 269 l 814 269 l 806 349 m 755 734 l 884 330 l 854 269 l 760 269 l 573 733 l 755 734 m 934 364 l 870 0 l 695 0 l 758 364 l 934 364 z "},"Ѯ":{"ha":693,"x_min":-69,"x_max":733,"o":"m 182 987 l 351 987 q 466 971 410 986 q 566 927 522 957 q 633 849 609 897 q 653 733 657 801 q 614 612 648 661 q 527 532 581 562 q 411 489 474 503 q 287 475 349 475 l 175 476 l 193 578 l 281 578 q 370 593 328 578 q 439 639 412 608 q 475 720 467 670 q 464 789 481 763 q 416 828 448 816 q 346 842 384 840 l 157 842 l 182 987 m 185 532 l 271 532 q 391 518 331 531 q 499 477 450 506 q 576 401 549 449 q 599 281 604 353 q 562 151 594 207 q 479 59 530 96 q 364 3 428 22 q 231 -14 300 -15 l 192 -14 q 126 -32 156 -15 q 91 -87 96 -49 q 97 -135 86 -115 q 127 -170 108 -155 q 169 -195 147 -184 l 109 -301 q 14 -251 54 -283 q -47 -172 -26 -218 q -66 -66 -69 -125 q -26 49 -63 5 q 66 112 10 92 q 187 132 123 132 l 229 131 q 296 141 263 132 q 356 168 329 150 q 401 214 383 186 q 426 279 420 242 q 422 348 431 319 q 391 395 412 376 q 339 423 370 414 q 271 433 308 432 l 168 433 l 185 532 m 382 1307 l 463 1205 l 578 1306 l 732 1310 l 733 1297 l 516 1111 l 406 1111 l 238 1298 l 238 1310 l 382 1307 z "},"ѯ":{"ha":673,"x_min":-58,"x_max":667,"o":"m 138 734 l 304 733 q 402 723 351 732 q 499 693 454 714 q 572 633 545 671 q 596 535 599 595 q 561 435 594 474 q 478 374 528 395 q 372 343 428 352 q 267 335 316 335 l 148 336 l 164 423 l 260 422 q 328 432 294 423 q 387 463 362 441 q 418 523 412 484 q 412 564 422 548 q 383 588 401 579 q 342 599 364 596 q 302 602 321 602 l 114 603 l 138 734 m 158 392 l 252 392 q 350 385 296 391 q 453 360 404 378 q 535 306 503 341 q 564 211 566 270 q 531 104 562 148 q 452 35 500 60 q 346 -3 403 9 q 236 -14 290 -14 l 203 -14 q 133 -31 166 -15 q 93 -87 100 -47 q 98 -134 89 -115 q 125 -169 107 -154 q 164 -195 143 -183 l 105 -294 q 21 -241 58 -274 q -37 -163 -16 -208 q -56 -66 -58 -119 q -19 40 -53 0 q 67 99 14 81 q 180 117 121 117 l 215 117 q 269 121 240 117 q 323 137 297 126 q 368 167 349 148 q 392 216 387 186 q 385 263 397 245 q 351 291 373 281 q 303 303 329 300 q 256 307 277 307 l 143 308 l 158 392 m 317 1054 l 396 951 l 512 1053 l 667 1056 l 667 1044 l 450 857 l 339 857 l 172 1045 l 171 1057 l 317 1054 z "},"Ѳ":{"ha":924,"x_min":64,"x_max":895,"o":"m 555 1002 q 695 972 635 1000 q 795 898 755 945 q 859 789 836 850 q 889 660 882 728 q 886 521 895 591 l 879 471 q 829 289 866 376 q 733 133 793 201 q 591 24 673 64 q 405 -14 509 -16 q 265 15 325 -12 q 164 90 205 43 q 100 198 123 137 q 71 328 77 259 q 73 467 64 397 l 80 518 q 131 699 94 612 q 228 856 168 787 q 370 964 288 924 q 555 1002 452 1004 m 545 851 q 439 830 485 853 q 360 765 393 806 q 306 673 327 724 q 273 570 284 623 q 272 561 273 566 q 270 552 271 557 l 705 552 q 706 560 706 556 q 707 568 707 564 q 707 664 711 615 q 687 754 703 713 q 636 823 670 796 q 545 851 602 849 m 415 136 q 522 157 476 134 q 601 222 568 181 q 654 315 633 264 q 687 419 675 366 q 689 427 688 423 q 690 435 690 431 l 254 435 q 253 428 253 432 q 252 420 253 425 q 253 325 249 374 q 274 234 257 276 q 325 165 290 192 q 415 136 359 138 z "},"ѳ":{"ha":762,"x_min":31,"x_max":716,"o":"m 426 747 q 561 715 505 746 q 653 632 618 684 q 702 514 688 580 q 709 376 716 448 l 707 361 q 667 215 698 283 q 587 95 637 147 q 470 14 537 43 q 321 -14 404 -16 q 187 18 244 -12 q 95 100 130 49 q 45 217 59 151 q 39 354 31 282 l 40 369 q 80 515 50 446 q 159 637 110 585 q 276 720 209 690 q 426 747 343 749 m 415 607 q 343 593 374 608 q 289 552 312 578 q 250 493 266 526 q 226 425 235 460 l 536 425 q 532 488 537 456 q 514 546 528 519 q 476 589 500 573 q 415 607 452 606 m 332 127 q 405 140 373 125 q 459 181 436 155 q 498 240 482 207 q 522 308 513 273 l 211 308 q 214 244 210 276 q 233 186 219 213 q 270 144 246 160 q 332 127 294 128 z "},"Ѵ":{"ha":861,"x_min":113,"x_max":941,"o":"m 412 267 l 639 774 q 700 887 665 835 q 786 970 735 939 q 909 1001 837 1002 l 941 1000 l 922 847 l 907 848 q 861 834 881 847 q 828 803 842 822 q 804 761 814 783 l 448 0 l 307 0 l 412 267 m 300 987 l 382 254 l 393 0 l 262 0 l 113 987 l 300 987 z "},"ѵ":{"ha":685,"x_min":75,"x_max":748,"o":"m 316 263 l 431 540 q 484 642 452 594 q 563 721 517 690 q 673 749 610 751 q 712 746 694 749 q 748 734 730 742 l 718 596 q 702 600 710 598 q 686 602 694 602 q 648 591 665 601 q 618 564 631 581 q 597 530 605 547 l 344 0 l 221 0 l 316 263 m 252 734 l 288 252 l 294 0 l 180 0 l 75 734 l 252 734 z "},"Ѻ":{"ha":924,"x_min":64,"x_max":895,"o":"m 641 1072 l 589 774 l 463 774 l 515 1072 l 641 1072 m 493 211 l 439 -93 l 314 -93 l 367 211 l 493 211 m 886 521 l 879 470 q 829 289 866 376 q 733 132 793 201 q 591 23 673 63 q 405 -14 509 -16 q 265 16 325 -12 q 164 90 205 43 q 100 198 123 137 q 71 328 77 259 q 73 467 64 397 l 80 518 q 130 699 93 612 q 227 856 167 787 q 370 964 288 924 q 555 1002 452 1004 q 695 972 635 1000 q 795 898 754 945 q 859 789 836 850 q 888 660 882 728 q 886 521 895 591 m 695 468 l 702 521 q 708 604 707 559 q 703 691 709 648 q 680 769 697 734 q 629 827 662 805 q 545 851 597 849 q 428 824 477 854 q 345 744 378 794 q 292 635 311 694 q 264 519 273 576 l 257 467 q 251 385 252 429 q 257 297 250 340 q 281 218 263 254 q 331 160 298 182 q 415 136 363 138 q 533 163 484 133 q 615 243 583 193 q 668 352 648 293 q 695 468 687 411 z "},"ѻ":{"ha":760,"x_min":32,"x_max":717,"o":"m 509 817 l 458 528 l 348 528 l 398 817 l 509 817 m 401 212 l 349 -83 l 239 -83 l 290 212 l 401 212 m 39 354 l 41 369 q 80 515 50 446 q 160 637 111 585 q 277 720 210 690 q 427 747 344 749 q 562 715 505 746 q 654 632 618 684 q 703 514 689 580 q 709 376 717 448 l 708 361 q 668 215 699 283 q 588 94 637 146 q 471 13 538 42 q 322 -14 404 -16 q 188 18 244 -12 q 96 100 131 49 q 46 217 60 151 q 39 354 32 282 m 216 369 l 214 355 q 212 281 211 320 q 225 207 214 241 q 262 151 237 173 q 333 127 288 128 q 417 146 381 125 q 476 202 452 167 q 513 279 499 237 q 533 361 527 321 l 534 375 q 536 449 538 410 q 524 524 535 489 q 486 582 512 559 q 416 607 460 605 q 332 587 367 608 q 273 530 296 566 q 235 452 249 495 q 216 369 222 410 z "},"Ѽ":{"ha":1257,"x_min":62,"x_max":1211,"o":"m 1029 1166 l 1048 1166 l 1042 1076 l 1029 1076 q 951 1092 989 1079 q 874 1122 913 1105 q 799 1150 836 1138 q 723 1162 761 1162 q 666 1142 688 1162 q 637 1088 643 1123 l 635 1076 l 549 1077 l 551 1102 q 600 1213 556 1174 q 716 1251 643 1252 q 795 1237 757 1250 q 871 1208 833 1225 q 948 1179 909 1192 q 1029 1166 987 1166 m 687 876 l 631 918 q 668 964 651 940 q 692 1017 686 987 l 705 1081 l 812 1080 l 804 1012 q 781 956 799 981 q 738 910 763 930 q 687 876 713 890 m 494 989 l 477 841 q 390 815 425 840 q 336 749 355 790 q 309 660 316 708 l 252 312 q 250 251 249 282 q 261 194 252 220 q 292 151 271 168 q 351 132 313 134 q 437 153 401 130 q 493 217 473 177 q 520 302 513 256 l 562 556 l 710 556 l 669 303 q 634 178 660 236 q 566 75 608 119 q 467 7 524 31 q 338 -15 410 -17 q 215 12 269 -14 q 126 82 161 38 q 76 185 91 127 q 69 313 62 244 l 125 660 q 188 834 139 762 q 314 947 236 907 q 494 989 391 987 m 926 839 l 938 988 q 1061 959 1008 985 q 1148 889 1114 933 q 1197 787 1183 845 q 1203 660 1211 728 l 1148 313 q 1108 180 1137 241 q 1034 75 1080 120 q 926 7 987 31 q 788 -14 864 -16 q 672 13 721 -13 q 593 83 623 39 q 551 183 562 127 q 546 303 539 240 l 587 556 l 736 556 l 694 302 q 693 241 691 271 q 707 187 696 212 q 742 148 719 163 q 800 132 764 133 q 868 145 840 130 q 917 186 897 160 q 949 245 937 213 q 966 312 961 278 l 1022 661 q 1025 723 1026 692 q 1015 778 1024 753 q 984 820 1005 804 q 926 839 962 836 z "},"ѽ":{"ha":1081,"x_min":50,"x_max":1015,"o":"m 911 935 l 932 935 l 926 844 l 911 845 q 832 860 871 846 q 756 889 793 873 q 682 918 720 905 q 606 930 645 930 q 548 911 571 930 q 519 857 526 891 l 518 844 l 432 845 l 433 871 q 483 982 439 943 q 600 1019 526 1021 q 679 1006 641 1019 q 755 977 718 993 q 831 948 792 960 q 911 935 869 935 m 573 645 l 518 687 q 555 733 538 709 q 578 787 572 757 l 591 850 l 700 850 l 690 781 q 667 725 686 750 q 624 680 649 699 q 573 645 599 660 m 418 745 l 402 604 q 325 579 355 603 q 277 519 294 556 q 254 440 260 482 l 233 290 q 230 241 231 268 q 235 188 229 214 q 257 144 241 162 q 302 126 273 127 q 359 138 336 124 q 398 177 382 153 q 424 229 414 201 q 437 285 433 258 l 456 409 l 591 409 l 572 286 q 544 173 564 228 q 489 76 523 119 q 405 8 454 33 q 290 -15 355 -17 q 179 12 226 -14 q 102 79 132 37 q 62 175 73 121 q 56 290 50 230 l 77 440 q 134 602 90 534 q 251 707 178 670 q 418 745 323 743 m 752 602 l 764 745 q 877 717 829 741 q 957 651 926 692 q 1002 557 989 610 q 1008 440 1015 503 l 987 290 q 955 171 979 227 q 890 72 930 115 q 796 6 850 30 q 672 -14 741 -17 q 569 14 611 -13 q 504 83 528 40 q 472 179 480 127 q 471 286 465 232 l 490 409 l 624 409 l 606 285 q 604 235 603 262 q 613 183 605 208 q 637 143 621 159 q 685 125 654 127 q 741 140 718 124 q 778 180 764 155 q 801 235 792 205 q 812 290 809 264 l 834 441 q 837 496 837 469 q 829 546 837 523 q 803 584 821 569 q 752 602 785 599 z "},"Ѿ":{"ha":1259,"x_min":60,"x_max":1273,"o":"m 694 1144 l 471 1144 l 486 1230 l 1057 1230 l 1043 1144 l 810 1144 l 795 1059 l 678 1059 l 694 1144 m 637 987 l 785 987 l 669 303 q 634 178 660 236 q 567 75 608 119 q 468 7 526 31 q 339 -16 411 -17 q 216 10 269 -14 q 126 77 162 34 q 76 177 91 120 q 68 303 60 235 l 184 987 l 367 987 l 251 302 q 250 243 248 273 q 262 189 252 214 q 293 149 272 165 q 350 132 315 134 q 437 154 401 130 q 493 217 472 178 q 520 302 513 256 l 637 987 m 1090 987 l 1273 987 l 1156 304 q 1096 135 1143 208 q 972 22 1048 62 q 797 -16 896 -18 q 680 12 729 -14 q 601 82 631 38 q 560 183 571 126 q 555 303 549 240 l 672 987 l 821 987 l 705 302 q 703 242 701 272 q 717 189 706 213 q 750 149 728 164 q 808 132 772 134 q 893 154 859 130 q 947 218 928 178 q 974 302 967 258 l 1090 987 z "},"ѿ":{"ha":1097,"x_min":45,"x_max":1094,"o":"m 578 903 l 372 903 l 387 988 l 926 988 l 914 903 l 694 903 l 678 817 l 563 817 l 578 903 m 524 734 l 667 734 l 592 286 q 561 169 584 224 q 501 72 538 113 q 411 7 464 30 q 290 -15 358 -16 q 178 11 226 -13 q 99 76 130 35 q 57 170 69 117 q 52 286 45 224 l 127 734 l 303 734 l 229 285 q 226 235 226 262 q 232 184 226 208 q 255 144 239 160 q 302 127 272 128 q 379 148 349 125 q 427 208 410 170 q 450 285 444 245 l 524 734 m 918 734 l 1094 734 l 1019 286 q 966 130 1006 199 q 857 22 925 61 q 696 -15 789 -17 q 589 12 633 -13 q 519 79 545 37 q 485 175 494 121 q 482 286 476 228 l 557 734 l 701 734 l 626 285 q 624 233 623 260 q 632 182 625 205 q 658 143 640 159 q 709 127 676 128 q 766 139 742 125 q 805 176 789 153 q 830 229 821 200 q 844 285 840 257 l 918 734 z "},"Ҁ":{"ha":843,"x_min":55,"x_max":841,"o":"m 380 134 l 368 -16 q 247 12 300 -12 q 156 75 194 35 q 94 165 117 114 q 63 276 71 216 q 63 398 55 335 l 93 589 q 140 748 106 673 q 230 881 175 823 q 358 971 285 939 q 523 1002 432 1004 q 699 958 627 1000 q 806 841 771 916 q 836 662 841 766 l 654 662 q 646 759 657 715 q 604 828 635 802 q 511 855 572 854 q 416 834 457 857 q 346 771 374 810 q 300 685 317 732 q 275 590 282 637 l 244 397 q 239 328 239 364 q 246 259 239 292 q 269 198 253 225 q 312 154 285 171 q 380 134 339 136 m 501 132 l 435 -248 l 254 -248 l 320 132 l 501 132 z "},"ҁ":{"ha":720,"x_min":44,"x_max":688,"o":"m 332 128 l 319 -15 q 189 21 243 -11 q 102 103 135 52 q 56 219 68 155 q 52 354 44 283 l 54 376 q 92 519 62 452 q 170 639 121 587 q 283 720 218 691 q 429 747 349 749 q 570 709 511 745 q 658 609 628 672 q 685 466 688 546 l 519 467 q 512 533 522 501 q 480 585 503 564 q 418 607 457 605 q 337 588 371 609 q 281 532 304 566 q 246 456 259 497 q 228 376 233 414 l 224 355 q 221 281 220 319 q 231 210 221 243 q 264 154 240 176 q 332 128 288 132 m 448 127 l 382 -250 l 207 -250 l 273 127 l 448 127 z "},"҂":{"ha":838,"x_min":39,"x_max":819,"o":"m 561 550 l 377 298 l 548 181 l 492 103 l 321 218 l 163 0 l 39 0 l 238 276 l 68 392 l 123 469 l 296 354 l 478 607 l 307 723 l 363 802 l 535 686 l 697 909 l 819 910 l 616 629 l 789 513 l 730 435 l 561 550 z "},"҃":{"ha":0,"x_min":-529,"x_max":-18,"o":"m -43 891 l -399 891 l -415 806 l -529 806 l -500 966 l -143 966 l -131 1040 l -18 1039 l -43 891 z "},"҄":{"ha":0,"x_min":-509,"x_max":-8,"o":"m -502 973 l -488 972 q -402 984 -444 972 q -320 1014 -361 997 q -239 1043 -280 1030 q -154 1055 -197 1055 q -47 1017 -86 1054 q -11 910 -8 979 l -13 883 l -98 884 l -97 898 q -107 946 -95 928 q -153 966 -120 964 q -235 955 -195 967 q -317 927 -276 943 q -401 897 -359 910 q -486 883 -443 884 l -509 883 l -502 973 z "},"҅":{"ha":0,"x_min":-306,"x_max":-163,"o":"m -215 885 l -306 1025 l -291 1112 l -168 1112 l -189 996 l -163 924 l -215 885 z "},"҆":{"ha":0,"x_min":-305,"x_max":-113,"o":"m -131 1009 l -254 886 l -305 939 l -252 1015 l -236 1112 l -113 1112 l -131 1009 z "},"҈":{"ha":0,"x_min":-992,"x_max":286,"o":"m -333 859 l -410 859 q -366 954 -404 919 q -267 987 -328 988 q -171 952 -208 987 q -134 857 -134 917 l -206 859 q -214 907 -204 886 q -257 928 -224 927 q -308 908 -290 928 q -333 859 -326 888 m 24 671 l -53 671 q -10 766 -48 731 q 89 800 28 800 q 186 764 149 799 q 223 669 222 729 l 151 671 q 142 719 152 699 q 99 740 132 740 q 49 720 67 741 q 24 671 31 700 m 87 330 l 12 330 q 55 424 17 389 q 153 458 92 458 q 249 422 213 457 q 286 328 286 388 l 214 330 q 206 378 216 357 q 163 399 196 399 q 113 379 131 399 q 87 330 95 359 m -104 -22 l -178 -22 q -136 72 -174 37 q -37 106 -98 106 q 59 71 22 106 q 96 -24 95 36 l 24 -22 q 15 26 25 5 q -27 47 5 47 q -78 27 -60 47 q -104 -22 -96 7 m -516 -214 l -592 -214 q -549 -120 -587 -155 q -450 -86 -511 -85 q -354 -122 -390 -87 q -317 -216 -317 -157 l -389 -215 q -397 -166 -387 -187 q -439 -146 -407 -146 q -490 -165 -472 -145 q -516 -214 -508 -186 m -742 671 l -819 671 q -775 766 -814 731 q -676 800 -737 800 q -579 764 -616 799 q -543 669 -543 729 l -615 671 q -623 719 -613 699 q -666 740 -633 739 q -716 721 -699 741 q -742 671 -734 701 m -918 330 l -992 330 q -950 424 -987 389 q -851 458 -912 458 q -755 423 -791 458 q -718 328 -719 388 l -790 330 q -799 378 -789 357 q -842 399 -808 399 q -891 379 -873 399 q -918 330 -909 359 m -869 -22 l -944 -22 q -902 72 -939 37 q -803 106 -864 106 q -707 71 -743 106 q -669 -24 -670 36 l -742 -22 q -750 26 -741 5 q -793 47 -760 47 q -843 27 -825 47 q -869 -22 -861 7 z "},"҉":{"ha":0,"x_min":-953,"x_max":266,"o":"m -444 -41 l -353 -39 l -344 -52 l -459 -280 l -528 -280 l -444 -41 m -243 764 l -332 762 l -342 774 l -227 1002 l -157 1002 l -243 764 m 38 334 l 47 429 l 54 435 l 266 348 l 255 288 l 38 334 m -726 388 l -734 292 l -741 286 l -953 374 l -942 433 l -726 388 m -2 612 l -65 680 l -63 692 l 162 795 l 205 741 l -2 612 m -690 81 l -628 14 l -629 1 l -853 -102 l -897 -47 l -690 81 m -545 647 l -615 583 l -627 584 l -691 814 l -647 854 l -545 647 m -149 44 l -79 109 l -66 109 l -1 -121 l -47 -162 l -149 44 z "},"Ҋ":{"ha":1045,"x_min":16,"x_max":956,"o":"m 252 309 l 768 987 l 956 987 l 785 0 l 602 0 l 720 678 l 203 0 l 16 0 l 188 987 l 370 987 l 252 309 m 699 1243 l 825 1244 q 788 1136 821 1181 q 704 1069 755 1092 q 591 1048 652 1047 q 443 1101 501 1050 q 384 1244 384 1152 l 511 1243 q 528 1176 509 1202 q 591 1149 547 1150 q 664 1175 636 1149 q 699 1243 691 1201 m 945 127 l 924 3 q 868 -148 912 -78 q 760 -267 824 -218 l 669 -215 q 711 -149 690 -181 q 748 -81 732 -116 q 771 -5 764 -45 l 794 127 l 945 127 z "},"ҋ":{"ha":872,"x_min":9,"x_max":779,"o":"m 230 267 l 564 734 l 745 734 l 617 0 l 441 0 l 524 467 l 189 0 l 9 0 l 136 734 l 311 734 l 230 267 m 573 1022 l 699 1023 q 663 915 695 960 q 578 848 630 871 q 465 827 527 826 q 317 880 376 829 q 258 1023 258 931 l 385 1022 q 402 955 384 981 q 466 928 421 929 q 538 954 511 928 q 573 1022 566 980 m 779 127 l 758 3 q 702 -148 746 -78 q 593 -267 658 -218 l 503 -215 q 545 -149 524 -181 q 582 -81 566 -116 q 605 -5 597 -45 l 628 127 l 779 127 z "},"ҍ":{"ha":747,"x_min":19,"x_max":688,"o":"m 222 527 l 420 526 q 558 494 496 524 q 654 409 620 465 q 683 271 688 353 q 629 120 677 180 q 507 29 581 59 q 349 0 433 -1 l 19 0 l 210 1102 l 385 1102 l 218 140 l 354 140 q 427 156 394 140 q 481 200 460 171 q 508 269 503 229 q 504 328 513 302 q 472 369 494 354 q 416 385 450 383 l 197 386 l 222 527 m 543 987 l 523 871 l 61 871 l 81 987 l 543 987 z "},"Ҏ":{"ha":850,"x_min":20,"x_max":867,"o":"m 568 675 l 796 352 l 726 296 l 498 618 l 568 675 m 462 359 l 204 360 l 230 507 l 468 506 q 566 525 522 506 q 640 580 610 543 q 676 673 669 617 q 670 757 683 720 q 625 816 656 794 q 545 840 593 838 l 348 840 l 202 0 l 20 0 l 191 987 l 550 987 q 715 947 642 985 q 828 840 788 909 q 859 674 867 771 q 793 497 850 567 q 649 393 736 427 q 462 359 562 359 z "},"ҏ":{"ha":760,"x_min":-42,"x_max":709,"o":"m 430 300 l 629 -3 l 557 -59 l 359 245 l 430 300 m 283 583 l 133 -282 l -42 -282 l 134 734 l 296 734 l 283 583 m 703 378 l 701 364 q 671 230 694 298 q 608 107 648 163 q 511 17 568 51 q 375 -14 453 -16 q 260 20 306 -12 q 187 105 214 53 q 150 218 160 157 q 142 338 139 279 l 147 384 q 183 511 158 446 q 250 631 209 576 q 347 718 290 685 q 476 748 403 750 q 599 712 551 746 q 672 624 647 678 q 703 505 696 569 q 703 378 709 441 m 527 365 l 528 380 q 531 450 532 412 q 521 523 530 488 q 488 581 511 558 q 420 606 464 604 q 346 592 378 608 q 290 550 313 577 q 251 489 266 524 q 229 418 235 455 l 212 304 q 215 241 210 272 q 236 184 221 210 q 277 144 252 159 q 339 127 302 128 q 419 148 386 126 q 475 206 453 170 q 509 284 497 242 q 527 365 522 326 z "},"Ґ":{"ha":746,"x_min":18,"x_max":859,"o":"m 859 1234 l 792 846 l 616 846 l 684 1234 l 859 1234 m 810 987 l 784 840 l 346 840 l 200 0 l 18 0 l 189 987 l 810 987 z "},"ґ":{"ha":617,"x_min":5,"x_max":671,"o":"m 671 949 l 609 592 l 433 592 l 495 949 l 671 949 m 612 734 l 587 592 l 283 592 l 181 0 l 5 0 l 133 734 l 612 734 z "},"Ҕ":{"ha":839,"x_min":22,"x_max":813,"o":"m 813 987 l 788 840 l 350 840 l 204 0 l 22 0 l 193 987 l 813 987 m 212 422 l 237 567 l 405 566 q 560 536 493 565 q 671 455 627 507 q 733 333 715 404 q 743 175 751 262 q 701 15 733 87 q 617 -110 669 -57 q 492 -192 564 -162 q 331 -222 420 -221 l 345 -87 q 439 -64 399 -86 q 504 -7 478 -43 q 544 75 530 29 q 565 168 559 120 q 567 261 571 217 q 544 341 562 306 q 490 398 526 377 q 400 422 455 420 l 212 422 z "},"ҕ":{"ha":705,"x_min":5,"x_max":619,"o":"m 123 302 l 148 448 l 291 447 q 464 407 388 445 q 579 298 539 369 q 610 124 619 227 q 579 13 605 64 q 514 -79 554 -38 q 423 -149 473 -119 q 319 -195 373 -178 l 259 -71 q 341 -26 304 -53 q 402 38 378 0 q 433 125 426 75 q 426 217 441 178 q 375 278 410 256 q 286 302 340 300 l 123 302 m 612 734 l 587 592 l 283 592 l 181 0 l 5 0 l 133 734 l 612 734 z "},"Җ":{"ha":1413,"x_min":-64,"x_max":1406,"o":"m 396 417 l 134 987 l 349 987 l 503 581 l 678 581 l 625 417 l 396 417 m 484 436 l 173 0 l -64 0 l 357 559 l 484 436 m 859 987 l 688 0 l 507 0 l 677 987 l 859 987 m 1406 987 l 951 417 l 715 417 l 720 581 l 881 581 l 1171 987 l 1406 987 m 1024 0 l 864 450 l 1019 562 l 1242 0 l 1024 0 m 1346 129 l 1282 -242 l 1106 -242 l 1171 129 l 1346 129 z "},"җ":{"ha":1200,"x_min":-52,"x_max":1162,"o":"m 306 286 l 92 733 l 298 734 l 408 451 l 552 451 l 502 286 l 306 286 m 393 309 l 170 0 l -52 0 l 266 407 l 393 309 m 709 734 l 581 0 l 407 0 l 534 734 l 709 734 m 1162 734 l 795 286 l 590 286 l 597 451 l 728 451 l 936 734 l 1162 734 m 829 0 l 708 321 l 859 410 l 1036 0 l 829 0 m 1131 129 l 1066 -242 l 890 -242 l 955 129 l 1131 129 z "},"Қ":{"ha":994,"x_min":22,"x_max":951,"o":"m 376 987 l 204 0 l 22 0 l 193 987 l 376 987 m 951 987 l 474 416 l 231 416 l 237 581 l 393 581 l 719 987 l 951 987 m 593 0 l 378 454 l 517 585 l 801 0 l 593 0 m 895 128 l 831 -243 l 655 -243 l 720 128 l 895 128 z "},"қ":{"ha":864,"x_min":19,"x_max":791,"o":"m 321 734 l 194 0 l 19 0 l 146 734 l 321 734 m 791 734 l 399 283 l 209 283 l 215 448 l 338 448 l 560 734 l 791 734 m 454 0 l 310 321 l 464 410 l 676 0 l 454 0 m 771 129 l 707 -242 l 531 -242 l 595 129 l 771 129 z "},"Ҝ":{"ha":882,"x_min":19,"x_max":974,"o":"m 190 987 l 373 987 l 201 0 l 19 0 l 190 987 m 389 753 l 496 753 l 410 256 l 302 256 l 389 753 m 740 987 l 974 987 l 553 414 l 228 414 l 233 578 l 490 578 l 740 987 m 469 450 l 622 562 l 821 0 l 597 0 l 469 450 z "},"ҝ":{"ha":800,"x_min":18,"x_max":847,"o":"m 146 734 l 321 734 l 194 0 l 18 0 l 146 734 m 350 581 l 448 581 l 376 163 l 277 163 l 350 581 m 618 734 l 847 734 l 511 283 l 208 283 l 214 448 l 451 448 l 618 734 m 422 321 l 569 410 l 724 0 l 508 0 l 422 321 z "},"Ҡ":{"ha":1109,"x_min":104,"x_max":1200,"o":"m 503 987 l 478 846 l 104 846 l 130 987 l 503 987 m 624 987 l 453 0 l 271 0 l 442 987 l 624 987 m 1200 987 l 722 416 l 480 416 l 485 581 l 641 581 l 968 987 l 1200 987 m 842 0 l 626 454 l 765 585 l 1050 0 l 842 0 z "},"ҡ":{"ha":955,"x_min":71,"x_max":1002,"o":"m 453 734 l 428 592 l 71 592 l 95 734 l 453 734 m 532 734 l 405 0 l 229 0 l 357 734 l 532 734 m 1002 734 l 610 283 l 419 283 l 426 448 l 548 448 l 770 734 l 1002 734 m 664 0 l 522 321 l 675 410 l 886 0 l 664 0 z "},"Ң":{"ha":1047,"x_min":20,"x_max":962,"o":"m 758 580 l 732 433 l 227 433 l 252 580 l 758 580 m 374 987 l 203 0 l 20 0 l 191 987 l 374 987 m 962 987 l 791 0 l 610 0 l 781 987 l 962 987 m 948 129 l 884 -242 l 708 -242 l 772 129 l 948 129 z "},"ң":{"ha":867,"x_min":9,"x_max":774,"o":"m 570 433 l 545 292 l 178 292 l 203 433 l 570 433 m 311 734 l 184 0 l 9 0 l 136 734 l 311 734 m 743 734 l 616 0 l 440 0 l 568 734 l 743 734 m 774 129 l 709 -242 l 534 -242 l 598 129 l 774 129 z "},"Ҥ":{"ha":1328,"x_min":20,"x_max":1377,"o":"m 1377 987 l 1352 846 l 941 846 l 821 987 l 1377 987 m 758 580 l 732 433 l 227 433 l 252 580 l 758 580 m 374 987 l 203 0 l 20 0 l 191 987 l 374 987 m 962 987 l 791 0 l 609 0 l 780 987 l 962 987 z "},"ҥ":{"ha":954,"x_min":5,"x_max":970,"o":"m 970 734 l 945 592 l 658 592 l 684 734 l 970 734 m 568 433 l 543 292 l 176 292 l 200 433 l 568 433 m 309 734 l 181 0 l 5 0 l 133 734 l 309 734 m 741 734 l 613 0 l 437 0 l 565 734 l 741 734 z "},"Ҧ":{"ha":1409,"x_min":22,"x_max":1320,"o":"m 962 987 l 790 0 l 608 0 l 753 840 l 350 840 l 203 0 l 22 0 l 193 987 l 962 987 m 779 421 l 805 566 l 973 565 q 1128 535 1061 564 q 1239 454 1195 506 q 1301 332 1282 403 q 1310 174 1320 260 q 1269 14 1301 86 q 1185 -111 1238 -58 q 1060 -193 1132 -163 q 899 -223 989 -222 l 913 -89 q 1006 -65 967 -87 q 1072 -8 1046 -44 q 1112 74 1097 28 q 1133 168 1127 119 q 1135 260 1139 216 q 1112 340 1130 305 q 1058 397 1093 376 q 968 420 1023 419 l 779 421 z "},"ҧ":{"ha":1166,"x_min":5,"x_max":1092,"o":"m 542 307 l 568 451 l 752 450 q 928 412 850 448 q 1049 304 1006 375 q 1083 127 1092 233 q 1053 17 1078 68 q 988 -75 1028 -34 q 898 -145 948 -116 q 795 -192 848 -175 l 732 -68 q 814 -23 777 -50 q 875 42 850 4 q 906 129 899 79 q 896 224 914 185 q 840 283 878 262 q 747 306 801 304 l 542 307 m 610 734 l 586 592 l 236 592 l 261 734 l 610 734 m 309 734 l 181 0 l 5 0 l 133 734 l 309 734 m 742 734 l 614 0 l 439 0 l 566 734 l 742 734 z "},"Ҩ":{"ha":1066,"x_min":61,"x_max":1040,"o":"m 954 132 l 943 -13 q 736 25 833 -9 q 566 123 638 59 q 458 278 493 186 q 439 490 423 370 l 460 629 q 494 760 469 693 q 559 881 518 826 q 657 970 600 937 q 790 1001 715 1003 q 919 961 868 999 q 997 864 969 924 q 1032 736 1024 805 q 1031 604 1040 667 l 1013 475 q 948 281 996 371 q 825 124 899 191 q 656 21 751 57 q 454 -14 562 -16 q 281 25 357 -13 q 155 126 205 62 q 83 274 104 191 q 73 450 61 357 l 94 587 q 138 743 106 669 q 221 874 170 817 q 342 967 273 932 q 499 1003 412 1001 l 482 850 q 399 823 433 848 q 342 757 366 797 q 306 673 319 718 q 287 589 293 628 l 266 450 q 264 341 258 395 q 293 241 271 287 q 357 168 315 196 q 463 138 399 140 q 598 162 536 136 q 708 235 661 188 q 787 345 756 283 q 829 475 818 406 l 851 623 q 856 685 853 648 q 855 759 859 722 q 832 822 850 796 q 776 850 814 848 q 710 829 736 852 q 668 771 684 806 q 644 698 652 736 q 631 631 635 660 l 611 488 q 620 336 599 401 q 689 225 641 270 q 804 156 736 180 q 954 132 872 133 z "},"ҩ":{"ha":858,"x_min":45,"x_max":814,"o":"m 764 96 l 757 -16 q 593 12 671 -13 q 456 83 515 36 q 367 201 397 130 q 349 368 337 272 l 361 463 q 387 565 368 514 q 437 659 406 616 q 514 725 469 701 q 618 748 559 750 q 718 716 678 746 q 779 640 757 687 q 807 540 800 593 q 808 437 814 486 l 796 345 q 746 198 785 264 q 649 83 708 131 q 517 9 590 35 q 363 -14 444 -16 q 223 18 284 -13 q 121 102 162 50 q 63 223 81 155 q 54 366 45 290 l 61 425 q 95 549 70 491 q 162 652 121 608 q 260 722 203 696 q 386 749 316 747 l 369 603 q 316 580 338 598 q 280 536 294 562 q 258 481 266 510 q 245 426 250 452 l 237 366 q 236 288 233 328 q 254 214 239 248 q 298 157 269 179 q 373 133 327 135 q 463 148 421 131 q 538 195 505 164 q 592 266 571 225 q 621 353 613 307 l 633 448 q 636 487 635 463 q 634 537 637 511 q 621 582 631 563 q 587 603 610 600 q 546 587 563 602 q 519 550 530 572 q 504 503 509 527 q 496 459 498 478 l 482 360 q 493 243 473 292 q 553 161 513 193 q 648 113 593 129 q 764 96 703 97 z "},"Ҳ":{"ha":895,"x_min":-50,"x_max":923,"o":"m 322 987 l 458 636 l 705 987 l 923 987 l 556 490 l 767 0 l 565 0 l 424 358 l 172 0 l -50 0 l 327 507 l 121 987 l 322 987 m 829 129 l 764 -242 l 589 -242 l 653 129 l 829 129 z "},"ҳ":{"ha":730,"x_min":-51,"x_max":715,"o":"m 262 734 l 351 502 l 517 734 l 715 734 l 444 366 l 600 0 l 420 0 l 321 244 l 148 0 l -51 0 l 231 382 l 81 734 l 262 734 m 660 129 l 595 -242 l 420 -242 l 484 129 l 660 129 z "},"Ҵ":{"ha":1204,"x_min":100,"x_max":1119,"o":"m 757 987 l 732 846 l 100 846 l 125 987 l 757 987 m 1098 147 l 1018 -238 l 848 -238 l 890 0 l 808 0 l 833 147 l 1098 147 m 178 0 l 350 987 l 532 987 l 386 146 l 791 146 l 936 987 l 1119 987 l 947 0 l 178 0 z "},"ҵ":{"ha":920,"x_min":60,"x_max":846,"o":"m 551 734 l 526 593 l 60 593 l 84 734 l 551 734 m 110 0 l 237 734 l 413 734 l 309 141 l 568 141 l 670 734 l 846 734 l 719 0 l 110 0 m 846 140 l 770 -218 l 608 -218 l 646 0 l 563 0 l 587 140 l 846 140 z "},"Ҷ":{"ha":1023,"x_min":131,"x_max":941,"o":"m 194 987 l 376 987 l 326 682 q 331 587 319 625 q 377 530 343 549 q 469 509 411 511 q 531 511 500 509 q 594 518 563 513 q 656 529 625 522 q 717 544 687 536 l 703 396 q 644 379 673 386 q 583 369 614 372 q 520 363 551 365 q 460 362 490 361 q 284 399 359 363 q 170 506 208 435 q 143 683 131 576 l 194 987 m 759 987 l 941 987 l 770 0 l 587 0 l 759 987 m 924 129 l 860 -242 l 684 -242 l 749 129 l 924 129 z "},"ҷ":{"ha":844,"x_min":71,"x_max":752,"o":"m 721 734 l 594 0 l 418 0 l 545 734 l 721 734 m 582 414 l 569 272 q 502 247 537 256 q 429 233 466 237 q 357 229 393 229 q 204 261 271 230 q 104 355 138 293 q 81 509 71 416 l 117 734 l 292 734 l 255 508 q 259 434 250 464 q 294 388 268 404 q 365 372 319 372 q 439 376 402 370 q 511 393 475 382 q 582 414 547 403 m 752 129 l 688 -242 l 512 -242 l 576 129 l 752 129 z "},"Ҹ":{"ha":915,"x_min":116,"x_max":926,"o":"m 565 711 l 477 205 l 370 205 l 458 711 l 565 711 m 179 987 l 361 987 l 311 682 q 317 587 304 625 q 362 530 329 549 q 454 509 396 511 q 516 511 485 509 q 579 518 548 513 q 641 529 610 522 q 702 544 672 536 l 688 396 q 629 379 659 386 q 568 369 599 372 q 506 363 536 365 q 445 362 475 361 q 269 399 345 363 q 154 506 193 435 q 128 683 116 576 l 179 987 m 744 987 l 926 987 l 755 0 l 572 0 l 744 987 z "},"ҹ":{"ha":753,"x_min":83,"x_max":734,"o":"m 458 555 l 385 131 l 278 131 l 352 555 l 458 555 m 734 734 l 606 0 l 431 0 l 558 734 l 734 734 m 594 414 l 581 271 q 514 247 550 256 q 442 233 479 237 q 370 229 405 229 q 217 261 283 230 q 117 355 151 293 q 93 509 83 416 l 130 734 l 304 734 l 268 508 q 271 434 262 464 q 306 388 280 404 q 378 372 332 372 q 451 376 415 370 q 523 393 488 382 q 594 414 559 403 z "},"Һ":{"ha":936,"x_min":19,"x_max":829,"o":"m 766 0 l 585 0 l 635 306 q 629 401 641 363 q 584 458 618 439 q 492 478 551 477 q 430 477 461 479 q 367 470 398 475 q 305 459 336 466 q 243 444 274 452 l 258 591 q 317 608 287 602 q 377 618 347 614 q 439 624 408 622 q 500 625 469 625 q 676 588 600 624 q 791 482 752 553 q 817 304 829 411 l 766 0 m 201 0 l 19 0 l 191 987 l 373 987 l 201 0 z "},"Ҽ":{"ha":1023,"x_min":43,"x_max":991,"o":"m 47 734 l 171 734 q 176 655 167 688 q 212 601 185 621 q 286 578 238 581 l 274 449 q 140 491 191 452 q 65 593 88 530 q 47 734 43 656 m 573 -15 q 405 17 479 -14 q 283 105 332 49 q 213 240 234 162 q 205 410 193 317 l 232 585 q 282 745 245 669 q 378 879 319 821 q 513 970 437 937 q 680 1000 589 1002 q 840 958 776 998 q 938 851 903 918 q 982 705 972 785 q 981 540 991 624 l 965 440 l 337 440 l 362 583 l 803 583 l 808 606 q 812 690 815 648 q 794 765 810 731 q 748 821 779 800 q 667 844 717 842 q 569 824 612 846 q 494 765 526 802 q 443 680 463 727 q 414 585 422 633 l 387 410 q 386 307 379 355 q 416 222 393 259 q 479 165 439 186 q 581 143 520 144 q 708 154 646 141 q 830 189 770 167 l 848 41 q 764 4 812 16 q 665 -12 715 -8 q 573 -15 615 -16 z "},"ҽ":{"ha":804,"x_min":-15,"x_max":785,"o":"m -11 585 l 102 584 q 123 479 97 517 q 218 437 149 441 l 208 319 q 81 358 130 323 q 8 452 31 393 q -11 585 -15 510 m 432 -14 q 298 16 356 -12 q 201 92 239 43 q 145 204 162 140 q 134 340 128 267 l 138 368 q 176 512 146 443 q 254 635 205 581 q 370 719 303 689 q 517 747 436 749 q 647 716 593 746 q 731 635 700 686 q 774 521 763 585 q 777 388 785 457 l 765 313 l 205 313 l 227 436 l 609 435 l 612 452 q 614 508 617 481 q 597 558 610 536 q 561 593 584 580 q 506 607 538 606 q 422 587 457 609 q 365 529 388 565 q 329 450 342 492 q 311 367 316 408 l 308 340 q 309 265 304 302 q 330 197 314 228 q 376 148 347 167 q 449 127 405 129 q 552 150 505 126 q 637 214 599 174 l 719 120 q 641 44 687 75 q 540 0 594 14 q 432 -14 486 -14 z "},"Ӄ":{"ha":869,"x_min":19,"x_max":930,"o":"m 373 987 l 201 0 l 19 0 l 190 987 l 373 987 m 930 987 l 431 416 l 229 416 l 234 583 l 368 583 l 694 987 l 930 987 m 262 414 l 289 564 l 463 564 q 617 533 550 562 q 728 453 684 505 q 791 330 772 401 q 800 172 810 258 q 759 11 791 83 q 673 -115 726 -62 q 547 -197 619 -168 q 385 -229 474 -227 l 398 -88 q 491 -65 452 -87 q 555 -9 530 -44 q 595 71 581 26 q 616 163 610 115 q 618 254 622 210 q 597 333 614 298 q 545 391 579 369 q 456 414 511 412 l 262 414 z "},"ӄ":{"ha":761,"x_min":18,"x_max":791,"o":"m 321 734 l 194 0 l 18 0 l 146 734 l 321 734 m 791 734 l 387 283 l 208 283 l 214 448 l 324 448 l 559 734 l 791 734 m 127 284 l 153 428 l 338 427 q 514 391 435 425 q 636 288 593 357 q 671 114 680 220 q 641 5 667 55 q 574 -85 615 -45 q 484 -154 534 -125 q 380 -199 434 -182 l 321 -75 q 402 -32 365 -58 q 464 30 439 -6 q 494 116 488 66 q 484 209 503 172 q 426 263 465 245 q 334 283 387 282 l 127 284 z "},"Ӆ":{"ha":1047,"x_min":-41,"x_max":960,"o":"m 826 987 l 800 840 l 332 840 l 357 987 l 826 987 m 960 987 l 789 0 l 606 0 l 777 987 l 960 987 m 328 987 l 511 987 l 401 494 q 370 356 387 427 q 325 221 352 286 q 258 106 298 157 q 157 27 217 56 q 13 0 97 -2 l -41 0 l -22 146 l 1 149 q 95 181 57 153 q 157 254 133 210 q 196 350 181 298 q 219 453 210 401 q 237 547 229 505 l 328 987 m 947 127 l 926 3 q 870 -148 914 -78 q 762 -267 826 -218 l 671 -215 q 713 -149 692 -181 q 750 -81 734 -116 q 773 -5 766 -45 l 796 127 l 947 127 z "},"ӆ":{"ha":873,"x_min":-50,"x_max":780,"o":"m 614 734 l 589 592 l 239 592 l 264 734 l 614 734 m 745 734 l 618 0 l 442 0 l 570 734 l 745 734 m 220 734 l 395 734 l 313 368 q 288 262 302 315 q 253 162 274 210 q 199 78 231 115 q 121 20 167 41 q 12 0 75 -1 l -50 0 l -33 144 l -9 145 q 55 168 29 148 q 99 218 81 188 q 126 284 116 248 q 143 355 137 319 q 155 420 150 391 l 220 734 m 780 127 l 759 3 q 703 -148 747 -78 q 594 -267 659 -218 l 503 -215 q 546 -149 525 -181 q 582 -81 566 -116 q 606 -5 598 -45 l 629 127 l 780 127 z "},"Ӈ":{"ha":954,"x_min":22,"x_max":962,"o":"m 193 987 l 376 987 l 302 560 l 705 560 l 779 987 l 962 987 l 788 -30 q 743 -170 778 -109 q 648 -265 707 -231 q 505 -298 588 -299 q 454 -294 479 -298 q 406 -286 429 -291 l 430 -141 q 462 -149 446 -146 q 495 -152 479 -152 q 553 -134 530 -151 q 588 -88 575 -116 q 605 -30 600 -60 l 680 414 l 276 414 l 204 0 l 22 0 l 193 987 z "},"ӈ":{"ha":760,"x_min":5,"x_max":741,"o":"m 133 734 l 309 734 l 256 433 l 512 433 l 565 734 l 741 734 l 610 -34 q 566 -172 600 -112 q 473 -265 531 -231 q 332 -298 414 -298 q 284 -295 308 -298 q 235 -286 260 -292 l 258 -147 q 291 -155 274 -152 q 324 -158 307 -158 q 381 -140 359 -158 q 416 -93 404 -121 q 433 -34 428 -64 l 488 292 l 231 292 l 181 0 l 5 0 l 133 734 z "},"Ӊ":{"ha":1051,"x_min":20,"x_max":962,"o":"m 758 580 l 732 433 l 227 433 l 252 580 l 758 580 m 374 987 l 203 0 l 20 0 l 191 987 l 374 987 m 962 987 l 791 0 l 610 0 l 781 987 l 962 987 m 952 127 l 931 3 q 875 -148 919 -78 q 766 -267 831 -218 l 675 -215 q 718 -149 697 -181 q 754 -81 739 -116 q 778 -5 770 -45 l 801 127 l 952 127 z "},"ӊ":{"ha":871,"x_min":9,"x_max":779,"o":"m 570 433 l 545 292 l 178 292 l 203 433 l 570 433 m 311 734 l 184 0 l 9 0 l 136 734 l 311 734 m 743 734 l 616 0 l 440 0 l 568 734 l 743 734 m 779 127 l 758 3 q 701 -148 745 -78 q 593 -267 657 -218 l 502 -215 q 544 -149 524 -181 q 581 -81 565 -116 q 604 -5 597 -45 l 627 127 l 779 127 z "},"Ӎ":{"ha":1274,"x_min":20,"x_max":1187,"o":"m 274 987 l 425 987 l 557 245 l 947 987 l 1112 987 l 585 0 l 458 0 l 274 987 m 191 987 l 346 987 l 254 297 l 202 0 l 20 0 l 191 987 m 1032 987 l 1187 987 l 1017 0 l 834 0 l 888 313 l 1032 987 m 1175 127 l 1154 3 q 1097 -148 1141 -78 q 989 -267 1053 -218 l 898 -215 q 940 -149 920 -181 q 977 -81 961 -116 q 1000 -5 993 -45 l 1023 127 l 1175 127 z "},"ӎ":{"ha":1108,"x_min":20,"x_max":1016,"o":"m 468 213 l 758 734 l 912 734 l 498 0 l 380 0 l 221 734 l 361 734 l 468 213 m 321 734 l 194 0 l 20 0 l 146 734 l 321 734 m 678 0 l 806 734 l 981 734 l 854 0 l 678 0 m 1016 127 l 995 3 q 939 -148 983 -78 q 830 -267 895 -218 l 739 -215 q 782 -149 761 -181 q 818 -81 802 -116 q 842 -5 834 -45 l 865 127 l 1016 127 z "},"Ә":{"ha":936,"x_min":49,"x_max":904,"o":"m 505 1001 q 685 965 607 1000 q 813 867 763 930 q 884 721 864 805 q 891 538 904 637 l 878 447 q 826 273 865 357 q 725 124 787 189 q 581 21 663 59 q 401 -14 499 -16 q 231 25 302 -12 q 119 126 161 62 q 63 271 77 189 q 61 446 49 353 l 77 549 l 766 549 l 740 402 l 239 403 l 233 379 q 232 287 224 330 q 261 212 239 244 q 321 162 283 180 q 413 142 359 144 q 525 167 476 141 q 609 238 574 193 q 666 337 644 283 q 696 447 688 392 l 710 538 q 712 654 719 600 q 680 750 705 708 q 610 817 655 792 q 496 843 565 842 q 363 831 429 844 q 235 795 298 819 l 216 944 q 306 981 256 969 q 407 998 355 994 q 505 1001 459 1002 z "},"Ӡ":{"ha":780,"x_min":28,"x_max":813,"o":"m 195 987 l 813 987 l 791 860 l 423 505 l 290 505 l 305 594 l 574 840 l 170 840 l 195 987 m 304 585 l 408 591 q 574 555 503 593 q 682 448 645 518 q 711 281 718 378 q 670 150 705 206 q 582 57 636 94 q 461 2 528 20 q 326 -15 395 -16 q 205 6 260 -14 q 111 64 151 26 q 50 154 71 101 q 31 275 28 208 l 212 275 q 224 203 210 234 q 266 153 237 172 q 337 133 294 134 q 425 149 383 132 q 495 201 467 167 q 530 283 524 235 q 524 380 538 339 q 475 443 510 420 q 382 467 439 465 l 283 467 l 304 585 z "},"ӡ":{"ha":781,"x_min":-14,"x_max":764,"o":"m 148 734 l 764 734 l 743 612 l 376 250 l 245 250 l 260 339 l 528 591 l 123 592 l 148 734 m 259 329 l 360 335 q 526 299 454 336 q 633 194 597 262 q 663 28 670 125 q 623 -103 657 -47 q 535 -196 589 -159 q 416 -251 481 -233 q 281 -268 350 -269 q 162 -247 216 -267 q 67 -189 107 -227 q 7 -99 28 -152 q -12 20 -14 -46 l 163 20 q 175 -54 161 -21 q 219 -105 189 -86 q 291 -126 248 -125 q 382 -109 339 -127 q 454 -56 425 -91 q 489 28 483 -21 q 482 126 496 85 q 432 189 468 167 q 338 214 396 212 l 239 214 l 259 329 z "},"Ӻ":{"ha":812,"x_min":35,"x_max":867,"o":"m 867 987 l 842 840 l 404 840 l 258 0 l 77 0 l 248 987 l 867 987 m 508 579 l 487 463 l 35 463 l 56 579 l 508 579 m 268 155 l 444 155 l 414 -33 q 370 -171 404 -111 q 277 -265 336 -231 q 136 -298 218 -298 q 87 -295 111 -298 q 39 -286 64 -292 l 62 -144 q 95 -152 79 -149 q 129 -155 112 -155 q 185 -137 163 -155 q 220 -92 208 -119 q 237 -34 233 -64 l 268 155 z "},"ӻ":{"ha":623,"x_min":0,"x_max":666,"o":"m 666 734 l 641 592 l 338 592 l 235 0 l 60 0 l 187 734 l 666 734 m 479 458 l 458 342 l 5 342 l 26 458 l 479 458 m 229 151 l 404 151 l 375 -37 q 331 -175 365 -115 q 238 -268 296 -235 q 97 -302 179 -302 q 48 -298 72 -301 q 0 -290 24 -295 l 23 -147 q 56 -155 39 -152 q 90 -158 73 -158 q 146 -140 124 -158 q 181 -95 168 -123 q 198 -37 193 -68 l 229 151 z "},"Ӽ":{"ha":935,"x_min":-50,"x_max":923,"o":"m 322 987 l 458 636 l 705 987 l 923 987 l 556 490 l 767 0 l 565 0 l 424 358 l 172 0 l -50 0 l 327 507 l 121 987 l 322 987 m 696 155 l 871 155 l 842 -33 q 798 -171 832 -111 q 705 -265 764 -231 q 564 -298 646 -298 q 515 -295 539 -298 q 467 -286 492 -292 l 490 -144 q 523 -152 507 -149 q 557 -155 540 -155 q 613 -137 591 -155 q 648 -92 635 -119 q 665 -34 661 -64 l 696 155 z "},"ӽ":{"ha":768,"x_min":-51,"x_max":715,"o":"m 262 734 l 351 502 l 517 734 l 715 734 l 444 366 l 600 0 l 420 0 l 321 244 l 148 0 l -51 0 l 231 382 l 81 734 l 262 734 m 527 155 l 703 155 l 673 -33 q 629 -171 663 -111 q 536 -265 595 -231 q 395 -298 477 -298 q 347 -295 370 -298 q 298 -286 323 -292 l 321 -144 q 354 -152 338 -149 q 388 -155 371 -155 q 445 -137 422 -155 q 479 -92 467 -119 q 496 -34 492 -64 l 527 155 z "},"Ԁ":{"ha":838,"x_min":26,"x_max":861,"o":"m 435 636 l 678 635 l 652 488 l 429 489 q 331 468 376 489 q 255 408 286 447 q 218 315 225 370 q 225 231 212 268 q 271 172 239 194 q 351 147 302 150 l 532 146 l 678 987 l 861 987 l 689 0 l 345 1 q 179 41 253 3 q 66 147 106 78 q 35 314 26 216 q 77 453 41 393 q 167 554 112 513 q 291 615 222 595 q 435 636 360 636 z "},"Ԃ":{"ha":1196,"x_min":50,"x_max":1139,"o":"m 458 636 l 701 635 l 674 488 l 452 490 q 353 468 398 489 q 278 408 308 447 q 239 315 248 370 q 247 231 233 268 q 293 172 261 194 q 373 147 326 149 l 555 146 l 701 987 l 884 987 l 712 0 l 368 1 q 202 40 275 3 q 89 146 129 77 q 58 313 50 215 q 99 453 64 393 q 190 554 134 513 q 314 615 245 595 q 458 636 383 636 m 770 0 l 668 0 l 694 146 l 777 146 q 864 174 829 146 q 921 243 900 201 q 951 332 942 285 q 960 396 957 363 q 964 462 964 429 q 962 529 965 496 q 951 593 958 562 l 1122 591 q 1135 506 1131 550 q 1138 418 1139 462 q 1131 332 1137 374 q 1070 159 1116 234 q 948 41 1024 83 q 770 0 872 -1 z "},"ԃ":{"ha":1152,"x_min":45,"x_max":1095,"o":"m 52 340 l 53 355 q 84 493 62 422 q 146 622 106 563 q 245 715 186 680 q 384 747 304 750 q 476 722 438 746 q 540 659 515 698 q 578 571 565 619 q 596 474 591 524 q 598 380 600 425 l 594 342 q 559 219 584 282 q 496 101 535 155 q 404 15 458 47 q 280 -16 350 -17 q 160 19 208 -14 q 87 103 113 52 q 53 217 61 155 q 52 340 45 279 m 229 356 l 228 341 q 225 273 224 309 q 235 204 225 237 q 267 150 244 172 q 333 127 290 129 q 426 151 385 125 q 492 217 466 176 q 529 306 519 258 l 545 413 q 542 479 547 446 q 522 541 536 512 q 481 587 507 569 q 418 606 456 604 q 335 583 369 607 q 279 521 301 559 q 246 439 258 483 q 229 356 234 395 m 484 249 l 621 1058 l 796 1058 l 658 248 q 659 196 655 223 q 677 150 663 169 q 722 128 691 130 q 802 148 769 125 q 858 206 836 170 q 894 284 881 243 q 913 362 907 326 q 925 498 924 429 q 915 633 926 566 l 1081 633 q 1093 498 1090 566 q 1086 363 1095 430 q 1046 218 1075 287 q 969 97 1017 150 q 857 15 922 45 q 709 -14 792 -16 q 577 20 630 -14 q 501 112 525 53 q 484 249 477 170 z "},"Ԅ":{"ha":1063,"x_min":116,"x_max":997,"o":"m 304 412 l 141 412 l 167 560 l 275 559 q 374 574 328 559 q 451 622 420 588 q 490 713 482 655 q 486 771 495 747 q 457 809 477 795 q 411 830 438 824 q 354 838 385 837 l 116 839 l 142 987 l 359 987 q 484 970 425 986 q 587 922 543 954 q 655 837 631 889 q 673 712 678 785 q 649 618 669 654 q 599 562 629 583 q 531 527 568 541 q 454 497 494 513 q 379 458 415 482 q 372 448 374 454 q 368 434 370 441 q 361 423 366 427 q 334 415 353 418 q 304 412 315 412 m 402 214 l 401 216 l 407 261 q 401 336 411 303 q 366 388 391 368 q 296 410 340 407 l 314 495 q 422 481 371 494 q 513 441 474 468 q 573 370 552 414 q 588 261 593 326 l 583 213 q 585 177 582 194 q 600 148 589 160 q 631 134 610 136 q 706 156 675 134 q 758 212 737 178 q 790 287 778 247 q 808 363 803 327 q 821 498 819 430 q 810 633 822 566 l 983 633 q 995 498 992 566 q 987 363 997 430 q 948 219 977 287 q 870 97 918 151 q 756 14 822 44 q 608 -15 691 -16 q 489 15 534 -14 q 425 94 445 43 q 402 214 405 145 z "},"ԅ":{"ha":867,"x_min":64,"x_max":835,"o":"m 253 275 l 64 275 l 87 410 l 199 410 q 260 418 231 410 q 311 446 290 427 q 338 500 332 466 q 332 551 343 532 q 299 581 321 571 q 249 592 277 591 l 66 593 l 87 734 l 253 733 q 382 711 319 732 q 483 645 444 690 q 517 521 521 599 q 495 441 515 468 q 445 402 475 415 q 382 376 416 389 q 319 338 349 363 q 311 322 313 332 q 308 301 309 311 q 301 286 307 291 q 278 278 296 281 q 253 275 260 275 m 469 161 l 473 174 q 476 127 471 146 q 511 103 481 109 q 572 120 546 102 q 614 165 597 137 q 641 226 631 194 q 656 288 651 258 q 662 396 664 342 q 646 503 660 450 l 812 501 q 829 396 823 449 q 828 289 835 342 q 795 168 820 224 q 730 70 770 112 q 635 4 690 28 q 511 -19 580 -20 q 432 -11 471 -18 q 361 16 393 -3 q 312 66 330 34 q 296 146 294 98 l 303 197 q 296 241 305 225 q 270 264 288 257 q 228 275 252 272 l 260 372 q 368 356 316 370 q 450 304 419 341 q 475 201 481 268 l 469 161 z "},"Ԇ":{"ha":776,"x_min":92,"x_max":693,"o":"m 296 403 l 92 403 l 116 544 l 255 543 q 351 559 307 543 q 426 608 396 574 q 463 697 456 642 q 455 777 469 744 q 409 826 441 809 q 332 846 378 844 l 125 846 l 147 987 l 336 987 q 495 954 424 985 q 607 861 566 923 q 640 704 647 799 q 618 614 635 648 q 573 558 601 579 q 512 521 546 536 q 443 489 479 505 q 371 449 406 473 q 364 439 366 446 q 360 428 362 433 q 353 418 357 422 q 336 410 347 414 q 315 405 326 407 q 296 403 304 404 m 262 403 l 302 495 q 445 467 382 494 q 540 385 507 440 q 562 243 572 330 l 551 165 q 546 114 547 140 q 551 62 545 87 q 575 16 557 37 l 573 0 l 399 -1 q 376 51 382 22 q 372 110 370 79 q 377 168 374 140 l 388 243 q 382 326 394 291 q 340 379 370 360 q 262 403 311 399 m 693 162 l 673 39 q 616 -112 661 -42 q 508 -232 572 -182 l 416 -180 q 459 -113 438 -146 q 496 -45 479 -81 q 519 30 512 -10 l 543 162 l 693 162 z "},"ԇ":{"ha":739,"x_min":88,"x_max":668,"o":"m 304 272 l 88 273 l 110 398 l 262 397 q 328 407 295 398 q 385 438 361 416 q 414 497 408 459 q 406 551 419 530 q 369 582 393 572 q 315 593 345 592 l 110 594 l 130 734 l 319 733 q 421 719 371 732 q 510 680 471 706 q 573 611 550 653 q 592 509 595 568 q 567 423 589 453 q 512 376 545 393 q 440 345 479 359 q 367 308 402 331 q 359 297 361 304 q 353 287 357 290 q 338 279 347 282 q 321 274 330 276 q 304 272 312 273 m 258 273 l 305 359 q 424 340 368 359 q 512 280 479 322 q 536 164 544 237 l 530 109 q 527 75 527 92 q 530 42 526 58 q 543 12 533 26 l 542 0 l 366 -1 q 354 35 357 16 q 353 72 351 53 q 356 111 354 92 l 363 164 q 355 225 368 203 q 318 259 343 248 q 258 273 294 270 m 668 153 l 648 30 q 591 -121 635 -52 q 484 -241 547 -191 l 391 -189 q 434 -122 413 -155 q 470 -54 454 -90 q 494 21 486 -19 l 517 153 l 668 153 z "},"Ԉ":{"ha":1301,"x_min":-26,"x_max":1264,"o":"m 344 987 l 526 987 l 417 494 q 385 355 403 426 q 341 221 368 285 q 273 107 314 157 q 173 29 233 58 q 28 0 113 0 l -26 0 l -7 146 l 17 148 q 110 181 72 152 q 172 254 147 210 q 211 350 196 298 q 235 454 226 402 q 252 547 243 505 l 344 987 m 821 987 l 795 839 l 376 839 l 402 987 l 821 987 m 648 251 l 772 987 l 955 987 l 830 250 q 829 212 828 232 q 837 175 831 193 q 857 146 843 158 q 892 134 870 135 q 970 153 937 131 q 1024 210 1002 174 q 1058 286 1045 245 q 1076 362 1070 327 q 1088 498 1087 430 q 1077 633 1089 566 l 1251 633 q 1262 498 1260 566 q 1255 363 1264 430 q 1215 218 1244 287 q 1138 96 1186 149 q 1025 13 1090 43 q 877 -16 960 -18 q 742 19 795 -14 q 664 111 688 52 q 648 251 640 170 z "},"ԉ":{"ha":1131,"x_min":-26,"x_max":1071,"o":"m 244 734 l 418 734 l 336 368 q 312 263 326 316 q 276 163 298 210 q 222 78 254 115 q 144 20 191 41 q 35 0 98 -1 l -26 0 l -8 144 l 15 145 q 79 168 53 148 q 122 218 105 187 q 150 284 139 248 q 167 355 161 319 q 179 420 174 391 l 244 734 m 623 734 l 598 590 l 275 590 l 300 734 l 623 734 m 488 249 l 570 734 l 745 734 l 663 248 q 663 207 661 228 q 673 169 665 186 q 696 140 681 151 q 736 129 711 130 q 802 147 774 127 q 847 199 829 167 q 875 267 865 231 q 890 333 886 303 q 901 461 901 397 q 889 589 901 526 l 1055 589 q 1067 461 1064 526 q 1063 334 1071 397 q 1028 202 1054 266 q 959 89 1002 139 q 857 11 916 39 q 723 -16 798 -17 q 616 4 663 -14 q 539 57 570 22 q 495 140 508 92 q 488 249 482 188 z "},"Ԋ":{"ha":1339,"x_min":20,"x_max":1263,"o":"m 249 560 l 749 560 l 723 413 l 224 413 l 249 560 m 192 987 l 374 987 l 203 0 l 20 0 l 192 987 m 772 987 l 954 987 l 830 250 q 831 199 828 225 q 849 154 835 173 q 892 134 863 135 q 969 153 937 131 q 1023 210 1002 174 q 1057 287 1044 246 q 1076 362 1070 328 q 1087 498 1086 429 q 1076 633 1088 566 l 1250 633 q 1261 498 1259 566 q 1254 363 1263 430 q 1214 218 1243 286 q 1137 96 1185 149 q 1024 13 1090 43 q 876 -16 959 -17 q 743 19 796 -14 q 665 112 690 53 q 647 251 641 172 l 772 987 z "},"ԋ":{"ha":1113,"x_min":-3,"x_max":1065,"o":"m 547 438 l 522 296 l 173 296 l 197 438 l 547 438 m 300 734 l 173 0 l -3 0 l 125 734 l 300 734 m 482 249 l 563 734 l 739 734 l 658 248 q 657 207 655 228 q 667 169 659 186 q 690 140 675 151 q 730 129 705 130 q 796 147 768 127 q 841 199 823 167 q 869 267 859 231 q 884 333 880 303 q 895 461 895 397 q 883 589 895 526 l 1048 589 q 1061 461 1058 526 q 1057 334 1065 397 q 1021 202 1047 265 q 953 90 996 139 q 851 12 911 40 q 717 -16 792 -16 q 611 4 656 -15 q 535 57 565 22 q 491 140 505 92 q 482 249 477 189 z "},"Ԍ":{"ha":850,"x_min":43,"x_max":798,"o":"m 400 -14 q 244 21 313 -13 q 129 112 175 54 q 63 245 83 170 q 54 405 43 320 l 82 583 q 136 749 96 672 q 238 883 176 825 q 379 971 300 940 q 552 1002 458 1003 q 673 988 614 1002 q 785 943 731 974 l 732 806 q 642 843 690 831 q 545 855 594 854 q 439 834 487 856 q 356 773 392 812 q 297 686 321 735 q 265 584 274 637 l 237 404 q 236 310 230 357 q 262 223 242 263 q 319 159 283 184 q 411 134 356 134 q 505 153 463 132 q 574 212 547 174 q 610 300 602 250 q 620 417 621 357 q 610 534 619 477 l 785 534 q 794 417 791 475 q 789 300 798 359 q 721 129 777 200 q 582 21 666 58 q 400 -14 498 -16 z "},"ԍ":{"ha":709,"x_min":37,"x_max":644,"o":"m 353 128 q 408 138 384 128 q 448 169 433 149 q 469 221 464 190 q 474 293 475 256 q 471 366 474 330 l 637 365 q 643 294 641 330 q 641 222 644 258 q 589 89 632 142 q 481 10 547 36 q 340 -15 416 -16 q 204 17 263 -13 q 107 97 146 46 q 53 212 69 147 q 43 351 37 277 l 47 380 q 87 523 56 456 q 170 641 119 590 q 287 721 220 692 q 433 748 354 749 q 531 738 483 747 q 621 701 578 728 l 576 565 q 504 597 543 587 q 425 607 465 607 q 343 587 379 607 q 282 534 308 567 q 242 460 257 500 q 221 380 227 420 l 218 351 q 218 276 214 315 q 237 204 222 237 q 280 149 252 170 q 353 128 309 128 z "},"Ԏ":{"ha":951,"x_min":96,"x_max":903,"o":"m 880 987 l 854 839 l 96 839 l 121 987 l 880 987 m 287 251 l 412 987 l 593 987 l 469 250 q 468 212 467 232 q 476 175 469 193 q 495 146 482 157 q 531 134 509 135 q 608 153 576 131 q 662 210 640 174 q 696 287 684 246 q 715 362 709 327 q 727 498 726 430 q 716 633 728 566 l 889 633 q 901 498 899 566 q 893 363 903 430 q 854 218 883 287 q 777 96 825 149 q 664 13 730 43 q 516 -16 599 -17 q 382 19 435 -14 q 305 112 330 53 q 287 251 281 172 z "},"ԏ":{"ha":860,"x_min":75,"x_max":798,"o":"m 698 734 l 673 592 l 75 592 l 100 734 l 698 734 m 224 249 l 304 734 l 479 734 l 398 248 q 400 194 395 221 q 422 149 405 167 q 471 129 439 130 q 531 142 505 127 q 575 180 557 156 q 605 234 593 205 q 621 293 616 264 q 626 395 629 344 q 609 494 623 446 l 773 493 q 791 394 784 444 q 792 293 798 344 q 757 170 784 227 q 687 72 730 113 q 586 7 643 30 q 459 -16 528 -16 q 353 4 399 -15 q 276 57 307 22 q 233 140 246 92 q 224 249 219 189 z "},"Ԑ":{"ha":887,"x_min":47,"x_max":884,"o":"m 444 533 l 608 532 l 591 432 l 471 433 q 390 425 429 433 q 318 398 351 416 q 264 350 286 380 q 236 272 242 319 q 247 207 232 233 q 289 163 261 180 q 349 139 316 146 q 414 132 382 132 q 507 145 461 130 q 586 192 553 160 q 629 274 620 224 l 810 275 q 767 142 804 197 q 672 52 730 87 q 545 1 614 17 q 406 -15 475 -16 q 276 3 341 -14 q 159 53 212 19 q 77 141 106 87 q 52 271 47 195 q 94 398 57 347 q 188 478 131 449 q 312 520 245 508 q 444 533 379 533 m 597 473 l 454 474 q 347 489 402 475 q 244 532 291 503 q 169 606 197 561 q 145 714 142 652 q 189 850 150 795 q 287 940 227 906 q 417 988 347 974 q 558 1002 488 1003 q 717 968 642 1000 q 838 875 791 937 q 882 722 884 814 l 701 722 q 682 795 703 766 q 626 839 661 825 q 549 854 590 853 q 454 842 503 855 q 369 797 405 829 q 326 713 334 766 q 330 650 320 675 q 362 608 340 624 q 414 585 385 593 q 476 576 444 577 l 616 576 l 597 473 z "},"Ԓ":{"ha":1082,"x_min":-41,"x_max":987,"o":"m 826 987 l 800 840 l 332 840 l 357 987 l 826 987 m 960 987 l 789 0 l 606 0 l 777 987 l 960 987 m 328 987 l 511 987 l 401 494 q 370 356 387 427 q 325 221 352 286 q 258 106 298 157 q 157 27 217 56 q 13 0 97 -2 l -41 0 l -22 146 l 1 149 q 95 181 57 153 q 157 254 133 210 q 196 350 181 298 q 219 453 210 401 q 237 547 229 505 l 328 987 m 811 155 l 987 155 l 958 -33 q 913 -171 947 -111 q 820 -265 879 -231 q 680 -298 762 -298 q 631 -295 654 -298 q 583 -286 607 -292 l 606 -144 q 638 -152 622 -149 q 672 -155 655 -155 q 729 -137 707 -155 q 763 -92 751 -119 q 781 -34 776 -64 l 811 155 z "},"ԓ":{"ha":907,"x_min":-50,"x_max":819,"o":"m 614 734 l 589 592 l 239 592 l 264 734 l 614 734 m 745 734 l 618 0 l 442 0 l 570 734 l 745 734 m 220 734 l 395 734 l 313 368 q 288 262 302 315 q 253 162 274 210 q 199 78 231 115 q 121 20 167 41 q 12 0 75 -1 l -50 0 l -33 144 l -9 145 q 55 168 29 148 q 99 218 81 188 q 126 284 116 248 q 143 355 137 319 q 155 420 150 391 l 220 734 m 643 155 l 819 155 l 789 -33 q 745 -171 779 -111 q 652 -265 711 -231 q 511 -298 593 -298 q 463 -295 486 -298 q 414 -286 439 -292 l 437 -144 q 470 -152 454 -149 q 504 -155 487 -155 q 561 -137 538 -155 q 595 -92 583 -119 q 612 -34 608 -64 l 643 155 z "}," ":{"ha":694,"x_min":0,"x_max":0,"o":""}," ":{"ha":1381,"x_min":0,"x_max":0,"o":""}," ":{"ha":694,"x_min":0,"x_max":0,"o":""}," ":{"ha":1381,"x_min":0,"x_max":0,"o":""}," ":{"ha":465,"x_min":0,"x_max":0,"o":""}," ":{"ha":350,"x_min":0,"x_max":0,"o":""}," ":{"ha":236,"x_min":0,"x_max":0,"o":""}," ":{"ha":764,"x_min":0,"x_max":0,"o":""}," ":{"ha":375,"x_min":0,"x_max":0,"o":""}," ":{"ha":281,"x_min":0,"x_max":0,"o":""}," ":{"ha":144,"x_min":0,"x_max":0,"o":""},"​":{"ha":0,"x_min":0,"x_max":0,"o":""},"‐":{"ha":500,"x_min":54,"x_max":440,"o":"m 440 494 l 415 352 l 54 352 l 79 494 l 440 494 z "},"‑":{"ha":500,"x_min":54,"x_max":440,"o":"m 440 494 l 415 352 l 54 352 l 79 494 l 440 494 z "},"–":{"ha":864,"x_min":102,"x_max":811,"o":"m 811 558 l 781 416 l 102 416 l 132 558 l 811 558 z "},"—":{"ha":1039,"x_min":76,"x_max":1021,"o":"m 1021 558 l 981 416 l 76 416 l 117 558 l 1021 558 z "},"‗":{"ha":603,"x_min":-115,"x_max":532,"o":"m 502 -176 l 484 -279 l -115 -279 l -97 -176 l 502 -176 m 532 0 l 514 -102 l -85 -102 l -66 0 l 532 0 z "},"‘":{"ha":304,"x_min":121,"x_max":373,"o":"m 121 717 l 136 812 q 164 908 143 863 q 217 992 186 953 q 287 1063 249 1031 l 373 1009 q 316 917 341 964 q 281 814 292 869 l 264 717 l 121 717 z "},"’":{"ha":300,"x_min":97,"x_max":350,"o":"m 350 1042 l 334 943 q 306 848 327 893 q 253 763 285 802 q 184 692 222 724 l 97 747 q 155 839 130 792 q 190 941 180 886 l 207 1042 l 350 1042 z "},"‚":{"ha":319,"x_min":-56,"x_max":198,"o":"m 198 147 l 182 48 q 153 -47 174 -1 q 100 -132 132 -92 q 31 -202 69 -171 l -56 -149 q -1 -56 -24 -103 q 33 47 22 -8 l 50 147 l 198 147 z "},"‛":{"ha":278,"x_min":138,"x_max":311,"o":"m 158 1042 l 302 1042 l 285 941 q 283 840 277 888 q 311 743 289 791 l 227 693 q 176 767 197 726 q 146 853 155 808 q 142 942 138 898 l 158 1042 z "},"“":{"ha":535,"x_min":126,"x_max":597,"o":"m 126 717 l 140 812 q 169 908 148 863 q 222 992 191 953 q 292 1063 254 1031 l 378 1009 q 321 917 346 964 q 286 814 296 869 l 269 717 l 126 717 m 346 717 l 360 812 q 389 908 368 863 q 442 992 410 953 q 511 1063 473 1031 l 597 1009 q 541 917 566 964 q 506 814 516 869 l 489 717 l 346 717 z "},"”":{"ha":540,"x_min":106,"x_max":579,"o":"m 359 1042 l 343 943 q 315 848 336 893 q 262 763 294 802 q 193 692 231 724 l 106 747 q 163 839 138 792 q 199 941 189 886 l 216 1042 l 359 1042 m 579 1042 l 564 943 q 535 848 556 893 q 483 763 514 802 q 413 692 451 724 l 326 747 q 384 839 359 792 q 419 941 409 886 l 436 1042 l 579 1042 z "},"„":{"ha":523,"x_min":-58,"x_max":420,"o":"m 203 175 l 182 49 q 153 -50 174 -3 q 101 -139 132 -98 q 31 -215 70 -181 l -58 -161 q -1 -62 -25 -113 q 33 47 22 -12 l 55 175 l 203 175 m 420 175 l 399 48 q 369 -51 391 -3 q 315 -140 347 -98 q 243 -215 283 -181 l 156 -161 q 214 -62 189 -113 q 250 47 239 -12 l 273 175 l 420 175 z "},"†":{"ha":729,"x_min":67,"x_max":743,"o":"m 542 987 l 387 0 l 212 0 l 367 987 l 542 987 m 743 734 l 720 589 l 67 589 l 90 734 l 743 734 z "},"‡":{"ha":777,"x_min":-1,"x_max":766,"o":"m 565 987 l 366 -282 l 191 -282 l 389 987 l 565 987 m 766 734 l 743 592 l 91 592 l 114 734 l 766 734 m 673 141 l 651 0 l -1 0 l 21 141 l 673 141 z "},"•":{"ha":477,"x_min":107,"x_max":410,"o":"m 107 489 l 109 516 q 155 627 112 583 q 268 671 199 671 q 372 629 333 670 q 410 523 410 587 l 409 495 q 361 386 406 428 q 250 345 317 345 q 147 385 186 345 q 107 489 108 425 z "},"‥":{"ha":694,"x_min":35,"x_max":542,"o":"m 36 85 q 64 156 35 127 q 136 184 94 184 q 207 159 178 185 q 236 91 235 133 q 207 20 237 47 q 136 -8 178 -8 q 65 17 95 -9 q 36 85 36 43 m 341 85 q 370 156 340 127 q 441 184 399 184 q 512 159 483 185 q 541 91 541 133 q 512 20 542 47 q 441 -8 483 -8 q 371 17 400 -9 q 341 85 341 43 z "},"…":{"ha":983,"x_min":35,"x_max":840,"o":"m 36 85 q 64 156 35 127 q 136 184 94 184 q 207 159 178 185 q 236 91 235 133 q 207 20 237 47 q 136 -8 178 -8 q 65 17 95 -9 q 36 85 36 43 m 341 85 q 370 156 340 127 q 441 184 399 184 q 512 159 483 185 q 541 91 541 133 q 512 20 542 47 q 441 -8 483 -8 q 371 17 400 -9 q 341 85 341 43 m 639 85 q 667 156 638 127 q 739 184 696 184 q 809 159 781 185 q 839 91 838 133 q 810 20 840 47 q 739 -8 781 -8 q 668 17 698 -9 q 639 85 639 43 z "},"‧":{"ha":327,"x_min":67,"x_max":266,"o":"m 68 420 q 96 490 67 463 q 166 517 125 516 q 236 493 207 517 q 266 427 265 468 q 237 357 266 384 q 167 330 208 331 q 97 354 127 330 q 68 420 68 379 z "},"‰":{"ha":1294,"x_min":113,"x_max":1221,"o":"m 117 745 l 121 797 q 156 902 127 855 q 232 976 184 949 q 339 1002 279 1003 q 440 973 397 1000 q 506 900 484 946 q 524 797 528 854 l 520 745 q 484 639 515 686 q 404 567 453 593 q 295 543 355 541 q 196 571 237 544 q 134 644 155 598 q 117 745 113 690 m 234 797 l 228 744 q 232 697 226 720 q 253 660 237 675 q 297 645 269 646 q 348 659 326 644 q 382 696 369 673 q 400 745 396 719 l 406 798 q 403 845 409 823 q 381 883 397 868 q 337 899 366 898 q 286 885 308 899 q 251 847 264 871 q 234 797 238 824 m 501 190 l 505 241 q 542 348 511 301 q 622 421 572 395 q 731 446 671 447 q 827 416 789 445 q 885 342 866 388 q 901 242 904 296 l 897 190 q 864 86 890 133 q 792 12 837 39 q 688 -14 747 -16 q 587 14 630 -13 q 521 86 544 41 q 501 190 498 132 m 627 242 l 621 188 q 625 142 618 164 q 647 104 631 119 q 690 89 663 90 q 742 101 721 87 q 776 139 764 115 q 793 190 789 162 l 800 243 q 796 290 802 267 q 774 328 790 313 q 730 343 758 342 q 679 330 701 344 q 644 292 657 315 q 627 242 631 269 m 818 190 l 822 242 q 854 345 827 298 q 927 420 882 392 q 1032 447 972 448 q 1133 418 1090 446 q 1198 345 1176 391 q 1217 242 1221 299 l 1213 190 q 1177 83 1207 130 q 1098 11 1147 37 q 989 -14 1049 -16 q 892 15 931 -13 q 834 90 853 43 q 818 190 814 136 m 927 242 l 920 189 q 925 142 918 164 q 947 104 931 119 q 990 89 963 90 q 1042 101 1021 87 q 1076 139 1063 115 q 1093 190 1089 162 l 1100 243 q 1096 290 1102 267 q 1074 328 1090 313 q 1030 343 1058 342 q 979 330 1001 344 q 944 292 958 315 q 927 242 931 269 m 850 840 l 253 76 l 167 130 l 764 894 l 850 840 z "},"‹":{"ha":417,"x_min":60,"x_max":417,"o":"m 417 631 l 208 359 l 65 357 l 65 369 l 290 631 l 417 631 m 199 364 l 315 91 l 208 91 l 60 353 l 60 366 l 199 364 z "},"›":{"ha":407,"x_min":-5,"x_max":352,"o":"m -5 91 l 204 363 l 347 365 l 347 353 l 122 90 l -5 91 m 98 631 l 203 631 l 352 368 l 352 356 l 213 357 l 98 631 z "},"⁄":{"ha":603,"x_min":-26,"x_max":656,"o":"m 656 840 l 60 76 l -26 130 l 570 895 l 656 840 z "},"⁰":{"ha":507,"x_min":92,"x_max":516,"o":"m 511 772 l 500 666 q 466 551 493 602 q 390 472 438 500 q 274 444 342 443 q 168 476 209 446 q 110 555 127 506 q 96 666 92 604 l 108 772 q 143 888 115 837 q 218 968 170 939 q 334 996 266 998 q 440 964 399 994 q 498 883 481 933 q 511 772 516 833 m 370 659 l 384 781 q 385 829 387 804 q 371 873 383 854 q 330 892 359 891 q 279 876 298 893 q 251 832 260 859 q 237 780 241 806 l 223 659 q 222 610 220 636 q 236 567 224 585 q 278 547 248 549 q 329 563 310 546 q 357 607 348 581 q 370 659 367 633 z "},"⁴":{"ha":507,"x_min":70,"x_max":509,"o":"m 509 668 l 490 563 l 70 563 l 78 656 l 368 987 l 480 987 l 337 807 l 207 669 l 509 668 m 503 987 l 410 452 l 281 452 l 375 987 l 503 987 z "},"⁵":{"ha":507,"x_min":82,"x_max":525,"o":"m 220 688 l 113 715 l 195 987 l 525 987 l 507 885 l 284 885 l 246 784 q 287 798 265 793 q 330 803 309 802 q 418 783 381 804 q 473 724 454 762 q 490 636 492 686 q 458 533 488 576 q 380 467 429 490 q 274 444 331 444 q 182 464 225 446 q 112 517 140 482 q 82 604 84 553 l 206 603 q 225 561 209 573 q 273 549 242 549 q 336 574 312 550 q 365 637 359 599 q 352 692 369 671 q 300 713 336 713 q 258 707 278 714 q 220 688 239 701 z "},"⁶":{"ha":507,"x_min":92,"x_max":502,"o":"m 446 999 l 471 998 l 461 892 l 457 892 q 349 878 397 895 q 270 822 301 861 q 229 722 239 783 l 218 641 q 221 596 216 617 q 240 562 226 575 q 283 550 254 549 q 326 562 307 550 q 359 593 346 574 q 374 636 372 613 q 362 688 379 669 q 313 707 345 707 q 272 700 292 707 q 236 680 252 693 q 213 646 221 666 l 179 666 q 208 742 183 709 q 269 792 232 774 q 348 810 305 810 q 433 787 398 810 q 485 723 468 763 q 500 635 502 684 q 468 534 498 577 q 389 467 437 490 q 283 444 340 444 q 176 474 220 446 q 112 551 133 502 q 95 662 92 600 l 98 697 q 134 826 105 770 q 208 920 162 882 q 315 978 254 958 q 446 999 375 998 z "},"⁷":{"ha":507,"x_min":100,"x_max":553,"o":"m 553 987 l 539 906 l 243 452 l 100 452 l 398 882 l 117 883 l 135 987 l 553 987 z "},"⁸":{"ha":507,"x_min":80,"x_max":516,"o":"m 484 605 q 452 511 484 547 q 371 459 420 475 q 272 444 323 444 q 182 460 226 445 q 109 508 138 475 q 81 595 80 541 q 115 686 82 651 q 197 736 148 720 q 294 751 245 752 q 382 736 338 751 q 455 689 426 721 q 484 605 485 656 m 361 616 q 355 649 363 636 q 331 667 347 661 q 298 673 316 673 q 259 666 278 673 q 227 644 240 659 q 211 608 214 629 q 216 575 208 589 q 239 555 224 562 q 272 549 254 549 q 311 556 292 549 q 344 579 330 564 q 361 616 357 595 m 515 848 q 484 765 515 797 q 408 718 454 732 q 317 703 362 703 q 234 717 276 703 q 165 761 193 731 q 137 839 137 791 q 166 928 137 893 q 241 980 196 963 q 336 996 287 997 q 422 980 381 996 q 490 932 464 964 q 515 848 516 900 m 386 839 q 382 868 389 856 q 364 885 376 880 q 336 891 352 891 q 287 875 309 891 q 261 831 266 859 q 264 803 258 815 q 283 784 271 791 q 311 777 295 777 q 360 794 338 777 q 386 839 382 811 z "},"⁹":{"ha":507,"x_min":112,"x_max":513,"o":"m 161 547 l 167 547 q 265 559 222 545 q 336 606 308 573 q 372 696 363 640 l 386 803 q 385 845 389 825 q 368 878 381 865 q 329 890 355 890 q 284 876 304 890 q 254 840 265 862 q 239 795 242 819 q 243 756 237 773 q 263 729 249 739 q 300 719 278 720 q 338 726 321 720 q 370 745 356 732 q 390 777 383 758 l 431 758 q 402 688 425 719 q 347 640 380 658 q 273 622 313 622 q 184 645 220 623 q 130 707 149 667 q 114 796 112 746 q 146 900 116 854 q 226 971 177 945 q 332 996 275 997 q 436 965 395 995 q 494 886 476 935 q 509 777 513 837 l 506 740 q 472 610 499 665 q 401 518 446 555 q 298 463 357 481 q 166 444 239 444 l 151 444 l 161 547 z "},"⁺":{"ha":543,"x_min":90,"x_max":549,"o":"m 549 738 l 530 629 l 90 629 l 110 738 l 549 738 m 418 924 l 335 444 l 221 444 l 304 924 l 418 924 z "},"⁻":{"ha":495,"x_min":91,"x_max":501,"o":"m 501 739 l 481 630 l 91 630 l 110 739 l 501 739 z "},"⁼":{"ha":495,"x_min":74,"x_max":517,"o":"m 484 642 l 465 533 l 74 533 l 94 642 l 484 642 m 517 833 l 498 724 l 107 724 l 126 833 l 517 833 z "},"⁽":{"ha":344,"x_min":93,"x_max":391,"o":"m 98 654 l 99 665 q 138 824 110 744 q 218 970 167 905 q 345 1070 269 1036 l 391 983 q 314 890 345 939 q 263 787 283 842 q 236 669 244 732 l 235 656 q 226 576 229 618 q 226 493 223 534 q 242 412 229 451 q 282 342 255 374 l 226 261 q 151 336 178 290 q 110 437 123 382 q 95 549 96 492 q 98 654 93 605 z "},"⁾":{"ha":344,"x_min":41,"x_max":340,"o":"m 335 675 l 334 663 q 295 505 323 585 q 216 359 267 425 q 87 258 165 294 l 41 345 q 119 437 88 389 q 170 542 151 486 q 198 659 189 597 l 199 672 q 207 752 204 711 q 207 835 210 793 q 191 915 203 876 q 151 985 178 954 l 208 1068 q 282 993 254 1040 q 323 891 311 947 q 338 780 336 836 q 335 675 340 724 z "},"ⁿ":{"ha":564,"x_min":67,"x_max":574,"o":"m 273 859 l 201 443 l 67 443 l 162 986 l 264 986 l 273 859 m 234 731 l 206 730 q 225 822 212 774 q 264 908 239 869 q 326 972 288 948 q 418 995 363 996 q 514 964 479 994 q 562 888 549 935 q 569 786 574 841 l 513 443 l 381 443 l 431 749 q 432 806 433 777 q 417 858 431 836 q 368 880 403 879 q 297 859 324 881 q 256 801 271 836 q 234 731 241 766 z "},"₀":{"ha":507,"x_min":-29,"x_max":395,"o":"m 391 73 l 379 -33 q 345 -148 372 -97 q 270 -228 317 -199 q 153 -255 222 -256 q 47 -223 88 -254 q -11 -144 7 -193 q -24 -33 -29 -95 l -13 73 q 22 189 -5 138 q 97 269 50 239 q 214 296 145 298 q 319 264 278 295 q 378 184 360 234 q 391 73 395 134 m 250 -40 l 263 82 q 264 130 266 104 q 251 174 262 155 q 209 193 239 192 q 158 177 177 194 q 130 133 139 159 q 117 81 121 106 l 102 -41 q 101 -89 100 -63 q 115 -133 103 -115 q 157 -152 127 -151 q 208 -136 189 -153 q 237 -92 227 -119 q 250 -40 246 -66 z "},"₁":{"ha":507,"x_min":35,"x_max":318,"o":"m 318 288 l 231 -246 l 103 -246 l 169 134 l 35 104 l 54 210 l 302 288 l 318 288 z "},"₂":{"ha":507,"x_min":-62,"x_max":391,"o":"m 361 -142 l 342 -246 l -62 -246 l -46 -153 l 164 20 q 201 53 181 34 q 238 92 222 71 q 258 138 254 113 q 249 180 262 164 q 208 195 235 195 q 149 172 170 195 q 119 114 127 148 l -9 113 q 24 212 -5 170 q 100 276 54 254 q 203 298 147 299 q 296 280 253 298 q 366 228 340 263 q 389 137 391 192 q 361 51 387 88 q 297 -16 334 14 q 224 -71 259 -45 l 127 -142 l 361 -142 z "},"₃":{"ha":507,"x_min":-52,"x_max":399,"o":"m 121 70 l 170 70 q 214 78 193 71 q 250 100 235 85 q 269 140 264 115 q 254 180 273 168 q 210 193 235 193 q 162 182 183 194 q 131 145 140 170 l 0 145 q 35 232 5 198 q 110 282 64 267 q 204 298 155 298 q 295 282 250 297 q 370 235 340 267 q 398 149 399 202 q 366 67 397 97 q 288 24 334 37 q 200 12 242 12 l 110 12 l 121 70 m 105 -17 l 115 39 l 183 39 q 270 27 227 38 q 339 -11 312 17 q 366 -92 366 -39 q 329 -186 364 -151 q 242 -239 294 -222 q 139 -254 190 -255 q 44 -234 87 -252 q -25 -179 1 -216 q -52 -87 -52 -142 l 73 -88 q 95 -134 74 -120 q 147 -149 116 -149 q 208 -132 179 -149 q 243 -81 237 -115 q 238 -43 247 -56 q 211 -24 229 -30 q 174 -18 194 -18 l 105 -17 z "},"₄":{"ha":507,"x_min":-50,"x_max":389,"o":"m 389 -31 l 370 -136 l -50 -136 l -42 -43 l 248 289 l 360 288 l 217 109 l 87 -30 l 389 -31 m 382 289 l 290 -246 l 161 -246 l 255 289 l 382 289 z "},"₅":{"ha":507,"x_min":-39,"x_max":405,"o":"m 100 -11 l -7 17 l 75 289 l 405 289 l 387 186 l 164 186 l 126 85 q 167 99 145 94 q 210 104 189 104 q 298 84 261 105 q 353 26 334 64 q 370 -62 372 -12 q 338 -165 368 -122 q 260 -232 309 -208 q 154 -254 211 -255 q 62 -235 105 -253 q -8 -181 20 -216 q -38 -94 -36 -146 l 86 -96 q 105 -138 89 -125 q 153 -149 122 -150 q 216 -124 192 -149 q 245 -62 239 -100 q 232 -6 249 -28 q 180 15 216 15 q 138 9 158 16 q 100 -11 119 2 z "},"₆":{"ha":507,"x_min":-29,"x_max":382,"o":"m 326 300 l 351 300 l 341 193 l 337 194 q 229 179 277 197 q 150 123 181 162 q 109 23 119 85 l 98 -58 q 101 -102 96 -81 q 120 -136 106 -123 q 163 -149 134 -149 q 206 -137 186 -149 q 239 -105 226 -125 q 254 -62 252 -85 q 242 -11 259 -30 q 193 9 225 9 q 152 2 172 9 q 116 -19 132 -5 q 93 -52 101 -33 l 59 -33 q 87 43 63 11 q 149 94 112 75 q 228 112 185 112 q 313 88 278 112 q 365 25 348 64 q 380 -63 382 -15 q 348 -165 378 -121 q 269 -232 317 -208 q 163 -254 220 -255 q 56 -225 100 -253 q -8 -148 13 -197 q -25 -37 -28 -98 l -22 -1 q 14 127 -15 71 q 88 221 42 183 q 195 280 134 260 q 326 300 255 300 z "},"₇":{"ha":507,"x_min":-20,"x_max":433,"o":"m 433 289 l 419 208 l 123 -246 l -20 -246 l 278 184 l -3 184 l 15 289 l 433 289 z "},"₈":{"ha":507,"x_min":-40,"x_max":396,"o":"m 364 -94 q 332 -188 363 -152 q 251 -239 300 -223 q 152 -254 203 -255 q 62 -238 106 -254 q -11 -190 18 -223 q -39 -104 -40 -157 q -5 -13 -38 -47 q 77 38 28 22 q 174 53 125 54 q 262 37 218 52 q 335 -10 306 22 q 364 -94 365 -42 m 241 -83 q 235 -50 243 -62 q 211 -31 227 -37 q 178 -25 196 -25 q 139 -33 158 -25 q 107 -55 120 -40 q 91 -91 94 -69 q 96 -123 88 -110 q 119 -143 104 -137 q 152 -150 134 -150 q 191 -142 172 -150 q 224 -119 210 -134 q 241 -83 237 -104 m 395 150 q 364 66 395 98 q 288 19 334 34 q 197 4 242 4 q 114 19 156 5 q 45 62 73 33 q 17 140 17 92 q 46 230 17 195 q 121 281 76 264 q 216 298 167 298 q 302 281 261 297 q 370 234 344 266 q 395 150 396 201 m 266 140 q 262 169 269 157 q 244 187 256 181 q 216 193 232 193 q 167 177 189 193 q 141 133 146 161 q 144 104 138 117 q 163 85 151 92 q 191 79 175 79 q 240 96 218 79 q 266 140 262 113 z "},"₉":{"ha":507,"x_min":-8,"x_max":392,"o":"m 41 -151 l 47 -152 q 145 -139 102 -153 q 216 -92 188 -125 q 252 -2 243 -59 l 266 104 q 265 146 269 126 q 248 179 261 166 q 209 192 235 192 q 164 177 184 191 q 134 142 145 163 q 119 96 122 120 q 123 57 117 75 q 143 31 129 40 q 180 20 158 21 q 218 27 201 21 q 250 47 236 34 q 270 78 263 60 l 311 60 q 282 -10 304 20 q 227 -59 260 -41 q 153 -77 193 -77 q 64 -54 100 -76 q 10 8 28 -31 q -6 98 -8 47 q 26 201 -4 156 q 106 273 57 247 q 212 297 155 298 q 316 267 275 296 q 374 188 356 237 q 389 79 393 138 l 386 41 q 352 -89 379 -33 q 281 -181 326 -144 q 178 -236 237 -218 q 46 -255 119 -254 l 31 -254 l 41 -151 z "},"₊":{"ha":550,"x_min":-26,"x_max":432,"o":"m 432 60 l 412 -49 l -27 -49 l -7 60 l 432 60 m 301 246 l 218 -234 l 104 -234 l 187 246 l 301 246 z "},"₋":{"ha":502,"x_min":-26,"x_max":384,"o":"m 384 62 l 364 -47 l -26 -47 l -7 62 l 384 62 z "},"₌":{"ha":502,"x_min":-43,"x_max":400,"o":"m 367 -35 l 348 -144 l -43 -144 l -24 -35 l 367 -35 m 400 155 l 380 46 l -10 46 l 9 155 l 400 155 z "},"₍":{"ha":344,"x_min":-19,"x_max":275,"o":"m -14 7 l -12 19 q 25 172 -3 96 q 105 309 54 248 q 230 404 155 370 l 275 315 q 200 231 231 276 q 151 133 170 185 q 124 23 132 81 l 123 11 q 115 -91 116 -38 q 126 -192 113 -143 q 174 -280 138 -241 l 117 -361 q 43 -292 72 -334 q 1 -198 15 -249 q -16 -93 -13 -146 q -14 7 -19 -40 z "},"₎":{"ha":344,"x_min":-66,"x_max":229,"o":"m 224 36 l 223 24 q 185 -130 214 -53 q 106 -268 156 -206 q -20 -363 56 -330 l -66 -276 q 10 -190 -21 -236 q 60 -92 41 -144 q 87 20 79 -39 l 89 33 q 95 132 94 80 q 84 232 96 184 q 36 317 71 279 l 92 401 q 166 333 138 375 q 209 239 195 290 q 226 136 223 189 q 224 36 229 83 z "},"₤":{"ha":797,"x_min":-5,"x_max":812,"o":"m 689 0 l -5 0 l 21 146 l 714 146 l 689 0 m 393 705 l 342 291 q 300 174 335 222 q 207 94 266 125 l 81 148 q 122 180 107 157 q 143 230 136 202 q 155 281 151 257 l 212 705 q 268 862 222 794 q 385 966 313 929 q 548 1000 457 1002 q 692 964 632 998 q 782 868 751 930 q 809 723 812 807 l 635 724 q 628 788 637 759 q 597 836 619 818 q 534 855 574 854 q 462 834 492 856 q 416 778 433 812 q 393 705 399 743 m 580 600 l 562 499 l 81 499 l 100 600 l 580 600 m 549 418 l 531 318 l 50 318 l 68 418 l 549 418 z "},"₦":{"ha":1088,"x_min":12,"x_max":1110,"o":"m 1110 660 l 1091 554 l 49 554 l 67 660 l 1110 660 m 1073 446 l 1055 340 l 12 340 l 31 446 l 1073 446 m 1029 987 l 858 0 l 682 0 l 390 692 l 270 0 l 87 0 l 259 987 l 436 987 l 728 294 l 848 987 l 1029 987 z "},"₧":{"ha":1149,"x_min":26,"x_max":1121,"o":"m 362 359 l 212 360 l 239 510 l 369 509 q 464 531 423 510 q 530 590 505 552 q 563 682 555 629 q 559 761 569 726 q 520 815 549 795 q 444 837 492 835 l 357 838 l 209 0 l 26 0 l 197 987 l 450 987 q 612 948 543 985 q 718 845 682 912 q 747 683 755 778 q 684 506 737 578 q 547 396 631 433 q 362 359 463 359 m 1121 734 l 1098 605 l 690 605 l 712 734 l 1121 734 m 852 914 l 1027 914 l 908 210 q 908 170 905 186 q 923 143 911 153 q 962 133 936 134 q 990 134 976 132 q 1019 138 1004 136 l 1006 2 q 954 -9 981 -5 q 901 -12 928 -13 q 799 16 838 -12 q 743 91 760 43 q 732 197 727 138 l 852 914 z "},"₨":{"ha":1461,"x_min":20,"x_max":1417,"o":"m 191 987 l 530 987 q 693 954 621 985 q 806 858 766 922 q 838 696 846 794 q 799 561 832 616 q 711 467 765 505 q 587 402 656 429 l 524 373 l 206 373 l 231 520 l 452 519 q 547 539 504 519 q 619 594 590 558 q 655 684 648 631 q 648 766 661 732 q 603 819 635 800 q 525 840 572 838 l 349 840 l 203 0 l 20 0 l 191 987 m 566 0 l 420 442 l 604 443 l 760 10 l 760 0 l 566 0 m 1200 205 q 1183 259 1205 239 q 1129 288 1162 278 q 1072 304 1097 298 q 990 332 1031 315 q 916 373 949 348 q 863 433 882 397 q 845 519 843 469 q 875 620 848 577 q 946 692 903 663 q 1042 734 990 720 q 1147 747 1095 749 q 1280 720 1219 747 q 1379 642 1341 694 q 1416 513 1417 589 l 1242 513 q 1232 569 1244 545 q 1197 605 1220 593 q 1140 618 1174 618 q 1084 608 1112 618 q 1037 578 1057 598 q 1013 527 1017 557 q 1020 487 1008 503 q 1050 461 1031 471 q 1091 446 1069 452 q 1131 435 1113 439 q 1245 396 1189 420 q 1337 328 1301 372 q 1370 214 1373 285 q 1337 110 1367 153 q 1261 38 1308 66 q 1160 -2 1215 11 q 1053 -14 1105 -14 q 916 16 980 -12 q 812 99 852 45 q 773 232 773 153 l 939 231 q 955 168 940 194 q 997 129 969 142 q 1061 116 1024 116 q 1120 124 1090 115 q 1172 152 1150 132 q 1200 205 1194 172 z "},"₩":{"ha":1072,"x_min":28,"x_max":1108,"o":"m 1108 751 l 1089 645 l 64 645 l 83 751 l 1108 751 m 1072 543 l 1054 437 l 28 437 l 47 543 l 1072 543 m 266 0 l 303 208 l 554 987 l 654 987 l 634 786 l 373 0 l 266 0 m 349 987 l 330 188 l 305 0 l 190 0 l 172 987 l 349 987 m 625 0 l 668 210 l 917 987 l 1102 987 l 741 0 l 625 0 m 713 987 l 696 188 l 666 0 l 557 0 l 569 799 l 610 987 l 713 987 z "},"₪":{"ha":1144,"x_min":7,"x_max":1124,"o":"m 134 734 l 588 732 q 695 710 652 731 q 763 653 739 690 q 794 567 787 616 q 794 456 801 517 l 760 244 l 585 244 l 619 458 q 621 512 623 488 q 610 553 619 536 q 580 581 600 571 q 528 591 560 591 l 285 593 l 182 0 l 7 0 l 134 734 m 661 0 l 285 0 l 370 491 l 546 491 l 486 141 l 710 140 q 790 154 758 140 q 843 199 823 169 q 871 277 863 230 l 948 734 l 1124 734 l 1047 277 q 1002 153 1038 205 q 911 66 966 100 q 792 16 857 32 q 661 0 728 -1 z "},"€":{"ha":769,"x_min":50,"x_max":808,"o":"m 509 134 q 576 139 543 134 q 643 155 610 145 l 650 5 q 568 -8 610 -3 q 486 -12 527 -12 q 338 18 402 -11 q 233 98 275 47 q 175 219 192 150 q 168 370 158 288 l 203 602 q 253 765 217 691 q 347 892 289 838 q 480 974 404 945 q 649 1001 556 1002 q 729 995 689 1001 q 808 980 768 989 l 772 832 q 712 849 743 842 q 651 856 682 855 q 547 839 592 857 q 468 786 501 820 q 415 705 435 751 q 387 603 395 659 l 350 369 q 348 280 344 322 q 370 205 353 238 q 422 154 388 173 q 509 134 456 135 m 622 636 l 604 540 l 81 540 l 99 636 l 622 636 m 590 452 l 573 355 l 50 355 l 67 452 l 590 452 z "},"₱":{"ha":1000,"x_min":46,"x_max":1046,"o":"m 1046 801 l 1027 694 l 73 694 l 92 801 l 1046 801 m 1019 645 l 1000 539 l 46 539 l 65 645 l 1019 645 m 510 359 l 252 360 l 278 507 l 515 506 q 613 525 569 507 q 687 580 658 543 q 724 673 717 617 q 717 757 730 720 q 673 816 704 794 q 592 840 642 838 l 396 840 l 250 0 l 68 0 l 239 987 l 598 987 q 763 947 690 985 q 876 840 836 909 q 908 674 916 771 q 842 496 899 566 q 697 393 785 427 q 510 359 610 359 z "},"₹":{"ha":706,"x_min":45,"x_max":783,"o":"m 740 741 l 685 616 l 60 616 l 116 741 l 740 741 m 306 0 l 45 403 l 62 503 l 210 502 q 307 524 263 503 q 380 583 351 545 q 416 676 409 622 q 410 761 422 725 q 367 817 398 797 q 285 840 335 838 l 100 840 l 163 987 l 290 987 q 458 952 385 985 q 568 852 530 919 q 598 685 606 785 q 547 523 590 587 q 434 420 505 458 q 271 370 363 383 l 505 11 l 504 0 l 306 0 m 783 987 l 728 862 l 212 862 l 269 987 l 783 987 z "},"₺":{"ha":787,"x_min":17,"x_max":748,"o":"m 435 987 l 264 0 l 82 0 l 254 987 l 435 987 m 568 519 l 748 519 l 743 469 q 696 287 733 374 q 598 131 659 199 q 454 22 537 62 q 269 -16 372 -17 q 176 -9 222 -15 q 83 0 130 -3 l 275 136 q 395 165 345 137 q 480 241 446 194 q 534 347 515 288 q 562 468 554 406 l 568 519 m 556 903 l 531 760 l 56 592 l 81 735 l 556 903 m 517 679 l 492 536 l 17 368 l 42 511 l 517 679 z "},"₼":{"ha":913,"x_min":-22,"x_max":823,"o":"m 795 0 l 619 0 l 639 120 q 645 206 645 161 q 638 295 646 251 q 610 374 630 338 q 556 431 591 409 q 469 455 522 453 q 349 428 400 458 q 261 348 297 398 q 203 238 225 298 q 172 119 182 178 l 153 0 l -22 0 l -3 117 q 50 298 12 212 q 148 454 87 385 q 291 562 208 523 q 478 599 374 602 q 618 570 557 597 q 720 495 678 543 q 785 387 761 448 q 816 257 809 326 q 814 117 823 189 l 795 0 m 602 734 l 474 0 l 298 0 l 426 734 l 602 734 z "},"₽":{"ha":937,"x_min":-14,"x_max":941,"o":"m 535 359 l 23 360 l 49 507 l 536 506 q 637 525 592 506 q 713 581 683 543 q 749 675 743 618 q 743 758 756 722 q 697 816 729 795 q 618 839 665 837 l 422 840 l 277 0 l 94 0 l 266 987 l 623 987 q 788 948 715 985 q 901 842 861 911 q 933 677 941 774 q 867 498 924 569 q 723 394 810 428 q 535 359 635 359 m 541 296 l 515 149 l -14 149 l 12 296 l 541 296 z "},"℅":{"ha":991,"x_min":126,"x_max":908,"o":"m 386 719 l 503 720 q 473 625 500 665 q 402 563 446 584 q 302 542 358 541 q 205 571 245 543 q 146 645 165 599 q 130 745 126 690 l 134 798 q 168 902 140 855 q 241 977 195 949 q 348 1002 288 1004 q 442 979 401 1002 q 505 916 483 956 q 527 822 527 876 l 410 823 q 396 876 410 854 q 347 899 382 899 q 300 884 319 900 q 270 845 281 869 q 254 798 258 822 l 248 744 q 249 702 245 724 q 264 663 252 679 q 302 646 277 646 q 357 667 336 646 q 386 719 378 689 m 489 190 l 493 241 q 529 349 498 302 q 609 421 560 395 q 720 446 659 447 q 821 418 779 444 q 886 346 864 391 q 905 242 908 300 l 901 190 q 864 82 895 129 q 786 10 834 36 q 675 -14 737 -16 q 573 14 616 -13 q 508 86 530 40 q 489 190 486 132 m 614 242 l 608 187 q 613 142 607 164 q 635 104 619 119 q 677 88 651 90 q 730 101 709 87 q 764 139 751 115 q 781 190 777 162 l 787 243 q 784 290 789 267 q 762 328 778 313 q 718 343 746 342 q 667 330 688 344 q 632 292 645 315 q 614 242 618 269 m 843 840 l 247 76 l 161 130 l 758 894 l 843 840 z "},"ℓ":{"ha":660,"x_min":20,"x_max":677,"o":"m 437 149 l 422 -15 q 299 10 354 -12 q 207 72 245 32 q 152 166 169 111 q 144 292 136 222 l 216 733 q 243 842 223 789 q 295 938 262 895 q 376 1005 328 981 q 488 1027 423 1029 q 572 1007 535 1026 q 632 958 608 989 q 666 886 655 926 q 673 800 677 845 l 671 771 q 618 606 662 680 q 506 473 574 531 q 356 375 438 415 q 186 313 273 334 q 20 290 100 292 l 32 414 q 190 439 111 415 q 337 508 269 463 q 452 620 406 554 q 510 770 498 686 l 515 800 q 515 824 515 810 q 512 850 515 838 q 500 870 509 862 q 478 882 492 879 q 443 867 456 881 q 420 834 429 854 q 408 793 412 814 q 401 755 404 772 l 332 321 q 329 255 327 286 q 341 202 330 225 q 375 165 351 179 q 437 149 398 151 z "}}}
